<?xml version="1.0" standalone="no"?>
<!DOCTYPE svg PUBLIC "-//W3C//DTD SVG 1.1//EN" "http://www.w3.org/Graphics/SVG/1.1/DTD/svg11.dtd" >
<svg xmlns="http://www.w3.org/2000/svg">
<metadata>
This is a custom SVG webfont generated by Font Squirrel.
Copyright   : Converted by ALLTYPE
</metadata>
<defs>
<font id="ActivaRegular" horiz-adv-x="986" >
<font-face units-per-em="1000" ascent="800" descent="-200" />
<missing-glyph horiz-adv-x="500" />
<glyph horiz-adv-x="0" />
<glyph />
<glyph unicode=" " />
<glyph unicode="!" horiz-adv-x="330" d="M111 41v-2v0v0v1v0v0v0v1v0v0q0 13 4 22.5t12 15.5t18 9t20 3q11 0 20 -3t18 -10t13.5 -16.5t4.5 -22.5t-4.5 -23t-12.5 -16q-9 -4 -18 -7.5t-20 -3.5h-1.5h-0.5v0v0h-1v0q-10 0 -19 3t-17 8q-8 6 -12 15t-4 22v0.5v1.5v2v0zM152 191l-33 399q-1 2 -1.5 6.5t-0.5 8.5v10 v10v3.5v2.5v4v4q1 12 4 23.5t7 21.5q5 11 14 16t22 5q14 0 23 -5t14 -16q5 -10 8 -21t4 -23v-2.5v-3.5v-2.5v-3.5v-6v-5q-1 -3 -1 -5.5v-5.5v-5v-5q-1 -2 -1 -4v-4l-33 -397h-26v0z" />
<glyph unicode="&#x22;" horiz-adv-x="330" d="M94 422h-18l-29 223v-1v1q-1 0 -1 0.5v1.5v3.5v2.5q-1 1 -1 2v2v1.5v1.5v0.5v1.5q0 10 2.5 19t6.5 16q5 8 12.5 12t19.5 4q11 0 19 -4.5t12 -12.5q5 -9 7 -18t2 -19v-2v-2v-2v-2v-1.5v-0.5q-1 -1 -1 -1.5v-0.5v-2v-2l-31 -221v0zM254 422h-16l-33 223q-1 1 -1 2.5v3.5v4 v4q0 10 2 19t6 18q5 8 13 12.5t21 4.5q11 0 19 -4t12 -12q5 -7 7 -16t2 -19v-5.5v-4.5v-2v-2q-1 -2 -1 -3v-2l-31 -221v0z" />
<glyph unicode="#" horiz-adv-x="770" d="M381 711h64l-82 -231h141l82 231h62l-80 -231h151l-22 -56h-150l-49 -141h162l-21 -54h-160l-83 -229h-64l80 229h-139l-82 -229h-62l80 229h-158l21 54h157l48 141h-170l22 56h170l82 231v0zM342 424l-49 -141h141l50 141h-142v0z" />
<glyph unicode="$" horiz-adv-x="568" d="M281 -86l2 84h-5.5h-4.5q-3 1 -5.5 1h-5.5h-2h-2q-2 1 -3 1h-2h-6h-5q-27 4 -52.5 13t-49.5 23t-39 36t-21 53q-1 3 -1.5 6t-0.5 6q0 2 -0.5 3t-0.5 3v2.5v2.5q0 11 2.5 20t7.5 16l6 6l7 7q3 3 7.5 6t8.5 6q3 2 6.5 4t7.5 4t8 4.5t8 5.5l12 -12q-3 -9 -4.5 -16.5 t-3.5 -14.5l-2 -14t-1 -14q0 -27 9 -49.5t28 -40.5t43.5 -28.5t55.5 -12.5v293q-34 12 -64.5 29t-57.5 39t-40.5 52.5t-13.5 69.5v1.5v1.5v2v2v1v2v1.5v1.5q2 40 16 70t39 49q25 20 55 33t66 20l-2 63h37v-61q5 -2 10 -3t10 -1q5 -1 10.5 -1.5t10.5 -0.5q15 -3 30 -7.5 t30 -10.5q14 -6 26 -16t22 -24l6 -10t4 -10q2 -5 2.5 -9.5t0.5 -8.5q0 -12 -4 -22t-12 -19t-17.5 -17t-20.5 -14l-18 18q2 4 4 9t3 10q0 2 0.5 4.5t0.5 5.5q1 2 1 4.5v4.5q0 18 -7.5 33t-21.5 26q-15 11 -32.5 17.5t-37.5 8.5v-264q2 -2 4.5 -3.5t5.5 -3.5q2 -1 5 -2l6 -2 q32 -15 61 -33t56 -38q27 -21 40.5 -51.5t13.5 -71.5v-1.5v-0.5v-1v0v-1.5v-0.5v-1.5v-0.5q-1 -43 -15 -76t-43 -55q-28 -22 -62 -36t-72 -19v-86h-37v0zM318 29q23 5 42.5 15.5t35.5 25.5q16 14 25 33.5t11 44.5v1.5v1.5v2t1 2v1.5v1.5v2v2q0 27 -8 48.5t-25 37.5 q-16 16 -37 29.5t-45 23.5v-272v0zM283 414v250q-22 -7 -40 -17t-32 -25q-15 -15 -22 -34t-7 -43v0v0v-1v0v0v0v-1v0v-1.5v-0.5q0 -25 7 -45t22 -35q14 -15 32 -27.5t40 -21.5v2v0z" />
<glyph unicode="%" horiz-adv-x="791" d="M223 -12h-51l396 717h49l-394 -717v0zM738 63q-11 -20 -26 -34.5t-34 -23.5q-19 -7 -38.5 -11.5t-39.5 -4.5q-7 0 -13.5 0.5t-13.5 1.5l-13.5 2t-12.5 3q-28 5 -49.5 20t-36.5 37q-15 23 -22 47.5t-7 51.5q0 11 1 22.5t4 23.5q3 11 7.5 22.5t10.5 21.5q11 20 26 34t34 23 q20 9 40 13.5t42 4.5h6t7 -1q3 0 6 -0.5t6 -0.5q6 -1 12.5 -1.5t13.5 -2.5q27 -8 48 -23.5t36 -38.5q14 -22 21.5 -47t7.5 -51q0 -12 -1.5 -23.5t-4.5 -22.5q-3 -12 -7 -22.5t-10 -21.5v2v0zM514 213q-1 -8 -2.5 -15.5t-2.5 -15.5t-1 -16.5v-16.5v-3v-3v-3.5v-3.5v-3.5 t1 -3.5v-2.5v-3.5q2 -16 5 -31t8 -29t14 -24.5t21 -17.5q5 -3 10.5 -5t9.5 -4l10 -2t10 -1q15 0 28.5 6t24.5 19q11 12 18.5 27t11.5 31q2 9 3.5 17.5t2.5 16.5t1.5 16.5t0.5 15.5q0 33 -7.5 58.5t-21.5 42.5t-30 25.5t-33 8.5q-13 0 -25.5 -5t-23.5 -16q-12 -10 -20 -25.5 t-13 -35.5v2v0zM336 449q-11 -20 -26 -34t-34 -23t-38.5 -13.5t-40.5 -4.5h-13.5t-13.5 1t-13.5 2.5t-13.5 3.5q-28 7 -49 22t-35 37q-15 23 -22 47t-7 51v4.5v4.5v4.5t1 5.5q1 9 2.5 18t4.5 18q2 9 6 18t9 18q10 17 23.5 30.5t31.5 22.5t36.5 15t37.5 7h1.5h1.5h0.5h1.5 h3.5h2.5q7 0 13.5 -0.5t12.5 -1.5q3 0 6 -0.5t7 -1.5q3 -1 6 -1.5t6 -1.5q28 -7 49 -22.5t36 -38.5t22.5 -48t8.5 -52v-2.5v-3.5q-1 -1 -1 -2.5v-3.5v-2.5v-2.5v-3v-3q-1 -9 -3.5 -17.5t-5.5 -16.5l-6 -16t-8 -16v2v0zM111 600q-1 -8 -2.5 -16t-2.5 -16t-1 -16.5v-16.5v-2.5 v-2.5v-3v-3v-5.5t1 -4.5q1 -16 4 -31.5t9 -30.5q5 -15 14 -25.5t21 -18.5q5 -3 10.5 -5t9.5 -4l10 -2t10 -1q16 0 29.5 6t24.5 19t18 27t11 30q2 9 3 17.5l2 16.5q0 4 0.5 8t0.5 8q1 3 1 7v8q0 32 -6 57t-20 42q-13 17 -28 27t-32 12h-1.5h-1.5h-1.5h-0.5q-13 0 -25.5 -5 t-23.5 -16q-12 -10 -20 -25.5t-13 -36.5v2v0z" />
<glyph unicode="&#x26;" horiz-adv-x="854" d="M602 158q-17 -24 -36 -45t-39 -39q-21 -19 -43 -35.5t-46 -30.5q-7 -4 -13.5 -6.5l-14.5 -5.5q-4 -2 -8 -3t-7 -2l-8 -2t-8 -1h-5.5h-4.5h-2.5t-2.5 -1h-3h-2h-2.5t-3.5 -1h-2.5h-2.5h-5.5h-4.5q-10 0 -19.5 0.5t-18.5 1.5t-18 1.5t-18 2.5q-37 6 -69.5 20t-58.5 38 q-27 24 -40 54.5t-13 67.5v10.5t1 10.5l2 10.5l2 11.5q6 30 20.5 54.5t36.5 43.5q22 18 45.5 34.5t48.5 31.5q1 1 2 1.5t2 1.5q1 0 2 0.5t2 1.5t2 1.5l3 1.5q1 0 2 0.5t2 1.5q-14 15 -26 32t-22 36t-15 39t-5 41v4.5v5.5q0 2 0.5 4.5t0.5 4.5l2 10l2 10q7 27 21 49t36 38 q22 17 47 25.5t53 8.5q28 -1 50 -10.5t38 -29.5q17 -19 25 -42t8 -49v-2.5v-3.5q-1 -1 -1 -2.5v-3.5v-3v-3q-1 -2 -1 -3.5v-3.5q-5 -24 -15.5 -43t-27.5 -34q-16 -15 -34 -28t-37 -24l27.5 -19.5t28.5 -18.5l29 -18l30 -18l16.5 -8.5t16.5 -9.5q4 -2 8 -4.5t8 -4.5 q4 -3 8 -5.5t8 -4.5l10 -6t11 -6q5 -4 10 -7l10 -6t10 -6.5l11 -7.5q5 -3 10 -6.5t10 -7.5l6 18.5l6 19.5l4 20t3 20v3.5t1 2.5v3.5v2.5v3.5t1 3.5v3v4q0 27 -7 50.5t-21 44.5q-13 20 -36.5 30.5t-56.5 10.5h-1.5h-0.5h-1.5h-1.5h-2h-2v22q1 -1 2 -1h2l1 0.5t2 0.5 q2 0 4 0.5t4 1.5q8 2 15 4l14 4t13.5 3t13.5 1h3h3q1 -1 2.5 -1h2.5q2 0 3 -0.5t3 -0.5q1 -1 2.5 -1.5t2.5 -0.5q4 -1 8 -4l8 -6q5 -4 9.5 -8.5t8.5 -9.5q11 -13 18.5 -27t11.5 -29q5 -15 7 -30.5t2 -31.5v-4v-4q-1 -3 -1 -5v-4v-4v-4q-1 -2 -1 -4v-4q-1 -15 -4 -29t-8 -28 q-4 -14 -9 -27.5l-10 -26.5l32.5 -32t28.5 -33q14 -16 26.5 -34l25.5 -37q8 -14 17 -24.5t19 -18.5q9 -7 20.5 -11t24.5 -4h8t8 1q5 0 9.5 1.5t8.5 2.5v-25q-5 -2 -10 -3.5t-10 -2.5q-4 -1 -8.5 -2t-9.5 -2q-15 -3 -29.5 -5t-28.5 -3q-14 -2 -28.5 -3.5t-29.5 -2.5 q-11 23 -23 45t-26 42q-13 20 -29 39t-35 38v2v0zM578 176l-41 31.5t-44 28.5l-44.5 27.5l-45.5 26.5l-32.5 18.5l-32.5 19.5q-16 9 -32 19.5t-31 21.5l-21.5 -14l-21.5 -15q-10 -7 -18.5 -16.5t-16.5 -20.5q-7 -10 -12.5 -21.5t-8.5 -23.5q-4 -12 -5.5 -24t-1.5 -24v-1.5 v-0.5v-1.5v-1.5v-2v-2q1 -14 4 -28t9 -28q5 -13 13.5 -25t19.5 -22q14 -14 30 -24.5t34 -17.5t36.5 -10.5t37.5 -3.5q14 0 28.5 1.5t29.5 5.5q14 4 27.5 9t26.5 12q17 9 33 20.5t30 24.5q14 14 26.5 28.5t23.5 30.5v2v0zM334 430q14 8 27 18.5t25 23.5q11 13 18.5 28 t11.5 33q1 5 1.5 9.5t1.5 8.5v4.5t1 4.5v4.5v4.5q0 18 -4.5 35t-13.5 33q-9 15 -24 24t-36 11h-1.5h-0.5h-1.5h-0.5h-1.5h-0.5h-1.5h-0.5q-21 0 -36.5 -8t-26.5 -24q-10 -16 -15.5 -33.5t-5.5 -37.5v-4.5v-4.5v-4t1 -4v-4.5t1 -4.5q0 -2 0.5 -4t1.5 -4q4 -18 11.5 -33 t17.5 -28q11 -13 23.5 -24.5t27.5 -21.5v2v0z" />
<glyph unicode="'" horiz-adv-x="500" />
<glyph unicode="(" horiz-adv-x="307" d="M156 -213q-14 49 -25.5 100t-19.5 103q-8 50 -13 102t-7 104v6v6q-1 2 -1 5v6v12v12q0 70 6 139t19 138q12 69 31.5 135t46.5 130l30 -8q-19 -55 -33 -112t-23 -119q-10 -61 -14.5 -123.5t-4.5 -125.5q0 -59 4 -117.5t12 -116.5q8 -57 20.5 -110.5t28.5 -104.5l-57 -61v0 z" />
<glyph unicode=")" horiz-adv-x="307" d="M148 787q16 -56 28 -113t21 -115q4 -29 7 -58l6 -58q2 -30 3 -59t1 -58q0 -70 -6 -139t-19 -138q-13 -67 -32.5 -133.5t-45.5 -130.5l-29 12q19 52 33 109t23 117q9 61 14 123t6 125v4.5v4.5v4.5v4.5q-1 57 -5.5 114t-12.5 113t-20 108t-28 101l56 62v0z" />
<glyph unicode="*" horiz-adv-x="500" d="M248 488l-102 -80l40 121l-108 69h131l39 121l39 -121h135l-113 -69l41 -121l-102 80v0z" />
<glyph unicode="+" horiz-adv-x="832" d="M389 596h56v-270h264v-56h-264v-270h-56v270h-266v56h266v270v0z" />
<glyph unicode="," horiz-adv-x="285" d="M27 -195q8 15 14.5 28.5l13.5 27.5q7 13 13 26.5t11 26.5l6 18l6 18l5.5 19t4.5 18q5 17 7 37.5t2 42.5v3.5v2.5v4v4q-1 2 -1 3.5v2.5v2v2v1v2q8 0 15 1.5t14 2.5q7 2 13.5 3.5t13.5 4.5q2 0 3 0.5l3 1.5q1 0 2.5 0.5t2.5 1.5q3 1 6 2.5t6 2.5v-4t1 -3v-4v-4v-7.5v-7.5 v-6.5v-6.5q-1 -4 -1 -7v-6q-1 -6 -1.5 -12t-1.5 -12q0 -1 -0.5 -3t-0.5 -3q-1 -2 -1 -3.5v-3.5q-1 -3 -1.5 -6t-1.5 -6l-6 -16t-7 -17q-2 -5 -4 -9.5t-4 -8.5q-3 -5 -5 -9.5t-4 -8.5q-4 -9 -9.5 -18t-10.5 -18t-10.5 -18t-10.5 -18l-10 -16.5l-10 -16.5q-3 -4 -5.5 -8 t-4.5 -8l-4.5 -7t-4.5 -8h-43v0z" />
<glyph unicode="-" horiz-adv-x="340" d="M63 211v70h214v-70h-214v0z" />
<glyph unicode="." horiz-adv-x="285" d="M88 41q0 11 4 20.5t13 16.5q8 6 17.5 9.5t19.5 3.5v0h1v0v0h0.5h1.5q9 0 18 -3.5t17 -10.5t12.5 -16.5t4.5 -21.5q0 -13 -4.5 -23t-12.5 -16q-9 -4 -18 -7.5t-19 -3.5h-1.5h-0.5v0v0h-1v0q-10 0 -19 3.5t-17 8.5q-8 6 -12 15.5t-4 22.5v2v0z" />
<glyph unicode="/" horiz-adv-x="277" d="M31 -12l-54 -2l269 721h57l-272 -719v0z" />
<glyph unicode="0" horiz-adv-x="568" d="M506 186q-7 -32 -18.5 -59.5t-26.5 -51.5t-37.5 -42t-52.5 -29q-10 -4 -20 -6t-21 -4t-22.5 -3t-22.5 -1t-22.5 1t-22.5 3l-21.5 4t-21.5 6q-29 11 -51.5 29t-38.5 43q-16 24 -27 51t-17 57q-4 17 -6.5 36t-4.5 40q-2 20 -3 41t-1 42v4.5v4.5v4.5v5.5q0 19 1.5 37.5 t2.5 37.5q2 19 4.5 37t6.5 34q6 29 17 56t27 51t38.5 42t51.5 30q10 5 20.5 8t21.5 5t22.5 3.5t22.5 1.5t22.5 -1.5t22.5 -3.5t21.5 -5t20.5 -8q29 -12 51.5 -30t38.5 -42t27 -51t18 -56q3 -16 6 -34t4 -38q2 -20 3 -40.5l2 -40.5v-2.5v-3.5v-2.5v-3.5q0 -22 -1 -43t-3 -42 q-1 -21 -4 -39t-7 -35v2v0zM148 498q-2 -17 -3.5 -34t-3.5 -35q-1 -18 -1.5 -36.5t-0.5 -37.5q0 -22 0.5 -43t1.5 -41q2 -21 3.5 -40t3.5 -36q0 -6 1 -11.5l2 -10.5l2 -11.5l2 -10.5q4 -16 10 -32.5t13 -31.5q8 -15 19 -27.5t24 -22.5q5 -4 11 -6.5t13 -4.5t14 -3.5t14 -2.5 h1.5h1.5h0.5h1.5h3.5h2.5q8 0 16.5 1t16.5 3t16 5.5t15 7.5q13 9 23.5 20.5t17.5 25.5q8 14 13.5 29t9.5 31q1 3 1.5 6t1.5 7q0 3 0.5 6.5t1.5 6.5t1.5 6.5t1.5 6.5q0 4 0.5 7t1.5 6q2 14 3.5 30t2.5 33q2 17 2.5 35t0.5 36v3.5v2.5v2v2v1v2q0 20 -0.5 40.5t-1.5 39.5 q-1 20 -3 38.5l-4 35.5q-1 5 -1.5 9.5t-1.5 8.5q0 2 -0.5 4.5t-1.5 5.5q0 2 -0.5 4.5t-1.5 4.5q-4 17 -9.5 34t-13.5 33q-7 17 -18.5 29.5t-25.5 22.5q-7 5 -14 8.5t-15 5.5t-16.5 3.5t-16.5 1.5q-9 0 -17.5 -1t-16.5 -3q-8 -3 -15.5 -6.5t-15.5 -8.5q-15 -10 -25.5 -22.5 t-18.5 -29.5q-7 -16 -13 -33t-10 -34q-1 -2 -1.5 -4.5t-0.5 -4.5q-1 -3 -1.5 -5.5t-0.5 -4.5q-1 -4 -1.5 -8.5t-0.5 -9.5v2v0z" />
<glyph unicode="1" horiz-adv-x="568" d="M141 0v35l105 12v576l-101 10v25q17 2 34.5 6l34.5 8l16.5 4l17.5 4q8 3 16.5 5t16.5 5q5 2 10.5 3.5t11.5 2.5q3 1 6 1.5t6 1.5q2 1 5 2l6 2v-656l112 -12v-35h-297v0z" />
<glyph unicode="2" horiz-adv-x="568" d="M57 0l-6 37q8 1 15.5 4t15.5 7t16 8.5t16 10.5q35 23 67.5 53.5t63.5 70.5q32 40 55 81.5t39 84.5q5 15 8.5 29.5t6.5 28.5t4.5 28.5t1.5 28.5q0 15 -2 30t-6 29t-10 27t-14 26q-9 13 -20.5 23t-25.5 17t-29 10.5t-30 3.5q-11 0 -21.5 -2t-21.5 -5q-10 -4 -19.5 -10 t-17.5 -14q-11 -11 -18.5 -23t-11.5 -26q-4 -13 -6 -27t-2 -28v-14t1 -14t1.5 -14t1.5 -14l-23 -2l-2 8t-2 9q-1 4 -1.5 8.5t-1.5 8.5q-1 9 -1.5 17.5t-0.5 16.5q0 47 14 82.5t42 59.5q29 24 59.5 36.5t64.5 13.5h1.5h1.5h1.5h1.5q22 0 43 -4.5t40 -14.5q20 -10 36 -24 t28 -33q9 -14 15.5 -29t10.5 -30q4 -16 6 -31.5t2 -31.5v-2.5v-2.5v-3v-3v-2.5v-2.5q-1 -2 -1 -3v-2q-2 -31 -10 -62.5t-22 -61.5q-13 -30 -29 -57t-34 -51q-21 -27 -43 -52.5t-45 -48.5l-49 -45.5t-51 -43.5l305 2q3 6 6 13l6 14q2 4 3.5 7.5t2.5 7.5q2 3 3.5 6.5t2.5 7.5 q2 7 4.5 14t5.5 14q2 4 3 7.5t3 7.5q1 4 2.5 7.5t2.5 7.5l23 2q-2 -13 -4.5 -25t-4.5 -23l-4 -22.5l-4 -22.5q-3 -12 -5 -23.5l-4 -22.5t-4.5 -22t-4.5 -21h-441v0z" />
<glyph unicode="3" horiz-adv-x="568" d="M119 227l16 -12q-4 -10 -6 -19t-4 -17l-2 -15.5t-1 -14.5q0 -31 10.5 -55t32.5 -41t46.5 -25.5t52.5 -8.5h0.5h1.5h2h2q20 0 39 5.5t37 15.5q18 11 33 26.5t25 36.5q4 8 7 17t5 18t3.5 18.5t1.5 19.5q0 22 -5.5 42t-16.5 39q-10 19 -26 32.5t-37 22.5q-3 2 -6 3l-6 2 q-4 1 -7 2l-6 2t-6 1.5t-6 1.5q-4 0 -7 0.5t-6 1.5h-3h-3h-3.5h-3.5h-2.5t-3.5 1h-2.5h-3.5q-12 0 -23.5 -1.5t-22.5 -3.5q-12 -2 -23 -5l-22 -6q1 2 1.5 4.5t1.5 4.5q0 2 0.5 4.5t1.5 4.5q1 5 1.5 9.5t0.5 9.5v3.5v2.5v1.5v1.5q-1 1 -1 2v2h2t3 1h2.5h2.5q3 0 6 0.5t6 1.5 q23 3 46 9t45 15t39.5 24t30.5 37q5 8 8.5 16t6.5 17t5.5 18t3.5 18v2t1 2v1v2v4v4q0 10 -2 20t-5 20t-8 19t-12 17q-9 10 -20 17.5t-23 12.5q-13 5 -25.5 8t-25.5 3q-7 0 -14.5 -1t-15.5 -3q-7 -1 -14 -3.5t-14 -5.5q-18 -9 -30 -21.5t-18 -28.5t-9.5 -33t-4.5 -35l-24 2 q1 25 5.5 49t13.5 46t26.5 39t42.5 29q11 5 22.5 8.5t23.5 6.5t24.5 4.5t25.5 1.5h1.5h1.5h0.5h1.5h1.5h1.5h0.5h1.5q14 -1 27.5 -3.5t26.5 -7.5q13 -4 25 -10.5t22 -15.5q13 -11 22.5 -24t15.5 -28t9.5 -30.5t3.5 -31.5q0 -15 -2 -29t-7 -28q-4 -13 -11.5 -26t-16.5 -24 q-11 -13 -23.5 -23.5t-26.5 -18.5q-13 -8 -28 -15.5l-30 -14.5q31 -1 59.5 -8t55.5 -19q26 -12 43.5 -35t25.5 -57q2 -7 2.5 -13t1.5 -12t1.5 -12t0.5 -12q0 -48 -18.5 -87.5t-56.5 -70.5q-37 -31 -80.5 -45.5t-92.5 -15.5q-25 0 -48 3.5t-45 10.5q-22 8 -41 20t-36 29 q-8 8 -15.5 17t-13.5 19q-7 10 -10.5 20.5t-5.5 21.5v0v1v0v0v0v1v0v0q0 4 2 9t6 11t8.5 12t9.5 12l3.5 3.5l2.5 2.5t1.5 2t1.5 2q1 0 1.5 1t1.5 2q2 3 4.5 5.5l5.5 5.5l4.5 4.5t4.5 5.5q5 5 8.5 9t6.5 7v2v0z" />
<glyph unicode="4" horiz-adv-x="568" d="M63 172l-16 51q36 67 75 130.5t81 121.5q42 59 90 116t102 112l23 -8v-465q14 -2 28.5 -2h29.5t30 0.5t31 1.5v-60q-8 -1 -15.5 -1t-15.5 1h-14.5h-15.5h-29.5h-28.5v-10.5v-10.5v-11.5v-10.5v-10.5v-10.5v-11.5v-10.5v-22v-22q0 -10 0.5 -20.5t1.5 -19.5h-82v9t1 10 v10.5v10.5v10.5t1 11.5v10.5v11.5v10.5v11.5v10.5v10.5v10.5v11.5v10.5v10.5l-277 2v0zM340 230v362l-68 -88l-65 -89q-31 -45 -59 -92l-54 -95l246 2v0z" />
<glyph unicode="5" horiz-adv-x="568" d="M123 172l18 -8q-1 -6 -1.5 -10.5t-0.5 -9.5q-1 -4 -1 -8.5v-8.5q0 -18 4 -34t12 -30t22 -24.5t35 -17.5l6 -2t7 -2q3 0 6 -1t6 -1q6 -1 12.5 -1.5t13.5 -0.5q34 0 62.5 12t51.5 37t34.5 55.5t11.5 66.5v0.5v1.5v0.5v1.5v0v1v0.5v1.5q-1 44 -16 77.5t-43 57.5t-58.5 36 t-64.5 12q-16 0 -31.5 -2.5t-30.5 -7.5q-16 -5 -30 -13t-27 -19l-19 12l10.5 41.5t10.5 43.5l10 44l10 44q2 11 4.5 21.5t5.5 21.5q2 10 4.5 21t4.5 22q5 22 9.5 44t8.5 44l293 2v-62h-258l-63 -233q15 7 31.5 13.5t34.5 10.5q17 5 35 7.5t36 2.5q17 0 33 -2t32 -6t31 -10.5 t29 -15.5q22 -14 38.5 -32.5t26.5 -41.5q11 -22 16.5 -46t5.5 -50v-2.5v-3.5q-1 -1 -1 -2.5v-3.5v-6v-6q-3 -29 -12.5 -57t-25.5 -54q-16 -27 -38 -47t-51 -34q-13 -7 -27 -11t-30 -7t-31.5 -4.5t-31.5 -1.5h-1.5h-0.5h-1.5h-1.5h-2h-2q-19 1 -37 4t-35 8q-18 4 -33 12.5 t-28 20.5q-4 4 -7 8l-6 8q-3 3 -5 7l-4 8q-1 4 -2.5 7.5t-1.5 7.5q-1 3 -1.5 6.5t-0.5 7.5q0 10 2.5 19.5t8.5 19.5q5 9 12.5 18.5t16.5 19.5v2v0z" />
<glyph unicode="6" horiz-adv-x="568" d="M488 695q-47 -19 -90 -44.5t-82 -60.5q-39 -34 -69 -74.5t-52 -85.5q-10 -21 -17.5 -43t-13.5 -45q-3 -12 -5 -24t-3 -23q-2 -12 -2.5 -24t-0.5 -24q-1 -15 0 -30t4 -29q2 -15 6 -29t9 -28q8 -23 20.5 -43t29.5 -37q17 -16 38.5 -24.5t46.5 -8.5h0.5h1.5v0h1v0v0v0h1v0v0 q33 1 57 13.5t40 36.5q15 24 23 51t8 58v4v4v4v4q-2 32 -12.5 61.5t-29.5 56.5t-44.5 40.5t-58.5 13.5q-8 0 -16.5 -0.5t-16.5 -2.5q-9 -2 -18 -5t-18 -7l-8 15q14 13 29 24t32 18q17 8 34.5 11.5t36.5 3.5h4h4q2 -1 4 -1h4q5 -1 9.5 -1.5t8.5 -0.5q2 -1 4 -1.5t4 -0.5 q2 -1 4 -1.5t4 -1.5t4 -1.5t5 -1.5q2 -1 4 -1.5t4 -1.5q26 -12 45.5 -30t32.5 -44q13 -25 19.5 -52.5t6.5 -56.5v-2v-1v-2v-2v-2.5v-3.5q-1 -33 -10 -64t-26 -60q-16 -29 -39.5 -50t-53.5 -34q-11 -4 -23 -6.5t-24 -4.5l-12 -2l-12 -2q-7 0 -13 -0.5t-12 -0.5h-2h-1h-2h-2 h-2.5h-3.5q-16 1 -32 3.5t-31 7.5q-16 4 -30 10.5t-27 15.5q-24 17 -41.5 39.5t-28.5 49.5t-17 55t-8 58v3.5v2.5v2v2v1v2v1.5v1.5v0.5v1.5v3.5t1 2.5v1.5v1.5v0.5v1.5v3.5v2.5q4 70 27 133t66 120q43 56 94.5 101t111.5 79l121 24v-24v0z" />
<glyph unicode="7" horiz-adv-x="568" d="M154 -33q0 3 0.5 6t1.5 6v2.5t1 2.5q0 2 0.5 3t0.5 3q14 79 39 158t61 158q35 79 73.5 154t80.5 145l-312 2l-14 16q1 1 2 3.5t2 4.5q0 2 1 4.5t2 4.5q2 5 3.5 9.5t2.5 8.5q2 8 4.5 16t4.5 16q1 4 2 8.5t2 8.5q0 5 1 9.5t2 8.5l18 2v-3v-1v0v0v-1v0q0 -15 4.5 -24 t14.5 -11q10 -3 20.5 -4t22.5 -1v0h1v0v0h0.5h1.5h0.5h1.5h1.5h1.5l236 2q2 -1 4.5 -1.5t5.5 -0.5h4.5h4.5h4.5t5.5 1h4.5h5.5h4.5t4.5 1h4.5h4.5q5 0 10 0.5t10 1.5l11 -22q-4 -8 -9 -15t-9 -14q-5 -7 -9.5 -14t-9.5 -14q-10 -14 -19.5 -29l-19.5 -30l-44 -73.5l-43 -76.5 q-22 -40 -41.5 -79.5t-37.5 -80.5l-31 -74t-28 -73q-13 -37 -23 -71t-17 -67l-32 14v0z" />
<glyph unicode="8" horiz-adv-x="568" d="M225 342q-26 15 -47 33t-38 38q-16 20 -24 45.5t-8 55.5v3.5v2.5v2v2v1v2v3.5t1 2.5v3.5v2.5q0 3 0.5 6.5t1.5 7.5q6 35 23.5 63t45.5 47q29 20 59.5 30t64.5 10h5.5h5.5q2 -1 4.5 -1h5.5q5 -1 10.5 -1.5t10.5 -1.5q29 -5 54 -18.5t44 -35.5q20 -22 30 -46.5t10 -52.5 q0 -4 -0.5 -8.5t-0.5 -8.5q-1 -5 -1.5 -9t-1.5 -9q-2 -9 -5 -17.5t-8 -16.5q-10 -18 -22.5 -32.5t-27.5 -26.5q-16 -12 -32 -22t-33 -18l-1.5 -1.5t-1.5 -0.5h-0.5h-0.5q-1 -1 -1.5 -1h-0.5q32 -17 59.5 -36.5t51.5 -40.5q23 -21 35 -50t12 -65v-5.5v-4.5q-1 -3 -1 -5.5 v-5.5q-1 -5 -1.5 -10.5t-1.5 -10.5q-7 -40 -26.5 -69t-51.5 -47q-31 -18 -65.5 -26.5t-71.5 -8.5h-6.5h-6.5q-4 1 -7.5 1h-6.5q-7 1 -13.5 1.5t-12.5 1.5q-35 5 -62 19t-46 38q-19 23 -28 49.5t-9 54.5v3.5v3.5v3v3v3.5t1 3.5q0 1 0.5 3t0.5 3q3 23 13.5 45.5t26.5 44.5 q17 21 41 38.5t55 30.5v2v0zM252 328q-19 -14 -35 -28.5t-28 -30.5t-19.5 -32t-12.5 -32q-1 -6 -2.5 -11.5t-2.5 -10.5q-1 -6 -1 -11.5v-10.5q0 -28 9 -52.5t28 -45.5t44.5 -32t58.5 -11h10t11 1q5 1 10.5 2l11.5 2q23 5 40.5 16t30.5 29q13 17 19.5 36.5t6.5 41.5 q0 5 -0.5 9.5t-1.5 8.5q-1 5 -1.5 9.5t-1.5 8.5q-6 20 -17 36.5t-28 29.5q-16 14 -34 25.5t-36 21.5q-7 4 -14.5 7.5l-15.5 7.5l-14.5 6.5t-14.5 7.5v2v0zM320 391q0 -1 0.5 -1t1.5 1l1 0.5t2 1.5l25.5 22.5t24.5 24.5q12 12 20.5 27t14.5 33q2 5 3 10.5l2 11.5 q1 5 1.5 10.5t0.5 11.5q0 21 -6 41t-17 38t-27.5 30t-38.5 17q-4 1 -7.5 1.5t-6.5 0.5h-3t-3 1h-3.5h-3.5q-21 0 -40.5 -6t-37.5 -18t-28.5 -29t-14.5 -38q-1 -3 -1.5 -6t-0.5 -6q-1 -3 -1 -5.5v-4.5q-1 -1 -1 -2.5v-3.5v-1.5v-0.5v-1.5v-1.5q0 -30 10.5 -54t32.5 -42 q21 -18 45 -33t50 -28l1.5 -1.5t1.5 -0.5h0.5h1.5q0 -1 0.5 -1h0.5v2v0z" />
<glyph unicode="9" horiz-adv-x="568" d="M51 -12q31 12 61 26.5t59 30.5q29 17 56 36.5t52 43.5q28 26 52 56t43 63q20 33 32.5 69.5t17.5 75.5q1 6 1.5 12.5t0.5 13.5v6.5t1 7.5v6.5v7.5v6v7q-1 3 -1 6.5v7.5q0 7 -0.5 13.5t-1.5 13.5q-4 33 -14 63t-26 57t-42 41t-62 14h-1.5h-0.5h-1.5h-0.5v0v0h-1v0 q-34 -1 -58 -13.5t-39 -36.5q-15 -25 -23 -51.5t-10 -55.5q-1 -2 -1 -4.5v-4.5v-4.5v-4.5v-8.5v-9.5q0 -4 0.5 -8.5t1.5 -9.5q3 -22 10 -43t19 -41q11 -19 27 -34t36 -25q7 -4 14.5 -6l14.5 -4l15.5 -2t15.5 -1h12.5t13.5 1q6 1 12.5 2.5t13.5 2.5l11 -18q-12 -11 -24 -18.5 t-26 -12.5q-7 -3 -13.5 -5t-12.5 -3q-7 -2 -13.5 -3t-13.5 -1q-2 -1 -4 -1h-4h-2.5h-3.5q-18 0 -36 4t-35 11q-17 8 -32 19t-28 26q-11 13 -19.5 28t-13.5 32t-8 35t-4 37v4v4v4v4v12t1 12q0 5 0.5 11t1.5 12l4 22t5 21q8 27 22 50.5t33 43.5t42.5 33.5t51.5 20.5l16.5 4 t17.5 3q9 2 18 2.5t18 0.5h1.5h1.5h2h2q24 -1 48 -6.5t46 -16.5q23 -10 41.5 -25.5t33.5 -35.5q13 -17 22 -36t15 -40q5 -21 8 -42t3 -43v-5.5v-4.5v-5.5v-4.5q-1 -12 -2.5 -24t-3.5 -24q-1 -12 -3.5 -23.5t-5.5 -22.5q-17 -61 -48.5 -114t-78.5 -100q-46 -46 -98.5 -81 t-110.5 -57l-100 -25l-21 19v0z" />
<glyph unicode=":" horiz-adv-x="285" d="M88 41q0 11 4 20.5t13 16.5q8 6 17.5 9.5t19.5 3.5v0h1v0v0h0.5h1.5q9 0 18 -3.5t17 -10.5t12.5 -16.5t4.5 -21.5q0 -13 -4.5 -23t-12.5 -16q-9 -4 -18 -7.5t-19 -3.5h-1.5h-0.5v0v0h-1v0q-10 0 -19 3.5t-17 8.5q-8 6 -12 15.5t-4 22.5v2v0zM88 434q0 12 4 21.5t13 16.5 q8 7 17.5 10.5t19.5 3.5v0h1v0v0h0.5h1.5q9 -1 18 -4.5t17 -10.5t12.5 -16.5t4.5 -22.5t-4.5 -23t-12.5 -17q-9 -7 -18 -10t-19 -3h-1.5h-0.5v0v0h-1v0q-10 0 -19 3t-17 10t-12 17t-4 23v2v0z" />
<glyph unicode=";" horiz-adv-x="285" d="M27 -195q8 15 14.5 28.5l13.5 27.5q7 13 13 26.5t11 26.5l6 18l6 18l5.5 19t4.5 18q5 17 7 37.5t2 42.5v3.5v2.5v4v4q-1 2 -1 3.5v2.5v2v2v1v2q8 0 15 1.5t14 2.5q7 2 13.5 3.5t13.5 4.5q2 0 3 0.5l3 1.5q1 0 2.5 0.5t2.5 1.5q3 1 6 2.5t6 2.5v-4t1 -3v-4v-4v-7.5v-7.5 v-6.5v-6.5q-1 -4 -1 -7v-6q-1 -6 -1.5 -12t-1.5 -12q0 -1 -0.5 -3t-0.5 -3q-1 -2 -1 -3.5v-3.5q-1 -3 -1.5 -6t-1.5 -6l-6 -16t-7 -17q-2 -5 -4 -9.5t-4 -8.5q-3 -5 -5 -9.5t-4 -8.5q-4 -9 -9.5 -18t-10.5 -18t-10.5 -18t-10.5 -18l-10 -16.5l-10 -16.5q-3 -4 -5.5 -8 t-4.5 -8l-4.5 -7t-4.5 -8h-43v0zM88 262q0 11 4 20.5t13 16.5q8 6 17.5 9.5t19.5 3.5v0h1v0v0h0.5h1.5q9 0 18 -3.5t17 -10.5t12.5 -16.5t4.5 -21.5q0 -13 -4.5 -23.5t-12.5 -17.5q-9 -7 -18 -10t-19 -3h-1.5h-0.5v0v0h-1v0q-10 0 -19 3.5t-17 10.5t-12 17t-4 23v2v0z" />
<glyph unicode="&#x3c;" horiz-adv-x="832" d="M703 559v-63l-486 -197l486 -199v-63l-574 236v49l574 237v0z" />
<glyph unicode="=" horiz-adv-x="832" d="M123 232h586v-56h-586v56v0zM123 420h586v-57h-586v57v0z" />
<glyph unicode="&#x3e;" horiz-adv-x="832" d="M129 559l574 -237v-49l-574 -236v63l488 199l-488 197v63v0z" />
<glyph unicode="?" horiz-adv-x="441" d="M148 41q0 11 4 20.5t13 16.5q8 6 17.5 9.5t19.5 3.5q11 0 20 -3t18 -10t13.5 -16.5t4.5 -22.5t-4.5 -23t-12.5 -16q-9 -4 -18 -7.5t-19 -3.5t-20 3t-19 8q-9 6 -13 16t-4 23v2v0zM303 246l-100 -49q-13 3 -24.5 10.5t-22.5 17.5q-10 11 -17 23t-10 27q-1 2 -1.5 4.5 t-0.5 5.5v4.5v4.5q0 9 2 17.5t6 15.5t9 13.5t11 13.5q2 2 4 4.5t5 5.5q1 2 2 3l3 3q1 1 2 2.5t2 2.5q2 2 4 4.5t4 4.5t4 4.5t4 5.5q19 23 32.5 44.5t21.5 40.5q8 20 12 37.5t4 33.5q0 20 -5 36t-16 27q-10 11 -23.5 17t-28.5 7q-3 0 -6 -0.5t-5 -0.5q-3 -1 -6 -1.5t-6 -1.5 l-6 -2t-5 -2l-6 -2t-6 -3l-6 -4l-6 -4q-1 -1 -2.5 -2t-2.5 -2l-3 -3t-3 -2l-13 14l39 74q8 1 15.5 2.5t14.5 2.5q8 2 16 3.5t16 2.5h4.5h5.5h3t3 1h2.5h2.5q12 0 24 -2t24 -6q11 -4 21 -11t19 -18q7 -8 12 -16.5t8 -16.5t4.5 -16.5t1.5 -16.5v-4v-3q-1 -2 -1 -3.5v-3.5 q0 -3 -0.5 -6t-1.5 -6q-3 -15 -8.5 -29.5t-13.5 -28.5t-16.5 -27t-17.5 -25q-3 -4 -6 -7.5t-5 -6.5q-3 -4 -5.5 -7t-4.5 -6q-3 -3 -5.5 -6t-4.5 -6q-1 -1 -2 -2.5t-2 -2.5l-3 -3t-2 -3q-4 -4 -8 -8.5t-8 -9.5l-8 -8t-7 -8q-3 -3 -5 -6t-5 -6l-3.5 -7t-3.5 -6 q-3 -6 -4.5 -12.5t-1.5 -13.5v-3v-3q0 -2 0.5 -3.5t0.5 -3.5q0 -1 0.5 -3t1.5 -3q1 -2 1.5 -3.5t1.5 -3.5q5 -13 13.5 -21.5t19.5 -13.5t23 -8t25 -4h3.5h2.5h3.5h2.5h1.5h1.5h1h2h0.5h1.5h1.5h1.5l6 -14v0z" />
<glyph unicode="@" d="M580 164q-11 -20 -23 -35t-25 -26q-13 -12 -25.5 -20.5t-25.5 -13.5q-7 -3 -13.5 -4.5t-12.5 -3.5q-3 -1 -6 -1.5t-6 -0.5h-7h-6q-28 -1 -52 10.5t-44 33.5q-20 23 -30 52t-10 65q0 8 0.5 16.5t1.5 17.5l4 18t5 19q9 32 25.5 60t40.5 53q23 26 48 44t52 29l15.5 6t15.5 4 q4 1 8 1.5t8 1.5q3 0 7 0.5t8 0.5q18 0 34.5 -6t31.5 -17q14 -11 24.5 -29.5t17.5 -44.5l25 90h70l-84 -298l-3.5 -14.5t-2.5 -12.5t-1 -11.5v-10.5q-1 -13 1.5 -22.5t8.5 -17.5q6 -7 14.5 -11t19.5 -4q6 0 12.5 1t13.5 3q8 2 16 5.5t17 8.5q35 18 61.5 46.5t45.5 65.5 q20 38 29.5 77t9.5 81v0.5v1.5v1.5v1.5q-1 44 -13.5 85.5t-36.5 81.5t-62 69.5t-91 48.5q-17 6 -34.5 11t-34.5 8q-9 2 -18 3t-17 2q-9 0 -18 0.5t-18 0.5h-2h-2h-2h-2q-46 -1 -90.5 -12t-88.5 -31q-43 -21 -79.5 -49.5t-65.5 -65.5q-19 -25 -35 -54.5t-28 -62.5 q-12 -34 -19 -68t-9 -69q0 -1 -0.5 -3t-0.5 -3v-3.5v-3.5v-3v-3v-3.5v-3.5q0 -28 4 -56t11 -55q8 -27 19.5 -51t27.5 -46q30 -37 67 -65t82 -47q44 -19 90 -28.5t94 -9.5q14 0 28.5 0.5t29.5 2.5q14 1 28.5 4l28.5 6q27 6 52 15t48 20t45 24.5t44 28.5l16 -17 q-25 -17 -49.5 -31.5t-50.5 -27.5q-25 -12 -51.5 -21.5t-55.5 -15.5q-15 -3 -30 -5.5t-30 -3.5q-7 -1 -15 -1.5t-15 -1.5q-8 0 -15.5 -0.5t-15.5 -0.5q-46 0 -91 7.5t-89 22.5t-82.5 38.5t-71.5 55.5q-27 25 -46.5 55t-33.5 64q-13 35 -20.5 70t-8.5 71v1.5v1.5v0.5v1.5v3.5 v2.5q0 37 6 73t18 71t30.5 67.5t42.5 60.5q35 43 77.5 76t92.5 55q50 23 102 34t106 11h5.5h5.5q2 -1 5 -1h6h6h6q3 -1 6 -1h6q5 -1 10.5 -1.5t11.5 -1.5q3 0 6 -0.5t6 -0.5q2 -1 5 -1.5t6 -0.5q53 -10 99.5 -33t86.5 -61q39 -37 62 -83.5t29 -101.5q0 -3 0.5 -6t0.5 -5 q1 -3 1 -6v-6v-6t1 -5v-5.5v-5.5v-4.5v-4.5q-1 -2 -1 -4.5v-4.5v-4v-4q-1 -3 -1 -5v-4q-3 -36 -12.5 -70t-25.5 -67t-38.5 -59.5t-51.5 -47.5q-7 -4 -13.5 -8.5l-12.5 -8.5q-7 -4 -13.5 -7t-13.5 -5q-7 -3 -13.5 -4.5t-13.5 -3.5q-7 -1 -13.5 -1.5t-12.5 -0.5q-19 0 -35.5 6 t-30.5 18q-15 12 -23.5 32.5t-11.5 48.5v2v0zM525 471q-19 -4 -36 -14.5t-31 -29.5q-15 -19 -27 -39t-22 -42q-6 -13 -11 -26.5t-10 -25.5l-7.5 -22.5t-5.5 -19.5q-1 -3 -1.5 -6t-0.5 -5q-1 -3 -1.5 -6t-1.5 -6t-1.5 -6t-0.5 -6q-1 -4 -1.5 -7t-0.5 -6v-2.5v-3.5 q-1 -1 -1 -2.5v-3.5v-6v-6q0 -8 1 -16l2 -16q2 -8 4.5 -15.5t6.5 -13.5q5 -9 12 -16t16 -12q8 -4 17 -6.5t19 -1.5h1.5h1.5h0.5h1.5h3.5t2.5 1h1.5h1.5h0.5h1.5q2 0 3.5 0.5t2.5 1.5q23 6 43.5 23.5t39.5 45.5q19 29 32.5 59t22.5 62q3 11 5.5 22.5t3.5 22.5q2 11 3 21.5 t1 20.5q0 23 -5 41.5t-14 34.5q-9 15 -24.5 23t-36.5 8h-1.5h-1.5h-1.5h-0.5q-1 -1 -2 -1h-1h-1.5h-1.5v2v0z" />
<glyph unicode="A" horiz-adv-x="719" d="M-10 0v37l80 20l254 650h49l273 -650l83 -20v-37h-280v37l100 20l-84 207h-260l-76 -207l111 -20v-37h-250v0zM225 311h220l-115 285l-105 -285v0z" />
<glyph unicode="B" horiz-adv-x="613" d="M316 693q1 -2 2 -2h2h1.5h1.5h0.5h1.5q37 -1 71 -7.5t65 -18.5q32 -13 48.5 -42t17.5 -74v-1.5v-0.5v-1.5v-0.5v-1.5v-0.5v-1.5v-0.5q0 -34 -10.5 -61t-30.5 -48t-44 -37.5t-53 -27.5q37 -5 68.5 -15.5t58.5 -26.5q26 -16 41 -46t19 -74v-2.5v-3.5v-2.5v-3.5 q0 -22 -4 -42t-13 -40q-9 -19 -21.5 -35.5t-29.5 -30.5q-13 -11 -27.5 -19t-30.5 -13t-31.5 -8t-31.5 -5h-11h-10h-10h-10h-313v37l98 18v584l-98 17v37h283v0zM223 61q9 -5 19.5 -8.5t20.5 -6.5q5 -1 10.5 -2.5t11.5 -2.5q5 0 10.5 -1t10.5 -1q3 -1 6.5 -1.5t7.5 -0.5h7.5 h7.5q20 0 39 4t37 12q17 8 30.5 23t23.5 37l4 14t3 14q2 8 2.5 15.5t0.5 14.5v1.5v1.5v0.5v1.5v3.5v2.5q-1 20 -6.5 38.5t-15.5 36.5t-23 32.5t-30 24.5q-14 10 -29 16t-32 9l-16 2l-16 2q-9 0 -17 0.5t-16 0.5h-7.5h-6.5h-7.5h-6.5h-6h-6h-2.5h-2.5h-3h-3v-283v0zM223 383 q3 -2 6 -2h6h3h3h2.5h2.5q35 0 66.5 5.5t60.5 15.5q29 11 43.5 39.5t15.5 74.5q0 17 -3.5 33.5t-11.5 32.5q-7 16 -18.5 28.5t-27.5 22.5q-10 6 -20.5 10t-21.5 6t-22.5 3.5t-22.5 2.5h-2h-1h-2h-2h-2.5h-3.5h-3h-3h-3.5h-3.5h-6h-6q-3 -1 -6 -1h-6h-2.5h-2.5h-3h-3v-271v0z " />
<glyph unicode="C" horiz-adv-x="764" d="M643 14q-20 -8 -41 -12t-43 -7t-43.5 -5.5t-43.5 -3.5h-3h-3h-3.5h-3.5h-6h-6q-64 0 -123.5 13.5t-115.5 41.5q-55 29 -92 78.5t-55 120.5q-1 2 -1.5 4.5t-0.5 5.5q-1 2 -1.5 4.5t-1.5 4.5t-1.5 4.5t-0.5 5.5q-1 2 -1 4.5v4.5q-1 9 -2.5 18.5t-2.5 19.5t-1.5 19.5 t-0.5 18.5q0 56 14 106.5t42 96.5q29 46 72.5 78t102.5 51q19 5 37.5 9t37.5 7q19 2 38.5 3.5t38.5 1.5q11 0 22.5 -0.5t22.5 -1.5t22.5 -1.5t22.5 -1.5t21 -2.5t21 -3.5q10 -1 20.5 -2.5t20.5 -3.5q11 -2 21 -4t21 -3l20.5 -4l20.5 -4q1 0 2 -0.5t2 -0.5q0 -1 1 -1h2h2h2 q0 -1 1 -1h2v-22v-22v-10.5t1 -10.5q0 -6 0.5 -11.5t1.5 -10.5q0 -11 1 -22l2 -22q0 -5 0.5 -10.5t1.5 -10.5q0 -6 0.5 -11.5t1.5 -10.5h-31q-1 11 -3 22.5t-5 22.5t-9 21t-15 20q-12 14 -26.5 25.5t-31.5 19.5t-35 15t-36 11q-3 1 -5.5 1.5t-4.5 1.5q-2 0 -4.5 0.5 t-4.5 1.5q-11 2 -21.5 3.5t-20.5 2.5t-20 1.5t-20 0.5q-61 0 -109.5 -17.5t-86.5 -53.5q-37 -36 -56.5 -86.5t-19.5 -115.5v-4.5v-4.5v-5.5v-4.5v-4.5t1 -4.5q0 -3 0.5 -5.5t0.5 -4.5q6 -69 30 -127.5t66 -106.5t97.5 -72t125.5 -24h4.5h4.5h4t5 1h4h4h2t3 1h2h2 q35 4 62.5 13.5t47.5 24.5t38.5 36t34.5 48q2 2 3.5 4.5t2.5 4.5q2 2 3.5 4.5t2.5 5.5l28 -18q-5 -11 -10.5 -20l-10.5 -17l-10 -17.5l-10 -16.5l-10 -17.5l-10 -16.5q-3 -4 -5.5 -8.5t-4.5 -8.5q-2 -5 -4.5 -9t-4.5 -9v2v0z" />
<glyph unicode="D" horiz-adv-x="832" d="M33 0v37l98 18v584l-98 17v37h352q5 -1 10.5 -1.5t11.5 -0.5h10.5h10.5q11 0 22 -0.5t23 -1.5q22 -1 43.5 -3.5t43.5 -7.5q22 -4 43 -12.5t40 -19.5q38 -22 65.5 -52.5t44.5 -69.5t25.5 -80t8.5 -83v-2v-2v-1.5v-0.5q-1 -46 -10.5 -88.5t-29.5 -82.5q-19 -40 -48.5 -72 t-67.5 -57q-26 -17 -54.5 -28.5t-58.5 -16.5q-30 -6 -60.5 -8t-61.5 -2h-363v0zM223 59q13 -4 26.5 -7t26.5 -5q14 -2 27.5 -3.5t27.5 -3.5q6 -1 13 -1.5t14 -0.5h13.5h13.5q44 0 85.5 9t80.5 27t67.5 52.5t47.5 84.5q5 14 8.5 28.5t6.5 29.5q2 15 3.5 30.5t1.5 31.5v3.5 v3.5q-1 1 -1 3v4v8v8q-2 25 -7 49.5t-13 48.5q-7 24 -18.5 45.5t-25.5 40.5q-19 26 -42.5 44t-51.5 30t-57 19.5t-59 10.5q-4 0 -7.5 0.5t-6.5 0.5q-4 1 -7.5 1h-7.5h-7.5t-6.5 1h-7.5h-6.5l-131 2v-595v0z" />
<glyph unicode="E" horiz-adv-x="590" d="M33 0v37l98 18v584l-98 17v37h453q0 -8 0.5 -14t1.5 -12q0 -6 0.5 -12t1.5 -12l2 -24l2 -24q2 -12 3.5 -24t2.5 -24l-29 2q-1 4 -3 9.5t-3 11.5q-2 6 -3.5 12t-3.5 12q-4 12 -7.5 24l-7.5 25l-220 2v-254h187l20 72h27q-1 -14 -1 -26v-24v-24v-24q-1 -13 -1 -26v-26 t0.5 -25.5t1.5 -25.5l-27 2l-20 80h-187v-283h271q7 11 13 24.5l12 26.5q5 14 10.5 28t9.5 28l31 2q-1 -5 -2 -8.5t-1 -7.5q-1 -4 -2 -7.5t-2 -7.5q-1 -7 -2.5 -14t-3.5 -14q-1 -4 -2 -7.5t-2 -6.5q-1 -4 -1.5 -7.5t-1.5 -6.5q-1 -5 -2.5 -10.5t-2.5 -10.5q-2 -6 -3 -11.5 l-2 -10.5q-2 -10 -4.5 -20.5l-4.5 -19.5h-498v0z" />
<glyph unicode="F" horiz-adv-x="553" d="M223 55l101 -18v-37h-291v37l98 18v584l-98 17v37h459q1 -11 1.5 -21t1.5 -19l2 -19.5l2 -18.5l2 -19.5l2 -18.5q1 -10 1.5 -19.5t1.5 -18.5l-29 2q-1 1 -1.5 3.5t-0.5 5.5q-1 2 -1.5 4.5t-1.5 5.5q-1 5 -2.5 10t-2.5 10q-1 4 -2.5 8t-2.5 8q-1 3 -2 7l-2 8q-2 8 -4.5 16 t-4.5 16l-226 2v-254h199l17 72h28q-1 -14 -1 -26v-24v-24v-24q-1 -13 -1 -26v-26t0.5 -25.5t1.5 -25.5l-28 2l-17 80h-199v-289v0z" />
<glyph unicode="G" horiz-adv-x="814" d="M744 35q-36 -11 -72 -19.5t-72 -15.5q-37 -7 -73.5 -10.5t-74.5 -3.5h-2h-2h-1.5h-1.5h-2h-2h-1.5h-1.5q-64 1 -123.5 17.5t-113.5 48.5t-88.5 81t-51.5 115q-2 7 -3.5 14t-3.5 14q-1 6 -2 13l-2 14l-2 27.5t-1 26.5q0 56 14.5 106t42.5 96q29 46 72 77.5t101 49.5 q19 5 37.5 9t37.5 7q19 2 38 3.5t38 1.5q32 0 64.5 -2.5t64.5 -7.5t63.5 -10.5t62.5 -11.5q1 0 2 -0.5t2 -0.5q0 -1 1 -1h2h2h2q0 -1 1 -1h2q0 -15 0.5 -28.5t1.5 -27.5l2 -26.5l2 -27.5q0 -9 0.5 -17t1.5 -16l2 -16.5l2 -16.5l-31 2q-4 26 -12.5 48.5t-19.5 38.5 q-12 17 -31.5 31t-46.5 25q-14 5 -29 9.5t-30 8.5q-16 3 -31.5 5t-31.5 3h-2.5t-2.5 1h-3h-3h-5.5h-4.5q-40 0 -77 -8t-72 -25q-35 -16 -61 -43t-43 -65q-7 -15 -12.5 -30t-8.5 -32q-3 -16 -5 -33.5t-2 -34.5q0 -16 1 -32.5t4 -33.5l6 -32t7 -31q9 -31 22.5 -59t32.5 -54 q18 -26 41 -47t51 -36q21 -13 43 -22t46 -15q23 -6 47 -9t49 -3h13.5t13.5 1q6 0 12.5 0.5t13.5 1.5l13.5 2l13.5 2q6 1 12.5 2.5t13.5 2.5v170l-94 16v33h273v-33l-90 -16v-142h55v-28v0z" />
<glyph unicode="H" horiz-adv-x="836" d="M223 55l95 -18v-37h-285v37l98 18v584l-98 17v37h285v-37l-95 -17v-248h390v248l-95 17v37h285v-37l-98 -17v-584l98 -18v-37h-285v37l95 18v291h-390v-291v0z" />
<glyph unicode="I" horiz-adv-x="355" d="M225 55l95 -18v-37h-285v37l98 18v584l-98 17v37h285v-37l-95 -17v-584v0z" />
<glyph unicode="J" horiz-adv-x="348" d="M225 29q-15 -32 -32.5 -63t-37.5 -60q-21 -29 -43.5 -56.5t-48.5 -52.5l-22 21q11 13 20 25t16 23q8 11 14.5 21.5t11.5 21.5q8 16 14 33.5t9 35.5q3 17 5 39t2 49v573l-98 17v37h285v-37l-95 -17v-610v0z" />
<glyph unicode="K" horiz-adv-x="664" d="M223 55l95 -18v-37h-285v37l98 18v584l-98 17v37h285v-37l-95 -17v-278q2 -2 3.5 -2h2.5h3.5h2.5q2 -1 3.5 -1h2.5h3.5h2.5h6t6 1q2 0 5 0.5t6 1.5q5 2 10 6t9 10l182 262l-82 17v37h246v-37l-98 -17l-185 -268l271 -314l72 -20v-37h-275v37l84 20l-225 265h-56v-267v0z " />
<glyph unicode="L" horiz-adv-x="572" d="M477 61q8 15 15 31.5l14 33.5l13.5 34l13.5 35l35 2q-1 -5 -2 -9t-2 -7q-1 -4 -1.5 -7.5t-1.5 -6.5l-4 -14.5l-4 -14.5q-2 -8 -4 -15t-4 -15q-4 -15 -7.5 -30t-6.5 -30q-1 -7 -2.5 -13.5t-3.5 -12.5l-2 -12t-2 -10h-488v37l98 18v584l-98 17v37h285v-37l-95 -17v-578h254 v0z" />
<glyph unicode="M" horiz-adv-x="984" d="M25 0v37l88 20l59 582l-108 17v37h206l224 -521l219 521h205v-37l-100 -17l59 -582l88 -20v-37h-277v37l97 20l-55 550l-255 -601l-256 588l-53 -537l92 -20v-37h-233v0z" />
<glyph unicode="N" horiz-adv-x="844" d="M23 0v37l102 20v582l-102 17v37h186l484 -558v504l-95 17v37h248v-37l-100 -17v-645h-43l-525 604v-541l97 -20v-37h-252v0z" />
<glyph unicode="O" horiz-adv-x="818" d="M408 707q2 -2 3.5 -2h2.5h3.5h3.5q82 0 146 -24t110 -74q46 -49 69.5 -114.5t24.5 -146.5v-2.5v-3.5v-2v-1v-2v-2q0 -83 -24.5 -147t-74.5 -109t-116 -67.5t-148 -23.5t-148 22.5t-114 72.5q-48 50 -72.5 116t-26.5 149v0.5v1.5v0.5v1.5v0.5v1.5v0.5v1.5q-1 83 24 147.5 t74 110.5q50 46 115.5 69t147.5 24v2v0zM318 45q12 -7 25 -11t26 -7q14 -3 27.5 -4t26.5 -1h4.5h4.5h4.5t4.5 1q7 0 13.5 0.5t13.5 1.5q7 2 13.5 3.5t12.5 2.5q32 10 58.5 27t47.5 41t35.5 52.5t22.5 59.5q3 11 5.5 23t3.5 25q2 13 2.5 26.5t0.5 26.5v8v8q-1 4 -1 8v8 q-1 8 -1.5 16t-1.5 16q-6 44 -19.5 86.5t-36.5 82.5q-22 40 -54.5 67t-73.5 42l-6 2t-5 2q-3 0 -5.5 1t-5.5 2t-6 1.5t-5 1.5q-3 0 -5.5 0.5t-5.5 1.5q-6 1 -11.5 1.5t-10.5 1.5h-6t-5 1h-5.5h-5.5q-40 0 -76 -12.5t-68 -36.5t-54 -57.5t-34 -75.5q-4 -13 -6.5 -26t-4.5 -27 l-2 -28.5t-1 -29.5v-16t1 -16q0 -8 1 -16l2 -16q5 -43 17.5 -83.5t33.5 -78.5q20 -38 49 -65t66 -43v2v0z" />
<glyph unicode="P" horiz-adv-x="590" d="M223 55l105 -18v-37h-295v37l98 18v584l-98 17v37h295q1 -2 2 -2h2h3.5h2.5h2h2h1.5h1.5h0.5h1.5q22 0 43 -2t42 -7q20 -4 39 -14.5t35 -26.5q13 -13 22.5 -29t16.5 -34q6 -18 9.5 -36t3.5 -37q0 -15 -2 -29t-5 -28q-4 -14 -9 -27t-13 -25q-17 -28 -39.5 -49t-50.5 -33 t-57 -18t-60 -6h-14.5t-15.5 1l-14.5 2l-15.5 2l-4 37q7 -3 13.5 -4.5t12.5 -2.5q3 0 6 -0.5t7 -0.5h6h6q31 0 57 9t47 28q21 18 32 46.5t12 65.5v3.5v2.5v3.5v2.5v4v4v2v3q-1 1 -1 2.5v2.5q-1 21 -7.5 42t-17.5 40q-10 20 -26 34t-36 24q-9 4 -18.5 6.5t-19.5 3.5 q-10 2 -19.5 2.5t-19.5 0.5h-6h-6h-2.5h-2.5q-2 -1 -3 -1h-3h-6h-6q-3 -1 -6 -1h-6q-6 -1 -11.5 -1.5t-10.5 -0.5v-597v0z" />
<glyph unicode="Q" horiz-adv-x="818" d="M443 -12h-4h-4h-4t-4 -1h-5h-4h-4h-4h-5.5h-4.5q-3 1 -5.5 1h-5.5h-11h-10q-13 1 -26.5 3l-26.5 4t-26 4.5t-25 6.5q-40 14 -73 36.5t-59 53.5t-44 66.5t-27 75.5q-2 8 -3.5 15.5t-3.5 15.5q-1 7 -2 15t-2 15q-2 15 -3 29.5t-1 28.5q0 66 19 123.5t57 105.5t95 77t133 38 q8 1 16.5 1.5t17.5 1.5h8t9 1h8h8q74 0 135 -21t109 -64t75.5 -104.5t34.5 -142.5v-5.5t1 -4.5v-5.5v-4.5v-8.5v-9.5q0 -58 -13 -109t-40 -95q-27 -43 -69 -74t-101 -49q8 -7 16 -12.5l16 -11.5l8 -6l8 -6q3 -2 7 -5l8 -6q20 -14 40.5 -26t41.5 -22t45.5 -17.5t51.5 -12.5 l-10 -24h-4.5h-4.5h-4.5h-4.5q-46 0 -89 8t-81 25q-39 17 -76.5 41t-73.5 55v0zM424 23q4 2 7.5 6t7.5 8q2 2 3.5 4t3.5 4q1 2 3 4.5t3 4.5l4.5 4.5t4.5 5.5t4.5 6t5.5 6l47 -37q39 13 67.5 40t47.5 66t28.5 81.5t9.5 88.5v4v4q-1 2 -1 4v4v4v5v4v4q-4 59 -23.5 113.5 t-52.5 103.5q-33 50 -79.5 76t-106.5 29h-2h-2h-1.5h-1.5h-2h-2h-1.5h-1.5q-65 0 -111.5 -22.5t-75.5 -67.5q-28 -46 -42.5 -97t-14.5 -108v-4.5v-4.5v-5.5v-4.5v-4.5t1 -4.5v-4.5v-4.5l2 -19.5l2 -18.5q2 -9 3.5 -18t3.5 -18q11 -52 32.5 -94.5t54.5 -77.5q32 -34 76 -51.5 t99 -19.5v2v0z" />
<glyph unicode="R" horiz-adv-x="684" d="M223 55l95 -18v-37h-285v37l98 18v584l-98 17v37h283q5 -2 10 -2h10h4.5h5.5q2 -1 5 -1h6q17 -1 34.5 -3t33.5 -7q17 -4 32.5 -12t28.5 -20q14 -11 23.5 -24.5t16.5 -30.5q7 -16 10.5 -33.5t3.5 -34.5q0 -7 -0.5 -13.5t-1.5 -12.5l-2 -12t-3 -12q-6 -25 -16.5 -46.5 t-27.5 -38.5q-16 -17 -34.5 -32.5t-38.5 -29.5q5 -7 9.5 -14t8.5 -14l10 -13.5l10 -13.5l34 -50.5l35 -50.5l37 -49l38 -47q11 -13 22 -23.5t23 -19.5q11 -9 24 -17t28 -14l-6 -22q-2 1 -4 1.5t-4 0.5h-2h-2q-2 1 -3 1h-2q-6 1 -11.5 1.5t-10.5 1.5q-3 0 -6 0.5t-5 0.5 q-3 1 -6 1.5t-6 0.5l-26 6l-25 6q-13 5 -23.5 11t-19.5 15q-7 6 -14 13.5l-14 14.5q-7 8 -13.5 16.5l-13.5 17.5l-17 21.5l-16 21.5l-16 22.5l-16 22.5q-12 17 -22.5 33.5l-21.5 32.5l-20 30.5l-19 27.5q-7 -1 -13.5 -1h-12.5h-6h-6h-7h-6q-7 -1 -13.5 -1h-14.5 q-7 0 -14 0.5t-14 1.5v-246v0zM223 342q3 -2 6 -2.5t6 -0.5h6h7q4 -1 8 -1h8h4h4q2 -1 4 -1h4h4.5h5.5h4.5h5.5q20 0 39 3t37 9t31.5 19t22.5 34q4 9 7 19t4 20q2 11 3 21.5t1 21.5v2v2v2v2q-1 18 -4.5 35.5t-9.5 34.5t-15.5 32t-22.5 27q-11 10 -23 16.5t-26 10.5 q-7 2 -14 3t-13 2l-14 2t-14 1h-2.5h-3.5h-2.5h-3.5h-4.5h-4.5h-5h-4q-4 -1 -8.5 -1h-9.5h-4.5h-4.5q-2 -1 -4.5 -1h-4.5v-312v0z" />
<glyph unicode="S" horiz-adv-x="545" d="M74 41v11.5v13.5q-1 6 -1 12.5v12.5q-1 13 -1.5 25.5t-1.5 25.5q-1 8 -1.5 15.5t-1.5 14.5q0 4 -0.5 8t-0.5 8q-1 3 -1.5 7t-0.5 8l30 10v-3.5t1 -2.5v-2v-2q0 -2 0.5 -4t1.5 -4v-2.5t1 -2.5v-3v-3v-2.5t1 -2.5q0 -2 0.5 -3t0.5 -3q2 -13 5 -25.5t7 -24.5t10 -23t13 -20 q11 -14 25 -24.5t30 -18.5q17 -7 34.5 -11t35.5 -4h1.5h1.5h2h2h9.5t8.5 1q5 0 9.5 0.5t8.5 1.5q25 5 44.5 16t33.5 29q14 17 22 36t9 40v1.5v1.5v2v2q0 13 -3 25.5t-9 25.5q-6 12 -15 22.5t-22 19.5l-24 15.5t-25 13.5l-25.5 12l-24.5 12l-38.5 18t-37.5 19t-34.5 23.5 t-30.5 29.5q-10 12 -18.5 26t-13.5 30t-7.5 32.5t-2.5 33.5q0 11 1 22.5t3 21.5q2 11 5.5 21t7.5 20q14 32 32.5 54t43.5 33q24 11 51 16.5t55 5.5h5.5h5.5q2 -1 5 -1h6h6h6q3 -1 6 -1h6q5 -1 10 -1.5t10 -0.5q5 -1 10 -1.5t10 -1.5l10 -2t10 -1q4 -1 9 -2l10 -2q2 0 4 -0.5 t5 -0.5q2 -1 4 -1.5t4 -0.5q4 -1 8 -1.5t8 -0.5q0 -19 1.5 -37.5t3.5 -36.5l4 -37.5l4 -37.5l-27 -4q-2 7 -4.5 14.5t-5.5 15.5l-6.5 15l-6.5 15q-7 15 -17.5 28t-24.5 23q-8 6 -17 11t-20 8q-5 2 -10 3l-10 2q-6 1 -11 1.5t-10 0.5q-12 0 -23 -2t-22 -6t-21 -10.5 t-18 -14.5q-8 -9 -14 -19.5t-10 -21.5q-4 -12 -6 -24t-2 -24v-1.5v-0.5v-1.5v-1.5v-1.5v-0.5v-1.5v-1.5q1 -10 3 -20.5t6 -21.5q3 -10 8 -19.5t11 -17.5q10 -13 23.5 -23.5t29.5 -19.5q17 -9 34 -16.5l35 -15.5q0 -1 0.5 -1.5t1.5 -0.5h0.5h1.5q7 -3 14 -6.5t14 -6.5 q6 -4 13 -7l14 -6q14 -7 26 -14.5t22 -15.5q17 -14 30 -30.5t21 -36.5q8 -19 12.5 -39.5t4.5 -40.5q0 -25 -6 -48t-17 -46q-12 -22 -29 -39.5t-40 -31.5q-14 -7 -30 -12t-33 -9t-34.5 -6t-35.5 -2h-5.5h-4.5h-4.5h-4.5q-24 1 -46.5 5.5l-45.5 9.5q-22 7 -42.5 16.5 t-37.5 22.5v2v0z" />
<glyph unicode="T" horiz-adv-x="738" d="M211 0v37l111 20v584h-199l-12.5 -3.5t-8.5 -3.5q-4 -3 -7 -7.5t-5 -11.5q-5 -11 -9.5 -22t-7.5 -22q-4 -10 -7 -21.5t-5 -22.5l-36 2l6 39l6 41t5.5 41.5t4.5 40.5l642 2l2 -21.5t3 -20.5q1 -11 2.5 -21t2.5 -21q2 -21 5 -41.5t7 -40.5l-35 2q-1 4 -3 9.5t-3 11.5 q-2 5 -3.5 10.5t-3.5 10.5q-4 11 -7.5 22t-7.5 22q-3 7 -6 11.5t-7 7.5q-4 2 -9 3.5t-13 1.5l-199 2v-584l111 -20v-37h-314v0z" />
<glyph unicode="U" horiz-adv-x="830" d="M25 656v37h284v-37l-94 -17q-1 -9 -1.5 -17.5t-0.5 -16.5q-1 -8 -1.5 -16.5t-1.5 -16.5l-2 -35l-2 -37l-2 -37.5t-1 -37.5q-1 -7 -1 -14v-13v-13.5v-12.5q0 -26 1 -51.5l2 -49.5q2 -24 5.5 -45.5t8.5 -41.5q8 -36 27 -64t49 -48q29 -19 62 -29t69 -10h1.5h1.5h1.5h1.5 q37 0 70 10t61 31q29 20 46 49.5t24 67.5q3 19 5 40t3 43q2 23 2.5 46t1.5 47v14v14v7.5v7.5q-1 3 -1 6.5v7.5q0 10 -0.5 19.5t-0.5 19.5q-1 9 -1.5 18.5t-0.5 19.5q-1 20 -1.5 38.5t-1.5 36.5q0 4 -0.5 8t-0.5 8q-1 3 -1 7v8v7.5v7.5q-1 4 -1 7.5v7.5l-100 19v37h272v-37 l-90 -17v-33v-31v-15t1 -15v-15.5v-15.5v-7.5v-7.5v-4t1 -4v-3.5v-3.5v-38.5v-39.5v-38v-38q0 -23 -1.5 -45.5t-3.5 -45.5q-2 -22 -7.5 -44.5t-13.5 -44.5q-13 -42 -38 -72t-60 -48q-35 -19 -72.5 -28.5t-76.5 -12.5h-4t-3 -1h-4h-4h-7.5h-7.5h-2h-2h-2h-2h-6h-5q-3 1 -6 1 h-6h-6h-6q-3 1 -5.5 1h-5.5q-34 4 -65.5 12t-61.5 23t-52.5 38t-36.5 54q-12 25 -19 50.5t-9 50.5q-3 26 -4.5 52t-2.5 52v20v20q0 9 0.5 19t0.5 20q0 20 0.5 39.5t1.5 39.5v3.5t1 3.5v4v4v8v8q0 15 0.5 30.5t1.5 31.5q0 16 0.5 32t1.5 32l-94 19v0z" />
<glyph unicode="V" horiz-adv-x="713" d="M350 -14l-256 653l-94 17v37h285v-37l-97 -17l197 -502l187 502l-95 17v37h242v-37l-88 -17l-248 -653h-33v0z" />
<glyph unicode="W" horiz-adv-x="994" d="M277 -14l-195 653l-80 17v37h258v-37l-86 -17l148 -494l162 494l-95 17v37h252v-37l-90 -17l152 -494l154 494l-93 17v37h232v-37l-82 -17l-203 -653h-49l-164 526l-176 -526h-45v0z" />
<glyph unicode="X" horiz-adv-x="699" d="M176 57l86 -20v-37h-262v37l105 20l211 295l-195 287l-96 17v37h288v-37l-84 -17l140 -209l149 209l-92 17v37h250v-37l-94 -17l-182 -256l221 -326l82 -20v-37h-281v37l92 20l-166 248l-172 -248v0z" />
<glyph unicode="Y" horiz-adv-x="664" d="M186 0v37l115 20v240l-209 342l-100 17v37h295v-37l-94 -17l172 -287l164 287l-95 17v37h244v-37l-84 -17l-199 -342v-240l115 -20v-37h-324v0z" />
<glyph unicode="Z" horiz-adv-x="707" d="M35 0v16l498 627l-396 -10q-8 -2 -14.5 -3t-11.5 -3q-4 -1 -8 -6.5t-7 -13.5q-3 -6 -5 -12t-4 -13t-3.5 -13.5t-3.5 -12.5q-1 -4 -1.5 -7.5t-1.5 -6.5q0 -1 -0.5 -3t-0.5 -3q-1 -2 -1.5 -3.5t-0.5 -3.5l-31 2q2 19 4.5 39t4.5 41l2 20l2 20q0 10 1 20l2 20l605 2v-17 l-488 -612h447q6 13 11.5 27t9.5 29q5 14 8.5 28.5t7.5 29.5l33 2l-4 -25l-4 -23q-1 -11 -2.5 -22t-3.5 -22q-1 -11 -2.5 -22.5t-3.5 -22.5q-1 -11 -2.5 -22t-2.5 -21h-633v0z" />
<glyph unicode="[" horiz-adv-x="307" d="M102 -203v978h148v-23l-90 -14v-904l90 -14v-23h-148v0z" />
<glyph unicode="\" horiz-adv-x="277" d="M246 -12l-269 719h54l272 -721l-57 2v0z" />
<glyph unicode="]" horiz-adv-x="307" d="M203 775v-978h-148v23l91 16v902l-91 14v23h148v0z" />
<glyph unicode="^" horiz-adv-x="1000" d="M455 715h88l254 -277h-45l-254 212l-254 -212h-43l254 277v0z" />
<glyph unicode="_" horiz-adv-x="500" d="M0 -178h500v-56h-500v56v0z" />
<glyph unicode="`" horiz-adv-x="500" d="M336 543h-33l-160 100q-4 1 -7.5 3t-6.5 5t-5 6l-4 6q-1 2 -2 3t-2 3q0 1 -1 2.5t-1 2.5q0 2 -0.5 3t-0.5 3v2.5v2.5q0 6 2 11t6 9q5 5 10.5 7t12.5 3q5 0 11 -2t13 -5q6 -3 13 -8t14 -13l141 -144v0z" />
<glyph unicode="a" horiz-adv-x="492" d="M314 -12v73q-4 -5 -8.5 -8t-9.5 -6q-2 -1 -4.5 -3t-4.5 -3q-2 -2 -4.5 -3.5t-4.5 -3.5q-13 -9 -25.5 -16.5l-26.5 -15.5q-13 -6 -27.5 -9.5t-28.5 -4.5h-1.5h-1.5h-1.5h-1.5q-23 0 -43.5 5.5t-37.5 15.5q-18 11 -27 28.5t-11 42.5v2v2v1.5v1.5q-1 31 12 53.5t38 36.5 q26 14 53.5 25.5t58.5 21.5q2 1 4 1.5t4 1.5q2 0 4 0.5t4 1.5l24 8l24 8l22.5 9.5t20.5 9.5v6.5v7.5v4t1 4v4.5v4.5v8.5v8.5v4.5t1 5.5v4.5v4.5q0 11 -0.5 22t-2.5 21q-1 11 -4 19t-8 15t-11.5 12t-14.5 9q-7 3 -15.5 5t-16.5 2h-2.5h-3.5q-1 -1 -2.5 -1h-3.5q-3 -1 -6 -1.5 t-6 -1.5q-16 -7 -27.5 -16.5t-17.5 -22.5t-8.5 -26.5t-2.5 -28.5v-4.5v-5.5v-5.5t1 -4.5h-2h-1q-1 -1 -2 -1h-2h-2h-1q-1 -1 -2 -1h-2h-0.5h-0.5q-1 -1 -1.5 -1h-0.5h-2h-1q-4 -1 -8 -1.5t-8 -0.5q-4 -1 -7.5 -1.5t-7.5 -1.5q-7 -1 -14.5 -3l-14.5 -4q-1 3 -1 6.5v7.5v6.5 v7.5v12.5t1 13.5q0 6 1.5 12.5t2.5 13.5q1 1 2 1.5t2 1.5q1 0 2 0.5t2 1.5q2 2 4 3.5t4 2.5q3 2 6.5 4t7.5 4l6.5 4.5l7.5 5.5q15 11 30 20.5t31 18.5t32.5 17t34.5 14q2 0 3.5 0.5t2.5 1.5h2t2 1h2h2h2t2 1h1h2h2h2h1h2h7.5t6.5 -1t6.5 -1.5t7.5 -1.5q24 -7 40 -19.5 t23 -31.5q8 -19 12 -38.5t5 -40.5v-5.5v-4.5v-4v-4v-268l86 -9v-26q-7 -3 -14 -5l-14 -4q-7 -1 -14 -2.5t-14 -3.5q-14 -4 -28 -7.5t-28 -6.5q-14 -2 -28 -6l-28 -8v0zM314 92v144q-7 -5 -16 -8.5l-20 -7.5q-10 -4 -20.5 -7.5t-21.5 -8.5q-19 -7 -36 -16t-32 -20 q-16 -10 -25 -22.5t-12 -26.5q-1 -1 -1 -2.5v-3.5v-2.5v-2.5q0 -12 3.5 -22.5t10.5 -19.5q8 -10 17.5 -15.5t22.5 -7.5q2 -1 4.5 -1.5t4.5 -0.5h4.5h4.5q14 0 27 3t26 10q13 6 25 13.5l24 15.5q1 1 2.5 1.5t2.5 1.5q1 0 1.5 0.5l1.5 1.5l0.5 0.5l1.5 1.5v2v0z" />
<glyph unicode="b" horiz-adv-x="527" d="M76 -18v4.5v4.5v2t1 2v3v2q1 5 1.5 11t0.5 13v6.5t1 7.5v7.5v7.5v646l-78 12v27q11 1 21.5 2.5t20.5 3.5l10 2t11 3l10 2l10 2q6 2 12 3.5t12 2.5q3 1 6 1.5t7 1.5q3 1 6 1.5t6 1.5q2 0 4 0.5t5 1.5q2 0 4 0.5t4 1.5q4 1 8.5 2t8.5 2q-1 -3 -1.5 -6t-0.5 -5q-1 -3 -1 -6 v-6t-0.5 -6t-0.5 -5v-6v-6v-4v-4v-4v-4v-553v-6v-4v-4t1 -4q1 -20 6 -39t14 -36t25 -28t38 -16h0.5h1.5q0 -1 0.5 -1h1.5h2h2h2h2q1 -1 2 -1h2h4.5h3.5q29 0 51 11t38 33t25.5 46t12.5 51v2v2v0.5t1 1.5v0.5v1.5q1 8 1.5 16t1.5 16t1.5 16.5t0.5 17.5v4v4v4.5v4.5 q-1 21 -5.5 42t-12.5 41q-7 20 -20.5 36t-32.5 28q-5 3 -10 5.5t-10 5.5q-6 2 -11 4t-10 3q-10 3 -20.5 4.5t-21.5 1.5q-7 0 -14.5 -0.5t-15.5 -2.5q-7 -1 -14.5 -3l-15.5 -4l-7 26q4 1 8 3.5t8 5.5q4 2 7.5 4.5l6.5 4.5q7 5 13.5 8.5l13.5 7.5q6 3 12 5.5t12 3.5 q6 2 13 2.5t14 0.5h2.5h2.5q2 -1 3.5 -1h2.5h3.5h2.5q2 -1 3.5 -1h3.5q35 -3 63 -15t50 -34t35.5 -49.5t19.5 -61.5q1 -4 1.5 -8.5t1.5 -9.5q0 -4 0.5 -8.5t1.5 -9.5q0 -4 0.5 -9t0.5 -9q1 -5 1 -9.5v-9.5q0 -46 -12 -88.5t-35 -80.5q-23 -39 -61.5 -61t-91.5 -29 q-4 -1 -8.5 -1.5t-9.5 -0.5h-4.5t-4.5 -1h-4.5h-4.5q-17 0 -33.5 2.5t-32.5 7.5q-16 3 -30.5 11t-27.5 19q-3 -3 -6.5 -6t-6.5 -5q-3 -3 -5.5 -6t-5.5 -6q-5 -5 -9.5 -11l-9.5 -13l-12 2v0z" />
<glyph unicode="c" horiz-adv-x="453" d="M455 148q-3 -7 -6 -13t-6 -11q-1 -3 -3 -6t-3 -5q-2 -3 -3.5 -5.5t-3.5 -5.5q-1 -1 -2 -2.5t-1 -2.5q-1 -2 -2 -3t-2 -3q-1 -1 -1.5 -2.5t-1.5 -2.5l-1.5 -3l-1.5 -3l-10 -16.5l-10 -16.5l-8.5 -16.5t-9.5 -16.5q-13 -7 -27 -12t-30 -9t-31.5 -6t-32.5 -2q-19 0 -37 2 t-35 7q-18 4 -33.5 10.5t-29.5 16.5q-22 16 -39 38t-28 50t-17 57t-6 60v0.5v1.5v2v2q-1 26 3 52t11 51q8 26 19.5 47t27.5 38q12 14 28.5 25t37.5 20t42.5 14.5t43.5 7.5h2.5t2.5 1h3.5h2.5h3h3h2.5h2.5q17 0 33.5 -2.5t32.5 -7.5q16 -4 29.5 -11.5t25.5 -17.5 q8 -7 13.5 -13.5t8.5 -13.5t4.5 -14.5t1.5 -15.5v-2.5v-2.5q-1 -2 -1 -3v-3v-2.5v-3.5q-1 -1 -1 -2.5v-3.5v-1.5v-1.5q-1 -1 -1 -1.5v-1.5v-2.5v-3.5q-5 -1 -10.5 -2t-10.5 -2q-3 -1 -5.5 -1.5t-4.5 -0.5q-3 -1 -5.5 -1.5t-4.5 -1.5q-3 -1 -5.5 -1.5t-4.5 -0.5 q-3 -1 -5.5 -1.5t-5.5 -1.5t-5.5 -2t-4.5 -1q-3 -1 -5.5 -2t-4.5 -2l-4 6v1.5v2.5v2t1 2v1v2v3.5t1 3.5v3v3v3.5t1 3.5v3v4q0 9 -1.5 18t-4.5 18q-3 8 -9 15t-15 12q-1 1 -3 1.5t-3 1.5q-2 1 -3.5 1.5t-3.5 1.5q-1 1 -3 1.5t-3 1.5q-2 0 -3.5 0.5t-3.5 1.5q-4 0 -7.5 0.5 t-6.5 1.5h-2.5t-3.5 1h-2.5h-3.5q-25 0 -46.5 -10.5t-40.5 -32.5t-30 -46.5t-15 -51.5q-1 -5 -1.5 -10.5t-0.5 -10.5v-10.5v-10.5v-7.5v-6.5v-7.5t1 -6.5q2 -36 12.5 -69.5t29.5 -63.5q18 -31 48 -46.5t71 -15.5v0h1v0v0h0.5h1.5h0.5h1.5q29 0 50.5 6.5t36.5 19.5t29.5 30.5 t27.5 39.5q0 1 0.5 2t1.5 2l0.5 1t1.5 2l2 4l2 4l21 -14v0z" />
<glyph unicode="d" horiz-adv-x="545" d="M369 70q-14 -16 -29 -29t-32 -25q-16 -12 -35 -18t-39 -8h-2h-2h-2t-1 -1h-2h-2h-1.5h-1.5q-37 0 -65.5 13.5t-49.5 41.5t-35 58.5t-21 64.5l-2 10.5l-2 11.5q-1 5 -1.5 10.5t-0.5 11.5q-1 5 -1.5 9.5t-0.5 8.5v4v5v4v4q0 47 13 87t38 74q26 34 63.5 53.5t88.5 23.5h1.5 h1.5h0.5h1.5h1.5t1.5 1h1.5h1.5h1.5h1.5h0.5h1.5h3.5h2.5q14 0 27.5 -1.5t26.5 -4.5t25 -8t24 -12v240l-76 12v27q8 0 16 1.5t17 2.5q8 2 16 3.5t16 3.5l16 4t17 4l16 4l16 4l8 2l8 2l8 2l8 2v-4v-3q-1 -2 -1 -4v-4v-7.5v-7.5v-2v-2q-1 -1 -1 -2v-2v-4v-4v-4v-4v-4v-4v-647 l74 -9v-28q-10 -3 -20 -5.5t-19 -5.5q-10 -2 -20 -5l-20 -6t-20 -5t-19 -5q-10 -3 -20 -6.5t-20 -6.5v88v0zM369 316q0 23 -4.5 44.5t-13.5 40.5q-9 18 -27 30t-45 18q-4 1 -8 1.5t-8 1.5h-4t-4 1h-4h-4q-28 0 -50 -11.5t-37 -34.5t-24 -48.5t-13 -53.5q-1 -3 -1.5 -6 t-0.5 -6v-6v-6v-1.5v-0.5v-1.5v-0.5v-1.5v-0.5v-1.5v-0.5v-8.5v-8.5q0 -5 0.5 -9t0.5 -9q1 -9 2.5 -18t3.5 -18q5 -25 14 -49t22 -46q14 -22 33.5 -35.5t44.5 -18.5q3 -1 6 -1.5t6 -0.5q3 -1 6 -1h6q15 0 28.5 4t26.5 11q13 8 25 17.5t23 19.5v214v0z" />
<glyph unicode="e" horiz-adv-x="469" d="M461 119l-26 -33t-27 -31q-13 -15 -28 -28.5l-30 -26.5l-22.5 -6t-22.5 -4q-12 -2 -23.5 -2.5t-22.5 -0.5q-16 0 -32.5 1.5t-32.5 5.5t-31.5 10t-29.5 15q-28 17 -47.5 40.5t-30.5 52.5q-10 29 -15 59.5t-5 62.5v1.5v1.5v1v2v0.5v1.5v1.5v1.5q0 26 4 51t11 50 q8 24 20.5 45.5t31.5 40.5q12 12 27 21.5t32 16.5q17 6 34.5 10t35.5 5h2t2 1h2h2h4h4q35 0 67.5 -9t61.5 -28t43.5 -46.5t14.5 -62.5v-10.5t-1 -11.5q-1 -3 -1.5 -6t-0.5 -5q-1 -3 -1.5 -6t-1.5 -6l-319 2v-10.5v-9.5v-4.5v-4.5q0 -3 0.5 -5.5t0.5 -4.5q2 -33 9.5 -63.5 t20.5 -59.5t37 -48.5t59 -29.5q7 -2 13.5 -3.5t13.5 -2.5q6 -1 12.5 -1.5t13.5 -0.5q23 0 44.5 6t40.5 18t35.5 28t31.5 36l20 -18v0zM111 326h244q-1 25 -8 47t-20 41t-33.5 29.5t-49.5 11.5h-1.5h-1.5h-2h-2q-29 0 -51 -9.5t-37 -29.5q-15 -19 -24 -42.5t-14 -49.5v2v0z " />
<glyph unicode="f" horiz-adv-x="311" d="M20 0v35l84 12v361q-7 -2 -14.5 -2h-15.5q-7 0 -14.5 -0.5t-14.5 -1.5v47q7 -2 14.5 -3t14.5 -1h15.5h14.5q0 11 0.5 22t1.5 23q0 11 1.5 22.5t2.5 23.5q3 28 9 55t15 54t24.5 49.5t36.5 41.5q10 8 21 15t23 11q12 5 24 7t25 2q6 0 12 -0.5t12 -1.5t12 -3l12 -4l-31 -67 q-5 1 -11 4t-13 6t-13.5 5.5t-12.5 3.5h-2t-2 1h-2h-2h-2t-2 1h-2h-2q-7 0 -13 -1.5t-12 -4.5t-10.5 -8t-8.5 -13q-4 -10 -6.5 -21t-4.5 -25q-1 -13 -2.5 -27t-1.5 -28v-6v-6v-6v-6q0 -9 0.5 -17.5t1.5 -16.5q0 -9 0.5 -17t1.5 -16q0 -7 0.5 -14t1.5 -14q0 -7 0.5 -13 t1.5 -11h15.5h14.5h8h8h7h8h15.5h14.5q8 0 15.5 0.5t14.5 1.5v-43q-7 -1 -14.5 -1h-15.5h-7.5t-7.5 1h-7.5h-7.5h-8h-7h-8h-8h-14.5h-15.5v-359l97 -12v-35h-265v0z" />
<glyph unicode="g" horiz-adv-x="471" d="M172 197q-28 7 -48 21t-34 33q-13 20 -19.5 40t-6.5 42v0.5v1.5v2v2q1 20 7 38t16 36q11 18 26 32t35 24q5 2 9.5 4.5t8.5 3.5q2 1 4.5 1.5t5.5 1.5q2 0 4.5 0.5t4.5 1.5q5 0 9.5 0.5t8.5 1.5h4.5t5.5 1h4.5h4.5q6 0 12 -0.5t13 -0.5l12 -2l12 -2t12 -2.5t13 -2.5 q6 -2 12.5 -3t13.5 -3q2 -1 4 -1.5t4 -0.5q2 -1 4.5 -1.5t5.5 -0.5q2 0 3 -0.5t3 -0.5q1 -1 2.5 -1h2.5q3 -1 6 -1h6q2 0 3 -0.5t3 -0.5h2.5h2.5h6h6h14t14 1q7 0 14 0.5t14 1.5q5 0 10.5 0.5t11.5 1.5h5.5t5.5 1h5h6v-1.5v-0.5q-1 -1 -1 -1.5v-0.5v-2v-2q-3 -13 -6.5 -23 t-7.5 -15q-4 -6 -9 -8.5t-13 -2.5q-6 0 -13 1t-16 3l-19.5 4.5l-23.5 5.5q6 -12 10.5 -24t7.5 -23t4.5 -21.5t1.5 -20.5q0 -33 -12.5 -59.5t-38.5 -46.5q-25 -20 -58 -30.5t-73 -10.5h-1.5h-0.5h-1.5h-1.5h-2t-2 1h-1.5h-0.5h-1.5h-1.5h-2h-2l-13.5 -10l-12.5 -10 q-7 -5 -13.5 -10.5t-13.5 -10.5q5 -18 15 -30t26 -18t33 -10t35 -6q5 -1 10 -1.5t10 -0.5h5.5h4.5q3 -1 5.5 -1h4.5h4.5h5.5q2 -1 4.5 -1h4.5q5 -1 9.5 -1.5t8.5 -0.5q3 -1 6 -1.5t6 -0.5t6 -0.5t6 -1.5q15 -3 30 -8t29 -12t25.5 -18t18.5 -26l2 -4l2 -4q2 -3 3.5 -7t2.5 -8 q2 -6 2.5 -12.5t0.5 -13.5q0 -8 -1.5 -16.5t-3.5 -16.5t-5 -15.5t-7 -14.5q-13 -24 -33 -42.5t-47 -31.5q-28 -12 -57 -19.5t-59 -10.5h-4.5t-4.5 -1h-4.5h-4.5h-4t-4 -1h-5h-4q-17 0 -33.5 1.5t-32.5 4.5t-30.5 7t-27.5 9q-20 9 -35.5 20.5t-26.5 25.5t-17 29t-6 32 q0 10 1.5 19.5t5.5 18.5q3 10 8.5 19.5t12.5 19.5q8 1 15.5 2.5t14.5 3.5l15.5 4t14.5 5q7 2 14.5 4.5t14.5 5.5q8 2 15.5 4.5t14.5 5.5q-21 5 -37.5 14t-29.5 21t-19.5 29t-6.5 38v1.5v1.5v1.5t1 1.5v1.5v1.5v2v2q6 2 12 4.5t12 5.5l12.5 6l13.5 6q3 2 6 3.5t7 2.5 q3 2 6 3.5t6 2.5q3 2 6 3.5l7 3.5q3 1 6 3t6 3v2v0zM246 -178q35 1 63 9.5t48 23.5t31 30.5t13 32.5v1.5t1 1.5v1.5v0.5v2v2q0 17 -8.5 32t-26.5 29q-18 13 -46.5 19.5t-66.5 6.5h-6.5h-7.5q-3 -1 -6.5 -1h-7.5t-7.5 -0.5t-6.5 -0.5q-4 -1 -7.5 -1.5t-7.5 -0.5 q-20 -3 -38.5 -8.5t-35.5 -14.5q-16 -9 -24.5 -25t-8.5 -38q0 -11 2.5 -21t7.5 -20t12.5 -17.5t16.5 -13.5q12 -10 26 -16t29 -9q15 -2 30.5 -3.5t31.5 -1.5v0zM254 219q19 1 32.5 10t22.5 25q8 15 12.5 32.5t5.5 36.5v4v4v2v2q-1 0 -1 1v2q-2 23 -9.5 43.5t-19.5 39.5 q-13 19 -29.5 28.5t-36.5 10.5h-2.5h-2.5q-2 -1 -3 -1h-3h-2.5t-2.5 -1q-2 0 -3 -0.5t-3 -0.5q-17 -4 -29.5 -14.5t-20.5 -25.5t-12 -32t-4 -35v-2.5v-3.5v-1.5v-0.5v-1.5v-1.5q1 -23 7.5 -44t19.5 -41q13 -19 30 -28.5t39 -9.5h2h2h1h2h4t4 1v2v0z" />
<glyph unicode="h" horiz-adv-x="600" d="M23 0v35l84 12v652l-78 12v27q8 0 16.5 1.5t17.5 2.5q8 2 16.5 3.5t16.5 3.5l33 8l32 8l8 2l8 2l8 2l8 2v-4v-3q-1 -2 -1 -4v-4v-7.5v-7.5v-2v-2q-1 -1 -1 -2v-2v-4v-4v-4v-4v-4v-4v-307l127 78q2 -1 4 -1h5h4h4h8.5h7.5q42 0 71.5 -9.5t46.5 -29.5q17 -19 26 -52t9 -79 v-264l90 -12v-35h-256v35l84 12v254v-1v1v0.5v1.5q0 20 -3.5 38t-10.5 35t-21 28t-35 16q-4 1 -7.5 1.5t-7.5 0.5h-4t-3 1h-3.5h-3.5q-14 0 -27.5 -2t-27.5 -7q-13 -5 -26 -11l-25 -12q-1 -1 -3 -1.5t-3 -1.5q-2 -1 -3.5 -1.5t-3.5 -1.5q-4 -1 -7 -2.5t-6 -3.5v-332l84 -12 v-35h-252v0z" />
<glyph unicode="i" horiz-adv-x="303" d="M119 412l-78 12v27q14 1 26.5 3.5t25.5 5.5l25.5 6l25.5 6q8 2 15.5 3.5t14.5 2.5l8 2l8 2q3 1 7 2l8 2q0 -3 -0.5 -6t-0.5 -5q-1 -3 -1 -6v-6v-6v-5v-6v-6v-4v-4v-4v-4v-377l82 -12v-35h-250v35l84 12v365v0zM105 654q0 10 3.5 18t10.5 14t14.5 9t15.5 4v0h1v0v0h0.5 h1.5q9 0 18 -3t16 -9q8 -6 11.5 -14.5t3.5 -20.5q0 -11 -3.5 -19.5t-10.5 -13.5q-7 -6 -14.5 -9t-15.5 -3h-1.5h-0.5v0v0h-1v0q-10 0 -18 2.5t-16 8.5q-7 6 -11 14.5t-4 19.5v2v0z" />
<glyph unicode="j" horiz-adv-x="287" d="M45 -199q9 15 16.5 29l13.5 26t10.5 24t8.5 24q5 16 8.5 31.5t4.5 32.5q2 16 3 35.5t1 41.5v367l-78 12v27q20 3 40.5 7.5t41.5 8.5q20 5 40.5 9.5t39.5 9.5v-4v-3q-1 -2 -1 -4v-4v-7.5v-7.5v-2v-2q-1 -1 -1 -2v-2v-4v-4v-4v-4v-4v-4v-438q-14 -26 -29 -50.5t-32 -49.5 l-32.5 -49.5l-33.5 -49.5l-21 14v0zM98 654q0 10 3.5 18.5t10.5 14.5q8 6 16 9t17 3t17.5 -3t15.5 -9q8 -6 11.5 -14.5t3.5 -20.5q-1 -11 -4.5 -19.5t-11.5 -14.5q-7 -6 -15 -8.5t-17 -2.5h-1.5h-0.5v0v0h-1v0q-8 0 -15.5 3t-14.5 9q-7 5 -10.5 13.5t-3.5 19.5v2v0z" />
<glyph unicode="k" horiz-adv-x="561" d="M211 236l174 192l-84 11v36h244v-36l-96 -11l-150 -168l209 -199q7 -9 15 -15t18 -10q9 -4 19 -6t20 -3v-25q-13 -2 -24 -3.5t-20 -2.5q-9 -2 -17 -2.5t-15 -0.5q-4 0 -8.5 0.5t-8.5 1.5t-8 1.5t-8 2.5q-7 1 -14.5 5t-15.5 10t-17 14.5l-20 18.5l-193 189v0zM111 699 l-80 12v27q8 0 16.5 1.5t17.5 2.5q8 2 16.5 3.5t16.5 3.5l33 8l32 8l8 2l8 2l8 2l8 2v-4v-3q-1 -2 -1 -4v-4v-7.5v-7.5v-2v-2q-1 -1 -1 -2v-2v-4v-4v-4v-4v-4v-4v-664l84 -12v-35h-252v35l86 12v652v0z" />
<glyph unicode="l" horiz-adv-x="295" d="M111 699l-80 12v27q8 0 16.5 1.5t17.5 2.5q8 2 16.5 3.5t16.5 3.5l33 8l32 8l8 2l8 2l8 2l8 2v-4v-3q-1 -2 -1 -4v-4v-7.5v-7.5v-2v-2q-1 -1 -1 -2v-2v-4v-4v-4v-4v-4v-4v-664l84 -12v-35h-252v35l86 12v652v0z" />
<glyph unicode="m" horiz-adv-x="920" d="M29 0v35l86 12v361l-86 12v23q17 2 34.5 6l34.5 8q8 2 16.5 4.5t17.5 5.5q8 2 16.5 5l16.5 6h1.5h1.5l0.5 0.5t1.5 0.5h1.5t1.5 1l0.5 0.5t1.5 0.5q3 1 6 1.5t6 1.5l6 2l6 2v-84l125 78q2 -2 4.5 -2h4.5h2t2 1h2.5h2.5h4h4h2t3 1h2h2q24 0 45 -4.5t40 -12.5 q18 -8 33 -24.5t27 -40.5l135 82q2 -1 4 -1h5h4h4h8.5h7.5q41 0 70.5 -9.5t46.5 -29.5q17 -19 25.5 -52t7.5 -79v-264l90 -12v-35h-256v35l84 12v254v-1v1v0.5v1.5q0 20 -3.5 38t-9.5 35q-7 17 -20.5 28t-34.5 16q-4 1 -7.5 1.5t-7.5 0.5h-4t-3 1h-4h-4q-14 0 -27.5 -2 t-26.5 -7t-25.5 -11l-24.5 -12q-1 -1 -2 -1.5t-2 -0.5q-1 -1 -2 -1.5t-2 -0.5q-3 -1 -5 -2l-4 -2t-4.5 -2t-4.5 -2v-332l84 -12v-35h-250v35l82 12v254v-1v1v0.5v1.5q0 20 -3.5 38t-9.5 35q-7 17 -21 28t-35 16h-2t-2 1h-2h-2h-1.5t-1.5 1h-1.5h-1.5h-2t-2 1h-2h-2h-2h-1h-2 h-2q-13 0 -26 -2t-25 -7q-13 -4 -25 -9.5l-24 -10.5q-1 -1 -2 -1.5l-1 -0.5h-0.5h-0.5q-1 -1 -1.5 -1h-0.5q-4 -1 -7.5 -2.5t-6.5 -3.5q-1 -1 -3 -1.5t-3 -1.5q-2 -1 -3.5 -1.5t-3.5 -1.5v-332l84 -12v-35h-252v0z" />
<glyph unicode="n" horiz-adv-x="605" d="M29 0v35l86 12v361l-86 12v23q19 2 37.5 6.5t36.5 9.5q9 3 18 5.5t18 5.5q8 2 17 5l18 6q2 0 3 0.5l3 1.5q1 0 2.5 0.5t2.5 0.5l6 2l6 2v-84l127 78q2 -1 4 -1h5h4h4h4h5h4h4q42 0 72 -9.5t47 -29.5q17 -19 26 -52t9 -79v-264l88 -12v-35h-254v35l82 12v254v-1v1v0.5v1.5 q0 20 -3.5 38t-9.5 35q-7 17 -21 28t-35 16h-2t-2 1h-2h-2h-1.5t-1.5 1h-1.5h-1.5h-2t-2 1h-2h-2h-2h-1h-2h-2q-13 0 -26 -2t-25 -7q-13 -4 -25 -9.5l-24 -10.5q-1 -1 -2 -1.5l-1 -0.5h-0.5h-0.5q-1 -1 -1.5 -1h-0.5q-4 -1 -7.5 -2.5t-6.5 -3.5q-1 -1 -3 -1.5t-3 -1.5 q-2 -1 -3.5 -1.5t-3.5 -1.5v-332l84 -12v-35h-252v0z" />
<glyph unicode="o" horiz-adv-x="531" d="M273 -14h-1.5h-0.5h-1.5h-0.5h-1.5h-0.5h-1.5h-0.5q-57 0 -100 17t-72 51q-29 35 -43.5 80t-14.5 100q-1 53 12.5 97t41.5 78q28 35 69 54t96 23h3.5t2.5 1h3.5h2.5h6h6q51 0 91.5 -18t69.5 -55t44 -82t15 -98q-1 -52 -15 -96t-43 -79q-28 -35 -70 -53t-97 -20v0zM283 18 q32 1 54 13t35 36t21 49.5t11 53.5v6t1 7v6.5v6.5v6t1 7v6v6v2v2v1v2v4v4q-1 8 -1.5 15.5t-0.5 15.5q-1 8 -1.5 16t-2.5 16q-4 29 -14 56t-25 52t-39.5 37.5t-57.5 12.5h-1.5h-1.5h-1.5h-1.5q-36 -1 -61.5 -14.5t-39.5 -39.5q-14 -25 -21.5 -53.5t-9.5 -58.5q-1 -3 -1 -5.5 v-4.5v-4.5v-4.5v-8.5v-9.5q0 -4 0.5 -8.5t1.5 -9.5q0 -8 1 -16.5l2 -17.5t2.5 -17.5t3.5 -16.5q5 -28 15.5 -54.5t26.5 -50.5q15 -24 38.5 -36t54.5 -12h1.5h1.5h1.5t1.5 1h1.5h1.5h1.5h1.5v2v0z" />
<glyph unicode="p" horiz-adv-x="545" d="M178 -145l97 -13v-35h-269v35l88 13v561l-78 12v23q7 0 13.5 1l13.5 2q6 2 13 3.5t14 2.5l27.5 6t26.5 7l27.5 7.5t26.5 7.5v-80q3 1 6.5 4t7.5 6q2 2 4 3.5t4 3.5q2 1 4 3t4 3l22.5 18t24.5 17t26.5 12.5t27.5 5.5h2h2h2t2 1h1h2h2h2q28 0 53.5 -9t48.5 -26 q23 -18 39 -39.5t25 -47.5q5 -13 8 -25.5t5 -26.5l2 -14t2 -13q0 -7 0.5 -14t0.5 -14v-1.5v-0.5v-1.5v-0.5q0 -40 -9.5 -77.5t-29.5 -72.5q-19 -35 -48.5 -59t-68.5 -37q-8 -3 -15.5 -4.5t-15.5 -1.5q-7 -1 -14.5 -1.5t-15.5 -0.5q-15 0 -29 1t-28 5q-14 3 -28 7.5t-28 9.5 v-166v0zM178 90q8 -8 16 -15t17 -12q8 -6 16 -10.5t16 -8.5q17 -7 32 -11t30 -4q26 0 48 11t40 33q17 23 26 54.5t9 73.5q0 43 -9.5 80.5t-29.5 70.5q-19 33 -45.5 49.5t-59.5 16.5q-12 0 -24 -2.5t-26 -7.5q-13 -5 -27.5 -13.5t-28.5 -19.5v-285v0z" />
<glyph unicode="q" horiz-adv-x="527" d="M455 494q-1 -6 -1.5 -10.5t-0.5 -9.5v-8v-8v-4v-4v-5v-4v-4v-4v-5v-4v-569l90 -13v-35h-273v35l99 13v467q0 23 -4 44t-12 40t-26 31t-46 16h-2.5h-3.5h-1.5t-0.5 1h-1.5h-0.5h-1.5h-0.5h-1.5h-1.5h-1.5h-0.5h-1.5h-1.5q-28 0 -52 -10.5t-44 -30.5q-19 -20 -30.5 -44 t-15.5 -53q-1 -4 -1.5 -7.5t-0.5 -8.5v-4v-4q-1 -2 -1 -4v-4v-4v-4v-4v-4v-7.5v-7.5v-4t1 -3v-4v-4q2 -24 7.5 -46.5t14.5 -44.5t24 -39t36 -30q7 -4 14 -7.5t14 -5.5q7 -3 14 -4.5t14 -3.5q3 -1 6.5 -1.5t7.5 -0.5h6.5h7.5h8t8 1q3 0 7 0.5t8 1.5q8 2 16 3.5t16 4.5l8 -19 l-116 -55q-51 3 -88 20t-61 48q-24 32 -35.5 69.5t-11.5 81.5v16t1 17t2.5 18t2.5 18q0 2 0.5 5t1.5 6t1.5 6t1.5 6q9 41 30 74.5t54 58.5q32 26 67.5 38.5t73.5 12.5q8 0 15.5 -0.5t15.5 -1.5q7 -1 15 -3t15 -4q15 -4 30 -11.5t29 -17.5q3 2 6 4.5t6 5.5l3.5 3.5t3.5 2.5 q1 2 3 3.5t3 2.5q1 0 2 1l2 2q1 0 1.5 0.5l1.5 1.5l0.5 0.5l1.5 1.5q2 2 4 3.5t4 3.5l2 2t3 2q1 0 2 1l2 2l6 2v0z" />
<glyph unicode="r" horiz-adv-x="377" d="M199 252v-205l96 -12v-35h-266v35l86 12v361l-86 12v23q17 2 34.5 6l34.5 8q8 2 16.5 4.5t17.5 5.5q8 2 16.5 5l16.5 6h1.5h1.5l0.5 0.5t1.5 0.5h1.5t1.5 1l0.5 0.5t1.5 0.5q3 1 6 1.5t6 1.5l6 2l6 2v-131q3 4 6 9.5t7 11.5q3 6 7 12.5l8 13.5q6 11 13.5 21.5l14.5 20.5 q8 11 16.5 18.5t17.5 13.5q3 2 6.5 3.5t7.5 2.5t7.5 1.5t7.5 0.5h1.5h1.5h0.5h1.5h1.5h1.5q1 -1 1.5 -1h1.5q5 -1 10 -1.5t10 -2.5q2 -1 4.5 -2t5.5 -1q2 -1 4.5 -2t4.5 -2t3.5 -1.5t2.5 -1.5q1 0 2 -0.5t2 -0.5q0 -1 1 -1h2q-1 -2 -1.5 -4t-0.5 -3q-1 -2 -1.5 -3.5 t-1.5 -3.5q-1 -4 -2 -7.5t-2 -6.5q-3 -7 -5 -14l-4 -14q-1 -7 -2.5 -14t-3.5 -14l-12 6l-12 6t-12 5t-12 3h-2.5t-2.5 1h-2h-2h-2t-2 1h-2h-2q-5 0 -10 -0.5t-10 -2.5q-4 -1 -8.5 -4t-9.5 -7q-13 -12 -23 -26t-16 -29q-6 -16 -9.5 -31.5t-5.5 -32.5q-1 -3 -1 -6v-6v-6v-6v2 v0z" />
<glyph unicode="s" horiz-adv-x="436" d="M63 23q-1 16 -1.5 32.5t-2.5 32.5q-1 17 -3.5 34t-4.5 34l31 2v-3.5t1 -2.5v-2v-2q0 -2 0.5 -4t1.5 -4q2 -12 5 -24t7 -23q4 -12 10 -22t14 -18q9 -10 20 -17t24 -12t26.5 -7.5t26.5 -2.5q5 0 10.5 0.5t11.5 1.5t11.5 2.5t10.5 2.5q16 6 28 14.5t19 18.5q8 11 11.5 22 t3.5 23v0.5v1.5v1.5v1.5q-1 14 -6 26.5t-16 25.5q-10 12 -25 21.5t-35 15.5q-4 1 -7.5 2t-6.5 2q-1 1 -3 1.5t-4 1.5q-1 0 -3 0.5t-4 1.5h-2.5t-2.5 1q-2 0 -3 0.5l-3 1.5l-6 2t-5 2q-19 6 -38 13.5t-36 17.5q-17 9 -29.5 24.5t-20.5 36.5q-2 5 -3.5 10.5t-2.5 11.5 q-1 5 -1 10.5v11.5q0 14 2.5 28.5t8.5 27.5q6 14 14.5 26t20.5 22t25.5 17t26.5 11q14 5 28 7t28 2q19 0 37.5 -3t36.5 -9t35 -14t33 -17v-28t1 -28q1 -13 1.5 -26.5t1.5 -26.5l-33 2q-1 11 -3 23t-5 24t-9 22.5t-14 20.5q-7 8 -15 13.5t-18 9.5q-5 2 -10 3.5t-10 2.5 q-6 1 -11 1.5t-10 0.5h-2.5h-3.5h-1.5h-1.5q-1 -1 -1.5 -1h-1.5q-4 0 -8.5 -0.5t-9.5 -2.5q-4 -1 -8.5 -2.5t-8.5 -3.5q-13 -5 -22 -12t-15 -16t-9 -18t-3 -19v-1.5v-1.5v-1.5v-0.5q1 -12 5.5 -23t13.5 -22q9 -10 21 -18t28 -13q5 -1 9.5 -2.5t8.5 -3.5q5 -1 10 -2.5 t10 -3.5q2 -1 4.5 -1.5t5.5 -1.5q2 -1 4.5 -1.5t5.5 -1.5q18 -6 35.5 -12.5t33.5 -14.5q17 -7 31 -19t24 -28q5 -8 8 -16.5t5 -16.5q2 -9 3 -17.5t1 -16.5q0 -12 -2 -23t-5 -22t-7.5 -21t-10.5 -19q-13 -19 -31 -33t-39 -22q-22 -7 -44.5 -11t-45.5 -5h-2.5h-3.5h-2.5h-3.5 q-18 1 -36 3.5t-35 7.5q-18 4 -33.5 10t-29.5 14v2v0z" />
<glyph unicode="t" horiz-adv-x="359" d="M363 86l-70 -88q-8 -2 -16.5 -3.5t-16.5 -2.5q-9 -2 -17.5 -2.5t-16.5 -0.5q-10 0 -20.5 1.5t-21.5 3.5q-10 2 -19.5 5t-18.5 9q-13 8 -21.5 19t-13.5 24q-4 14 -7 28t-3 29q-1 5 -1 10v10v10v10v258q-6 -2 -12 -2h-11h-11.5h-10.5h-3h-3h-3.5h-3.5h-3h-3h-3.5h-3.5v24 q26 11 47.5 28t39.5 39q17 22 31.5 46t26.5 51l21 -4q-2 -19 -3.5 -36.5t-3.5 -34.5l-2 -35.5l-2 -34.5h6t6 1h6h6h12h12h3.5t2.5 1h3.5h2.5h6h6h18h18t18 0.5t18 1.5v-45q-12 -2 -24 -2h-24h-24h-24h-12h-12h-12h-12v-248v-3.5v-3.5v-1.5v-0.5v-1.5v-1.5q0 -16 3 -30.5 t8 -28.5q5 -13 16 -22t29 -12q2 -1 4.5 -1.5t4.5 -0.5h4.5h4.5q14 0 26 4t22 11q11 8 20.5 17.5l19.5 20.5l17 -16v0z" />
<glyph unicode="u" horiz-adv-x="588" d="M490 475v-407l84 -9v-26q-7 -3 -14 -5l-14 -4q-7 -1 -14 -2.5t-14 -3.5q-14 -4 -28 -7.5t-28 -7.5q-13 -3 -27.5 -7l-28.5 -8v84l-127 -78h-4.5t-4.5 -1h-4h-4h-8h-8q-42 0 -71.5 9t-46.5 28q-17 20 -25.5 53t-8.5 79v268l-88 11v34h172v-299q0 -25 3 -45.5t10 -37.5 t23.5 -27.5t41.5 -14.5h1.5h1.5q0 -1 0.5 -1h1.5h1.5h1.5h0.5h1.5h2h2h3.5h2.5q17 0 34 3.5t33 10.5l31.5 15.5t31.5 16.5v334l-82 11v34h166v0z" />
<glyph unicode="v" horiz-adv-x="498" d="M234 -18l-183 446l-72 11v36h246v-36l-82 -11l127 -324l123 324l-82 11v36h201v-36l-69 -11l-179 -446h-30v0z" />
<glyph unicode="w" horiz-adv-x="750" d="M213 -18l-162 446l-72 11v36h238v-36l-80 -11l111 -321l135 372h27l131 -370l111 319l-84 11v36h202v-36l-69 -11l-170 -446h-27l-125 356l-135 -356h-31v0z" />
<glyph unicode="x" horiz-adv-x="514" d="M2 0v35l82 12l150 191l-136 190l-80 11v36h244v-36l-69 -11l90 -125l100 125l-63 11v36h200v-36l-81 -11l-130 -160l158 -221l78 -12v-35h-250v35l76 12l-111 154l-119 -154l78 -12v-35h-217v0z" />
<glyph unicode="y" horiz-adv-x="494" d="M238 23l-181 405l-75 11v36h245v-36l-82 -11l136 -313l30 75l29 77t26 79t21 80l-73 13v36h198v-36l-69 -11q-3 -10 -6 -18l-6 -16t-5.5 -16t-4.5 -16l-45.5 -121.5t-49.5 -120.5q-25 -60 -55.5 -116.5t-65.5 -110.5q-2 -4 -5 -9l-7 -12l-8.5 -14.5t-9.5 -14.5l-6 -8 l-6 -8q-1 -2 -3 -4t-3 -4q-2 -2 -3.5 -4t-3.5 -4q-4 -5 -8 -9t-8 -7t-8 -5t-7 -3h-1.5h-0.5v0v0q-1 0 -1 -0.5v-0.5h-1.5h-0.5v0v0h-1v0h-3t-3 1q-2 0 -3.5 0.5t-3.5 0.5q-1 0 -3 0.5t-3 0.5q-2 1 -3.5 1.5t-3.5 0.5q-1 1 -2.5 1.5t-2.5 0.5l-3 1.5t-2 1.5q-3 1 -5.5 2 t-4.5 2q-1 1 -3 1.5t-3 1.5q-2 1 -3.5 1.5t-3.5 1.5q-3 1 -6 2.5l-5 2.5q32 20 59 43.5t50 50.5t44.5 56t41.5 60v2v0z" />
<glyph unicode="z" horiz-adv-x="469" d="M21 0l-3 16l343 394h-271q-1 -4 -2 -7t-2 -5q-1 -3 -1.5 -5.5t-0.5 -4.5q-1 -4 -2.5 -8t-2.5 -7q-1 -4 -1.5 -8t-1.5 -8t-1.5 -8t-0.5 -7q-1 -4 -1.5 -8t-0.5 -8l-31 2q1 5 2 11t2 13l2 12l2 12l2 12l2 12q0 6 1 12l2 12v6t1 7q0 3 0.5 6t0.5 6v6t1 6v6v6q50 -1 99.5 -1 h99.5h100t101 1l4 -12l-340 -389h283q1 1 1.5 2.5t1.5 2.5q0 2 0.5 3.5t1.5 3.5q1 3 2 6.5t2 7.5q1 3 2 6.5t2 7.5q0 3 1 6.5t2 7.5q2 7 3.5 14t2.5 14l33 2q-1 -5 -1.5 -8.5t-0.5 -6.5q-1 -4 -1.5 -7t-1.5 -6l-2 -13.5l-2 -12.5l-4 -26l-4 -26q-1 -13 -2.5 -25.5 t-2.5 -24.5h-31.5h-30.5h-31.5h-31.5h-62.5h-63.5h-20.5h-20.5h-21h-21h-42h-42v0z" />
<glyph unicode="{" horiz-adv-x="500" d="M412 740v-25q-45 -3 -71 -13.5t-34 -30.5q-7 -19 -11 -47.5t-3 -64.5v-6v-5v-2.5v-2.5v-3v-3q1 -50 -3 -88t-13 -64q-9 -25 -40.5 -44.5t-84.5 -31.5q54 -13 85 -32.5t40 -45.5q8 -27 12 -62.5t4 -79.5v-4v-4v-5v-4v-4v-4v-5v-4q0 -40 4 -67.5t12 -43.5q8 -17 34 -26.5 t69 -11.5v-23q-51 1 -87 8.5t-58 22.5t-33 49t-11 86v105q0 39 -7.5 65.5t-22.5 39.5t-42 22t-65 14v29q38 4 65 12.5t42 21.5t22.5 40t7.5 67v105q0 52 11 86t33 49t58 23.5t87 9.5v2v0z" />
<glyph unicode="|" horiz-adv-x="500" d="M219 199h62v-369h-62v369v0zM219 699h62v-371h-62v371v0z" />
<glyph unicode="}" horiz-adv-x="500" d="M88 740q50 -3 86 -12t58 -24q23 -15 34 -49t11 -87v-101q0 -42 7.5 -69t22.5 -40t41.5 -22t65.5 -14v-25q-39 -7 -65.5 -16t-41.5 -22t-22.5 -39.5t-7.5 -67.5v-101q0 -53 -11 -87.5t-33 -49.5t-58.5 -22.5t-86.5 -8.5v23q45 2 71.5 12.5t33.5 28.5q8 18 11 43.5t3 59.5 v6.5v7.5v6.5v7.5v0.5v1.5v1.5v1.5q0 48 4 85.5t13 63.5t40 45t84 32q-54 12 -85.5 31t-39.5 46q-9 26 -13 61.5t-3 79.5v8v8v9.5v8.5q0 39 -4.5 67.5t-12.5 46.5q-8 17 -33.5 27t-68.5 11v27v0z" />
<glyph unicode="~" horiz-adv-x="1000" d="M768 646l29 -15q-13 -32 -30 -54t-38 -34t-44 -18t-49 -6q-14 0 -29 1t-30 4q-7 2 -15 3.5t-15 3.5l-15.5 4l-15.5 4l-8 2l-8 2q-4 2 -8 3.5t-8 2.5q-17 5 -33.5 10.5t-32.5 9.5q-16 5 -31.5 7t-29.5 2q-17 0 -33 -4t-31 -12t-30 -22.5t-29 -35.5l-29 17q16 31 34 52.5 t39 34.5q20 13 43.5 19.5t48.5 7.5q14 0 28 -1.5t29 -4.5t31 -7t32 -9q2 -1 4.5 -1.5t4.5 -0.5q2 -1 4.5 -1.5t4.5 -1.5q5 -1 9.5 -2.5t8.5 -3.5q16 -4 31.5 -8.5t31.5 -8.5q15 -4 30 -6t30 -2q17 -1 32.5 3t30.5 11q15 8 29 21t27 32v2v0z" />
<glyph unicode="&#xa0;" />
<glyph unicode="&#xa1;" horiz-adv-x="330" d="M178 502l33 -397v-5.5t1 -5.5v-4.5v-5.5v-6t1 -5v-5.5v-5.5v-1.5v-0.5v-1.5v-1.5v-1.5v-0.5v-1.5v-1.5q-1 -13 -3.5 -24t-7.5 -22q-4 -10 -14 -15t-24 -5q-13 0 -22.5 5.5t-14.5 14.5q-4 11 -7 23t-3 25v1.5v1.5v0.5v1.5v1.5v1.5v0.5v1.5v10.5v10.5t0.5 9.5t1.5 8.5 l33 399h26v0zM221 652q0 -14 -4.5 -24.5t-12.5 -16.5q-9 -7 -18 -10t-19 -3q-10 -1 -20 2t-19 10t-13 17t-4 23q0 14 4 23.5t13 16.5q8 7 17.5 10.5t19.5 3.5q11 0 20 -3.5t18 -10.5t13.5 -16.5t4.5 -23.5v2v0z" />
<glyph unicode="&#xa2;" horiz-adv-x="568" d="M514 162q-1 -4 -3 -7t-3 -6q-2 -3 -3.5 -5.5t-3.5 -5.5q-4 -6 -7 -11.5l-6 -10.5q-2 -3 -3.5 -6t-3.5 -6q-1 -3 -2.5 -5.5t-3.5 -4.5l-10 -17.5l-10 -16.5t-9.5 -16.5t-9.5 -16.5q-13 -8 -28 -13.5t-31 -8.5t-31.5 -4t-31.5 -1v-10.5v-11.5v-5.5t1 -5.5v-5v-6v-6v-6v-5 v-6v-5.5t1 -5.5v-6v-6h-39v6v6v2.5t1 3.5v2.5v2.5v8.5t1 9.5v8.5v9.5v16.5v14.5q-48 6 -82.5 25t-57.5 51q-22 32 -33.5 71.5t-13.5 86.5v1.5v1.5v2v2v1.5v1.5v2v2q-1 50 9.5 91.5t32.5 74.5t58 54.5t87 31.5v16v17v9.5v8.5q-1 5 -1 9.5v8.5v2.5v2.5q-1 2 -1 3.5v2.5v6v6 l39 2v-7.5v-6.5q-1 -3 -1 -5.5v-5.5v-6v-5v-6v-6v-6v-5q-1 -3 -1 -5.5v-5.5v-11.5v-10.5h4h4q2 -1 4.5 -1h4.5h4.5h4.5q2 -1 4.5 -1h4.5q14 -1 28.5 -4.5t27.5 -8.5q14 -5 26 -12.5t22 -17.5q6 -6 10.5 -12t6.5 -13t3 -14.5t1 -15.5v-7.5v-7.5v-4v-4q-1 -2 -1 -4v-4 q-4 -1 -7.5 -2t-7.5 -1q-4 -1 -7.5 -2t-6.5 -2t-6.5 -2t-6.5 -1q-4 -1 -7 -2l-6 -2h-0.5h-0.5l-1 -1v0h-1.5h-0.5q-3 -1 -6 -1.5t-6 -1.5q-1 0 -2.5 -0.5t-2.5 -0.5l-3 -1.5t-3 -0.5l-6 5q1 4 1.5 8.5t0.5 8.5v4t1 5v4v4q0 17 -4 30.5t-12 23.5q-7 11 -22 18t-36 10v-405 q2 -2 3.5 -2h2.5h1.5h1.5h0.5h1.5q29 0 50.5 4.5t37.5 13.5q15 9 29 23.5t27 34.5q2 4 4.5 8.5t5.5 8.5q2 2 3 4.5t3 4.5q1 2 2.5 4.5t2.5 5.5l24 -14v0zM279 74v397q-23 -9 -41 -22.5t-30 -33.5q-12 -19 -20 -40.5t-12 -44.5q-1 -4 -1.5 -8.5t-0.5 -9.5q-1 -4 -1.5 -8.5 t-0.5 -9.5v-4.5v-4.5v-4.5v-4.5v-2v-1v-2v-2v-2v-1v-2v-2q2 -30 8.5 -58t18.5 -54q12 -27 32 -46.5t48 -31.5v2v0z" />
<glyph unicode="&#xa3;" horiz-adv-x="568" d="M232 43q-11 -11 -22.5 -19.5t-23.5 -16.5q-12 -7 -26 -11t-29 -6h-2t-1 -1h-2h-2h-2h-1h-2h-2h-2h-2q-2 1 -3 1h-2h-5h-4q-9 1 -17.5 4l-16.5 6q-7 4 -12.5 10t-7.5 15q-1 2 -1.5 4.5t-0.5 4.5q-1 2 -1 4.5v4.5q0 12 4 23t12 21q8 11 18 19.5t20 15.5q1 1 2.5 1.5 t2.5 1.5q2 1 3.5 2t2.5 2q5 2 9.5 4t8.5 3q5 1 10 1.5t10 0.5t9.5 -0.5t8.5 -1.5q2 0 4 -0.5t5 -0.5q2 -1 4 -1.5t4 -0.5q5 -1 10 -2.5t10 -3.5q5 -1 10 -2.5t10 -3.5q4 -1 7.5 -2.5t7.5 -3.5q4 -1 7.5 -2t7.5 -2q5 9 9 18t6 17t3.5 16.5t1.5 16.5q0 11 -2 21.5t-6 20.5 q-4 11 -8.5 21.5t-10.5 20.5q-2 3 -4.5 6t-4.5 7q-3 3 -5.5 6.5t-4.5 7.5q-4 7 -9.5 14t-10.5 14l-2 2t-1 3q-1 1 -2 2.5t-2 2.5q-1 2 -2.5 4.5t-3.5 5.5q-9 -1 -17.5 -1.5t-16.5 -0.5h-16h-16h-8h-8q-5 -1 -9 -1h-8h-8h-8q-5 -1 -9 -1h-8v31q8 -2 15.5 -2.5t14.5 -0.5h15.5 h14.5h7.5h7.5q3 -1 6.5 -1h7.5h15.5h14.5q-11 18 -20.5 37.5t-17.5 39.5q-7 20 -11 41t-4 42q0 10 1 20t3 20l2 10t3 11l4 10t5 10q11 24 27.5 42.5t39.5 31.5t47.5 19.5t50.5 7.5q6 0 12 -0.5t12 -1.5q3 0 6 -0.5t6 -1.5q2 0 5 -0.5t6 -1.5q22 -4 39.5 -13t30.5 -23 t19.5 -29.5t6.5 -32.5v-2v-2q-1 -2 -1 -3v-2v-2v-2q-1 -1 -1 -2v-2q-2 -9 -6 -17.5t-10 -16.5t-13.5 -15.5t-17.5 -13.5l-17 12q2 3 3 7.5t2 8.5q1 5 1.5 10t0.5 10q0 20 -7 39t-21 35q-13 17 -30.5 25t-38.5 9h-2.5h-2.5q-2 -1 -3 -1h-3h-2.5t-2.5 -1q-2 0 -3 -0.5t-3 -0.5 q-19 -5 -34 -15.5t-24 -26.5t-14 -32.5t-5 -34.5v-1.5v-0.5v-1.5v-0.5v-4.5v-4.5v-4.5t1 -4.5q2 -22 9 -43.5t18 -41.5l22.5 -39.5t24.5 -37.5q2 -3 3.5 -5.5t2.5 -4.5q2 -2 3.5 -4t2.5 -4h22h22h11.5t11.5 1h10.5h11.5h22h22h11.5t11.5 1h10.5h11.5v-27q-10 -1 -20.5 -1 h-20.5h-10t-10 1h-10h-10h-20h-20h-10h-10h-11h-10q8 -16 14.5 -30.5t10.5 -28.5q4 -13 6 -25.5t2 -23.5v-4v-4q-1 -2 -1 -4v-4q-1 -4 -1.5 -8t-1.5 -8q-3 -11 -8 -22.5t-11 -22.5q-7 -12 -15 -24t-19 -25l46.5 -15l39.5 -13t34.5 -9t30.5 -3q17 0 31.5 5.5t27.5 17.5 q12 11 24 32t24 51l24 -4q-1 -5 -2 -8.5t-3 -6.5q-1 -4 -2 -7.5t-3 -7.5q-1 -4 -2.5 -7.5t-2.5 -6.5q-2 -4 -3 -7.5t-3 -7.5q-8 -16 -17.5 -32.5t-20.5 -31.5t-24.5 -25.5t-28.5 -15.5q-4 -2 -7.5 -2.5t-7.5 -1.5t-8.5 -1.5t-9.5 -0.5q-9 0 -18 0.5t-19 2.5q-10 1 -19.5 3 t-20.5 5l-6 2l-6 2q-4 1 -7 2l-6 2l-12 4t-11 4q-8 2 -15.5 4.5t-14.5 5.5t-13.5 5.5l-11.5 4.5v2v0zM205 53q-3 -1 -6.5 0.5t-8.5 2.5q-2 1 -4 1.5t-4 1.5q-3 1 -5 2l-4 2q-1 0 -3 0.5t-3 1.5q-2 0 -3.5 0.5t-3.5 1.5l-6 2l-6 2l-10 2l-10 2q-4 1 -8.5 1.5t-8.5 0.5h-2h-2 q-2 -1 -3 -1h-2q-2 0 -4 -0.5t-4 -1.5q-5 -2 -9.5 -5t-8.5 -7t-6.5 -8.5t-2.5 -9.5v-1.5v-0.5v-1.5t1 -0.5v-1.5v-0.5v0v0v-1v0q0 -4 2.5 -8t6.5 -7q5 -3 9.5 -5t9.5 -4q2 -1 4.5 -2t5.5 -1h4.5h4.5q13 0 25 2.5t24 8.5t22 13.5t19 16.5v2v0z" />
<glyph unicode="&#xa4;" horiz-adv-x="605" d="M76 693l102 -101q14 9 29.5 16.5t31.5 12.5t32 8t32 3q8 0 16 -0.5t17 -2.5q8 -1 16 -3t16 -5q17 -5 32 -12.5t30 -18.5l99 103l35 -37l-99 -99q9 -14 16 -27t12 -27t8 -28t4 -28v-2t1 -2v-2v-2v-4v-4q0 -16 -2.5 -32.5t-7.5 -32.5t-12.5 -31.5t-18.5 -29.5l99 -98 l-35 -35l-99 99q-12 -11 -25 -18.5t-27 -12.5q-7 -3 -14 -5t-13 -3q-7 -2 -14 -3t-14 -1q-2 -1 -4.5 -1h-4.5h-4.5h-4.5q-17 0 -33.5 2.5t-32.5 7.5t-31.5 13.5t-29.5 18.5l-102 -97l-33 35l100 100q-10 13 -18 27.5t-13 30.5t-7.5 32.5t-2.5 32.5q0 8 0.5 16t1.5 17 q2 8 3.5 16t4.5 16q5 16 13 31t18 29l-100 101l33 37v0zM305 586q-31 -2 -58.5 -13t-50.5 -34q-23 -22 -34.5 -49t-11.5 -58t11.5 -58.5t34.5 -50.5t50.5 -34.5t58.5 -11.5t58 11.5t49 34.5q23 23 34 50.5t11 58.5t-11 58t-34 49q-22 23 -49 34t-58 11v2v0z" />
<glyph unicode="&#xa5;" horiz-adv-x="568" d="M143 0v37l115 20v240h-237v31h217l-58 94h-159v31h139l-111 186l-100 17v37h281v-37l-93 -17l172 -287l164 287l-98 17v37h244v-37l-84 -17l-105 -186h123v-31h-143l-55 -94h198v-31h-217v-240l115 -20v-37h-308v0z" />
<glyph unicode="&#xa6;" />
<glyph unicode="&#xa7;" horiz-adv-x="500" d="M102 -96l19 -4v-1.5v-1.5v-1.5v-1.5q-1 -23 7.5 -40t25.5 -30q17 -12 37 -18.5t42 -6.5v0h1v0v0h0.5h1.5h0.5h1.5q26 0 48 8t41 24t28.5 35.5t9.5 43.5q0 6 -0.5 12t-2.5 12q-1 3 -1.5 6t-1.5 6q-1 4 -2 7t-3 6q-9 19 -23 33.5t-32 26.5t-37.5 23.5l-39.5 22.5 q-1 0 -2.5 0.5t-2.5 1.5h-1.5t-0.5 1q-1 0 -1.5 0.5t-1.5 0.5l-37.5 20.5t-36.5 22.5t-32.5 27t-25.5 33l-5.5 9.5t-4.5 8.5q-2 5 -3.5 9.5t-2.5 9.5t-2.5 9.5t-1.5 8.5q-1 5 -1 9.5v8.5q0 23 6.5 44t19.5 41q14 20 30 37.5t35 30.5q-10 11 -19 23.5t-15 25.5 q-6 14 -9.5 27.5t-5.5 26.5q-1 3 -1.5 6t-0.5 6v6v6q0 27 7.5 52.5t23.5 49.5t37.5 41t49.5 27q8 3 16.5 5.5t18.5 3.5q10 2 20 2.5t20 0.5q13 0 25.5 -1.5t25.5 -4.5q12 -3 23 -7t21 -10q3 -2 5 -5t3 -8q1 -4 1.5 -9.5t0.5 -10.5v-1.5v-0.5v-1.5v-1.5v-2v-2q-1 -3 -1.5 -6 t-0.5 -6v-5v-4q-1 -3 -1.5 -5t-0.5 -4v-3.5v-3.5l-28 -1q-4 17 -11 31t-18 23t-27.5 13.5t-37.5 4.5q-25 0 -46 -9t-38 -27t-25.5 -39t-8.5 -45v-4.5v-4.5v-5t1 -4q0 -3 0.5 -5.5t1.5 -4.5q0 -2 0.5 -4.5t1.5 -4.5q6 -19 18.5 -35.5t31.5 -30.5l40 -26.5t44 -25.5 q1 -1 2 -1.5t2 -0.5q1 -1 2 -1.5t2 -1.5l4 -2l4 -2l40 -24l39 -24q19 -13 33.5 -27.5t24.5 -31.5q6 -10 10 -19t7 -18q2 -9 3.5 -18t2.5 -17q0 -23 -7.5 -44.5t-22.5 -41.5q-15 -19 -31.5 -37t-35.5 -33q13 -12 22.5 -25t15.5 -27q6 -13 9 -28t3 -31v-0.5v-1.5v-0.5v-1.5 q-1 -27 -9.5 -52t-25.5 -49t-39.5 -40.5t-51.5 -25.5q-8 -2 -16.5 -3.5t-17.5 -2.5q-4 -1 -8.5 -1.5t-8.5 -0.5q-5 -1 -9 -1h-9h-5.5h-4.5h-2h-2q-2 1 -3 1h-2q-17 1 -33.5 4.5t-33.5 9.5q-16 6 -29.5 14t-24.5 19q-3 2 -4.5 4.5t-2.5 5.5q-1 1 -1.5 3t-0.5 3q-1 2 -1 3.5 v3.5v2.5v2.5q0 2 0.5 3t0.5 3v2.5t1 2.5q0 2 0.5 3l1.5 3q1 3 2.5 6t2.5 6q1 1 1.5 2.5t1.5 2.5q0 2 0.5 3t1.5 2q1 2 2 3.5t2 3.5q0 1 1 2.5t2 3.5q1 1 1.5 2.5t1.5 3.5q0 1 0.5 2t1.5 2v0zM350 76q12 7 22.5 18t17.5 24q8 14 11.5 27.5t3.5 27.5q0 4 -0.5 8t-0.5 8 q-1 3 -2 7l-2 8q-2 8 -6 14.5t-9 13.5q-11 15 -25.5 29t-31.5 26l-36 23.5t-36 21.5q-8 5 -16 9.5t-16 8.5q-4 2 -7.5 4t-7.5 5q-4 2 -7.5 4t-6.5 4q-4 2 -8 4.5l-7 4.5q-4 2 -7.5 4.5l-6.5 4.5q-15 -14 -25.5 -27.5t-16.5 -25.5q-7 -12 -10 -24t-3 -23q-1 -24 10.5 -45 t33.5 -40q23 -19 47.5 -36.5t51.5 -33.5q13 -7 25.5 -14.5t25.5 -14.5l23.5 -14l21.5 -13v2v0z" />
<glyph unicode="&#xa8;" horiz-adv-x="500" d="M115 617q0 10 4 19t11 15q8 6 16 9t17 4q9 0 18 -3t16 -9q8 -6 12 -15.5t4 -21.5v-1v0q0 -11 -3.5 -19.5t-11.5 -14.5q-7 -6 -15.5 -8.5t-17.5 -2.5q-10 -1 -18.5 2t-16.5 9q-7 6 -11 14.5t-4 20.5v2v0zM287 617q0 10 4 19t11 15q8 6 16 9t17 4q9 0 18 -3t16 -9 q8 -6 12 -15.5t4 -21.5q0 -11 -3.5 -19.5t-11.5 -14.5q-7 -6 -15 -9t-16 -3h-1.5h-0.5v0v0h-1v0q-10 -1 -18 1.5t-16 8.5q-7 6 -11 14.5t-4 19.5v0v1v0v0v0v1v0v0v2v0z" />
<glyph unicode="&#xa9;" horiz-adv-x="822" d="M412 676q70 -2 130.5 -28t111.5 -77t76 -111.5t24 -131.5q1 -70 -24.5 -130t-76.5 -110q-51 -51 -111.5 -75.5t-131.5 -24.5q-70 1 -130.5 25.5t-111.5 74.5t-76 110t-24 130q0 71 25.5 131.5t76.5 111.5t111.5 77t130.5 26v2v0zM412 637q-62 -2 -115.5 -25t-97.5 -69 t-66.5 -99.5t-23.5 -115.5q1 -61 23.5 -114t66.5 -98q44 -46 97 -68.5t114 -22.5q62 0 115 22.5t98 68.5q45 45 67.5 98t22.5 114q0 62 -22.5 115.5t-66.5 99.5q-45 46 -97.5 69t-114.5 23v2v0zM547 535h17v-152h-19v-1v0q-1 0 -1 0.5v0.5v0.5v1.5q-7 20 -15.5 39t-19.5 37 q-10 18 -26.5 30t-39.5 19q-5 2 -10 2.5t-10 1.5h-4.5t-4.5 1h-4h-4q-27 0 -47.5 -10t-34.5 -30q-14 -19 -23 -43t-12 -53q0 -3 -0.5 -6t-0.5 -6q-1 -4 -1 -7v-6t-0.5 -6t-0.5 -6v-7v-6v-2v-1v-2v-2v-2v-1v-2v-2q1 -31 8.5 -60.5t21.5 -55.5q14 -27 39.5 -40t62.5 -13 q23 0 43 6t36 19q17 12 31 27t27 32l17 -9q-15 -25 -32.5 -44t-38.5 -33q-21 -13 -44 -20t-49 -7q-7 0 -13.5 0.5t-14.5 1.5q-7 1 -14 2.5t-14 3.5q-35 10 -62 29.5t-45 47.5q-18 29 -27 60t-9 64q0 17 2.5 33.5t7.5 32.5q5 17 12 32t17 29q12 18 28.5 33t36.5 25 q20 11 41 17t43 7h1.5h1.5h2h2q9 0 17.5 -1t16.5 -3t16.5 -5l16.5 -6q3 -1 6 -2.5l7 -3.5q3 -1 6.5 -2.5t7.5 -3.5q2 -1 4.5 -2t4.5 -2t4 -1h4q6 0 11.5 2t9.5 6q5 4 7.5 9.5t3.5 12.5v2v0z" />
<glyph unicode="&#xaa;" horiz-adv-x="369" d="M236 354v50q-4 -4 -7.5 -6.5l-6.5 -4.5q-4 -2 -7.5 -4t-6.5 -4q-9 -6 -18.5 -11.5t-20.5 -10.5q-10 -5 -20.5 -8t-21.5 -3h-1.5h-1.5h-2h-2q-16 0 -31 4t-28 11q-13 8 -19.5 20.5t-8.5 30.5v0.5v1.5v0.5v1.5q0 22 9.5 37.5t28.5 25.5q20 10 41 18t44 15h1.5t1.5 1h0.5 h1.5t2.5 0.5t2.5 1.5q5 1 9.5 2.5t9.5 2.5q4 2 9 3.5t9 2.5l17.5 6t15.5 7v4v5v2.5t1 2.5v3.5v2.5v6v6v3.5t1 3.5v3v4q0 8 -0.5 15.5t-2.5 14.5q-1 8 -3.5 14t-6.5 11t-8.5 8.5t-9.5 5.5l-6 2t-5 2q-3 0 -6 0.5t-6 0.5h-2.5h-3.5h-2h-2t-1.5 -0.5l-0.5 -0.5q-1 -1 -1.5 -1 h-1.5h-1.5h-0.5q-1 -1 -1.5 -1h-1.5q-13 -4 -21 -11t-12 -16t-6 -18t-2 -20v-1.5v-1.5v-2v-1v-2v-2v-1.5v-1.5q-1 0 -2.5 -0.5t-2.5 -0.5q-2 -1 -3 -1h-3q-3 -1 -5.5 -1.5t-4.5 -0.5q-5 -1 -10 -1.5t-10 -1.5q-2 -1 -4.5 -1.5t-4.5 -0.5q-3 -1 -5.5 -1.5t-4.5 -1.5 q0 1 -0.5 2t-0.5 2v1v2v4v4v4.5v5.5v2t1 3v2.5v2.5v2t1 3v2.5v2.5q0 2 0.5 4.5t1.5 5.5q4 2 7.5 4.5t7.5 4.5t8 4.5t8 5.5l11.5 7.5l11.5 7.5q6 3 12 6.5t12 7.5q12 7 25 12.5t26 9.5q3 1 6 1.5t6 0.5h3.5t2.5 1h3.5h2.5h4.5h5.5h2h3q1 -1 2 -1h2q20 -6 32.5 -16t16.5 -25 q5 -15 7.5 -31t2.5 -33v-186l64 -8v-17q-4 -2 -8 -3.5t-7 -2.5l-8 -2l-8 -2l-8 -2t-8 -1q-4 -1 -7.5 -2t-7.5 -2l-16 -4l-16 -4q-8 -1 -15.5 -2.5t-15.5 -3.5v2v0zM236 426v101q-6 -4 -12.5 -7t-14.5 -5l-16 -6l-16 -6l-26 -12t-25 -13t-19 -15.5t-9 -17.5v-1.5v-0.5v-1.5 v-0.5q-1 -1 -1 -1.5v-0.5v-1.5v-0.5q0 -8 2.5 -15.5t8.5 -14.5q5 -7 13 -11t18 -5q2 -1 3.5 -1h2.5h3.5h2.5q11 0 20.5 2.5t19.5 6.5q5 2 9.5 4.5t9.5 4.5q4 3 9 5.5t9 5.5q1 0 2 0.5t2 1.5t2 1.5t2 1.5v2v0z" />
<glyph unicode="&#xab;" horiz-adv-x="457" d="M223 121q-5 -1 -10 -0.5t-10 1.5l-10 2l-10 2q-23 5 -44 13.5t-40 20.5t-28.5 31.5t-9.5 46.5q0 26 9.5 45.5t28.5 32.5t40 22t44 14l10 2l10 2t10 1.5t10 1.5v-17q-17 -9 -32 -19t-27 -21q-13 -12 -19 -28t-6 -36q0 -19 6 -35t19 -28q12 -12 27 -21t32 -15v-18v0z M410 121q-5 -1 -10.5 -0.5t-10.5 1.5t-10.5 2.5t-10.5 2.5q-22 5 -43 13.5t-40 20.5t-28 31.5t-9 45.5t9 45t28 32t40 22t43 15q5 1 10.5 2t10.5 2t10.5 1.5t10.5 1.5v-17q-18 -9 -33 -19t-27 -21q-12 -12 -18.5 -28t-7.5 -36q1 -19 7.5 -35t18.5 -28t27 -21t33 -15v-18v0z " />
<glyph unicode="&#xac;" />
<glyph unicode="&#xad;" horiz-adv-x="500" />
<glyph unicode="&#xae;" horiz-adv-x="822" d="M412 676q71 -2 131 -28t111 -77t76 -111.5t24 -131.5q0 -71 -26 -131.5t-77 -110.5q-51 -49 -111.5 -73.5t-131.5 -24.5q-70 1 -130 25.5t-110 74.5t-75 110t-25 130q0 71 25.5 131.5t76.5 111.5t111.5 77t130.5 26v2v0zM412 637q-62 -2 -115.5 -25t-97.5 -69 t-66.5 -99.5t-23.5 -115.5q1 -61 23.5 -114t66.5 -98q44 -46 97 -68.5t114 -22.5q62 0 115 22.5t98 68.5q45 45 67.5 98t22.5 114q0 62 -22.5 115.5t-66.5 99.5q-45 46 -97.5 69t-114.5 23v2v0zM229 533h193q6 -2 12 -2.5t12 -0.5q6 -1 13 -1.5t14 -1.5q18 -4 35.5 -10.5 t33.5 -17.5q16 -10 24.5 -25.5t9.5 -36.5v0v0v-1v0v0v0v-1v0q0 -19 -7 -33.5t-21 -24.5q-15 -10 -30.5 -17t-32.5 -12q-7 -2 -13.5 -3.5t-12.5 -3.5q-6 -1 -12 -2.5t-11 -2.5q22 -7 38.5 -16t26.5 -18q5 -4 9.5 -9t8.5 -9q4 -5 7 -9.5t5 -9.5q3 -7 4.5 -13.5t2.5 -13.5 t1.5 -13t1.5 -12q0 -7 1 -13l2 -12q2 -6 4.5 -10.5t6.5 -9.5l3.5 -3.5t4.5 -3.5q2 -1 4.5 -1.5t5.5 -0.5h3t3 1q1 0 2.5 0.5t2.5 1.5q3 2 5.5 3.5t4.5 4.5q3 5 5.5 10t3.5 11t1.5 12t1.5 13v0v1v0v0v2v2v0.5t1 1.5v0.5v1.5l22 2v-3v-2v-1.5v-0.5q0 -23 -6 -39.5t-17 -27.5 q-11 -10 -23.5 -16t-26.5 -7h-1.5h-1.5h-1.5h-0.5q-10 -1 -19.5 1.5t-18.5 6.5q-9 5 -15 11t-10 13q-3 6 -5 13l-4 14l-2 14t-1 14v1.5v1.5v0.5v1.5v1.5v1.5q-1 1 -1 1.5v1.5q-1 20 -5 37.5t-12 33.5q-7 15 -31 23t-63 8h-1.5h-0.5h-1.5h-1.5h-2h-2v-119q1 -17 5.5 -27 t12.5 -14t19.5 -6t25.5 -4v-17h-189v19q14 -1 25 1.5t19 6.5t12.5 13.5t5.5 25.5v254q-1 14 -5.5 24t-12.5 14t-19 6t-25 3v23v0zM355 352q2 -2 4 -2h4h4h4q2 -1 3.5 -1h3.5h4h4h2h2h1.5h1.5h0.5h1.5q6 0 12 0.5t12 1.5q5 1 11 2.5t12 2.5q11 3 21 8.5t19 14.5q5 5 9 10.5 t7 12.5q2 7 3.5 14t2.5 14q0 7 -1.5 13.5t-3.5 13.5q-2 6 -5 12t-8 11q-4 6 -10.5 11t-15.5 9q-9 5 -18 8t-19 4h-4.5h-4.5h-2t-2 1h-2h-2q-10 0 -18.5 -2t-16.5 -6q-7 -4 -11.5 -11t-4.5 -17v-125v0z" />
<glyph unicode="&#xaf;" />
<glyph unicode="&#xb0;" />
<glyph unicode="&#xb1;" horiz-adv-x="832" d="M123 76h586v-56h-586v56v0zM389 576h56v-168h264v-56h-264v-168h-56v168h-266v56h266v168v0z" />
<glyph unicode="&#xb2;" />
<glyph unicode="&#xb3;" />
<glyph unicode="&#xb4;" horiz-adv-x="500" d="M164 543l141 146q7 6 13.5 11t13.5 8q6 3 12 5t12 2q7 0 12.5 -2t9.5 -7q5 -4 7 -9.5t2 -11.5v-2.5t-1 -2.5q0 -2 -0.5 -3t-0.5 -3q0 -1 -0.5 -2.5t-1.5 -2.5l-1.5 -3l-1.5 -3q-2 -3 -4.5 -6t-5.5 -6t-6 -5.5t-7 -4.5l-160 -98h-33v0z" />
<glyph unicode="&#xb5;" horiz-adv-x="547" d="M80 94q-4 -20 -7 -38.5l-6 -36.5t-5.5 -35.5t-4.5 -36.5l-2 -10.5t-1 -10.5q-1 -5 -1.5 -10.5t-1.5 -10.5q-1 -7 -1.5 -14t-1.5 -14q-1 -3 -1.5 -6.5t-0.5 -7.5q-1 -3 -1.5 -6.5t-1.5 -6.5q-2 -10 -5.5 -19t-8.5 -17q-4 -8 -11.5 -12t-16.5 -4h-1h-1q-1 1 -2 1h-2 q-2 0 -4.5 0.5t-4.5 1.5q-6 2 -10 5.5t-6 8.5t-3.5 10.5t-1.5 11.5v2v2q1 1 1 2v2v4v4q0 1 0.5 2.5t0.5 2.5q1 2 1 3v3q1 3 1.5 5.5t0.5 4.5q1 2 1.5 3.5t0.5 3.5v1.5v1.5q1 1 1 1.5v1.5q1 3 1.5 5.5t0.5 4.5q1 3 1.5 5.5t1.5 5.5q1 5 2.5 10.5t2.5 10.5l6 23.5l6 22.5 q1 6 2.5 11.5t2.5 11.5q0 2 0.5 3t0.5 3q1 4 2 7.5t2 7.5q5 20 10.5 40t10.5 40q2 10 4.5 20t5.5 20q2 10 4.5 20.5t4.5 20.5l53 252h72l-53 -241q-1 -4 -1.5 -7t-0.5 -6q-1 -4 -1.5 -7t-0.5 -6t-0.5 -6t-0.5 -6v-7v-6q-1 -17 3 -32t12 -29q8 -13 22.5 -20.5t36.5 -7.5h1.5 h1.5h1.5h1.5q27 0 48 10t35 30t24 42t16 46v0v1v0v0v0l1 1v0.5v0.5l53 250h74l-56 -258q-1 -4 -1.5 -7t-1.5 -6q0 -1 -0.5 -3t-0.5 -3q-1 -2 -1 -3.5v-3.5q0 -1 -0.5 -2.5t-0.5 -2.5q-1 -2 -1 -3v-3q0 -1 -0.5 -2.5t-0.5 -2.5q-1 -2 -1 -3v-3q-1 -3 -1.5 -5.5t-0.5 -4.5 v-4.5v-4.5q0 -7 1 -13l2 -12q2 -6 5.5 -10.5t8.5 -9.5q2 -3 5 -4.5l7 -3.5q4 -1 7.5 -1.5t7.5 -0.5h1.5h1.5h0.5h1.5h4t4 1q2 0 4 0.5t4 1.5l10 4t10 5q7 6 12 13t9 14q4 8 7.5 16l7.5 17q1 2 1.5 4.5t1.5 4.5t2 4.5t2 5.5v1t1 2q0 1 0.5 1.5l1.5 1.5q0 1 0.5 2t1.5 2 q1 0 1.5 1t1.5 2q2 2 3.5 2.5t3.5 1.5h1.5t1.5 -1l0.5 -0.5t1.5 -0.5t1.5 -0.5l1.5 -1.5q0 -1 0.5 -2t1.5 -2v-1.5t1 -1.5v-1.5v-1.5v-1.5t1 -1.5v-1.5v-1.5v-2.5v-3.5v-1.5v-0.5q-1 -1 -1 -1.5v-1.5q-1 -4 -1.5 -8t-2.5 -8q-1 -2 -1.5 -3.5t-0.5 -3.5q-1 -1 -1.5 -2.5 t-1.5 -3.5q-4 -16 -11 -31.5t-17 -29.5q-10 -15 -23 -25.5t-29 -15.5q-2 -1 -4.5 -1.5t-4.5 -1.5q-2 0 -4.5 -0.5t-4.5 -1.5q-2 0 -4.5 -0.5t-4.5 -0.5q-3 -1 -5.5 -1h-4.5q-9 0 -17.5 1.5t-16.5 4.5q-7 3 -14 8t-12 13q-7 8 -10.5 16.5t-5.5 18.5q-1 10 -1.5 20.5 t-0.5 20.5q-9 -20 -20 -37.5t-25 -32.5t-32.5 -22.5t-41.5 -9.5h-3.5t-3.5 -1h-2.5h-3.5h-2.5t-3.5 -1h-2.5h-2.5q-23 0 -40.5 7t-29.5 20q-12 14 -20 32.5t-13 42.5v2v0z" />
<glyph unicode="&#xb6;" />
<glyph unicode="&#xb7;" />
<glyph unicode="&#xb8;" horiz-adv-x="500" d="M135 -180l15 37q3 -2 7 -3.5t8 -2.5q5 -2 9.5 -4t9.5 -4t10.5 -4l11.5 -4l6 -2l6 -2q3 0 6 -1l6 -2q5 -1 9.5 -1.5t8.5 -1.5q2 0 4 -0.5t5 -0.5q2 -1 4 -1h4q7 0 13.5 1t12.5 3t12 6t10 9q2 1 2.5 3.5t1.5 4.5t1.5 4.5t1.5 4.5v1.5v1.5v1.5v1.5q0 4 -0.5 8.5t-2.5 9.5 q-1 4 -3 8t-5 7q-4 4 -8.5 6.5t-9.5 4.5q-5 1 -10.5 2t-10.5 1h-2.5h-3.5h-2.5t-3.5 -1h-6t-6 -1q-3 0 -6 -0.5t-6 -1.5v92h32v-55q4 1 7.5 1.5t7.5 0.5q4 1 8 1h8q11 0 21 -2t20 -6t18 -11t15 -17q3 -5 6 -9.5t4 -10.5q2 -6 3 -12t1 -12v-2v-2v-1.5v-1.5q-1 -1 -1 -1.5 v-1.5q0 -3 -0.5 -6t-1.5 -6q-1 -2 -2 -5l-2 -6l-6 -11.5t-7 -9.5q-8 -9 -17 -15t-20 -10q-10 -4 -21.5 -6t-22.5 -2h-4.5h-4.5q-3 1 -5.5 1h-4.5q-5 1 -9.5 1.5t-9.5 1.5q-10 1 -20.5 4l-21.5 6q-5 1 -10 3t-10 3q-5 2 -9.5 3.5t-9.5 3.5q-4 1 -8 2.5t-8 3.5q-4 1 -7.5 2.5 t-6.5 3.5v0z" />
<glyph unicode="&#xb9;" />
<glyph unicode="&#xba;" horiz-adv-x="398" d="M205 352q-44 -2 -77.5 9.5t-56.5 35.5t-34.5 56t-11.5 72q0 38 10.5 68t31.5 54t51.5 37.5t70.5 16.5h2h2h2t2 1h1h2h2h2q40 0 71 -13t53 -39q23 -25 34 -56.5t11 -68.5t-11 -68t-32 -56q-22 -25 -53 -37.5t-72 -13.5v2v0zM213 373q23 1 39 9t26 24t16 33.5t9 36.5v4.5 t1 4.5v4.5v4.5v4.5t1 5.5v4.5v4.5v3.5v2.5v3.5v2.5v4.5v5.5q-1 2 -1 5v6q-1 5 -1.5 10.5t-1.5 11.5q-4 21 -11.5 40t-19.5 37q-12 17 -30 26t-44 9h-1.5h-0.5v0v0h-1v0q-27 -1 -46 -10.5t-30 -27.5q-10 -18 -16 -38t-7 -41q-1 -3 -1 -5.5v-4.5v-4v-4v-2.5v-3.5v-2t1 -2v-1.5 v-0.5v-1.5v-1.5v-1.5v-0.5v-1.5v-1.5q0 -6 1 -12l2 -12q1 -7 2.5 -13t2.5 -12q5 -20 12.5 -38t19.5 -35q12 -16 29.5 -24t41.5 -8h2h2h2h2v2v0z" />
<glyph unicode="&#xbb;" horiz-adv-x="457" d="M53 361q5 -2 10 -3l10 -2t10.5 -2l11.5 -2q23 -6 43 -15t39 -22t28.5 -32t9.5 -45t-9.5 -45.5t-28.5 -31.5t-39 -20.5t-43 -13.5q-6 -1 -11.5 -2.5t-10.5 -2.5l-10 -2t-10 -1v22q17 5 32 13.5t28 20.5t19.5 28t6.5 35q0 20 -6.5 36t-19.5 28q-13 11 -28 21t-32 17v21v0z M240 361q5 -2 10 -3l10 -2l10 -2l10 -2q23 -5 44 -14t40 -22t28.5 -32.5t9.5 -45.5q0 -27 -9.5 -46.5t-28.5 -31.5t-40 -20.5t-44 -13.5l-10 -2l-10 -2l-10 -2t-10 -1v22q17 5 31.5 13.5t27.5 20.5q12 12 18.5 28t6.5 35q0 20 -6.5 36t-18.5 28q-13 11 -27.5 21t-31.5 17v21 v0z" />
<glyph unicode="&#xbc;" />
<glyph unicode="&#xbd;" horiz-adv-x="885" d="M270 -12h-51l394 717h51l-394 -717v0zM561 0l-4 21q5 0 10 1.5t10 3.5t10 5t11 6q22 12 43 30t40 40q20 23 34.5 46t24.5 48q3 8 5.5 15.5t3.5 14.5q1 4 1.5 8t0.5 8q1 3 1 7v8q0 8 -1.5 16.5t-3.5 16.5t-6 16t-9 15q-6 7 -13.5 12.5t-16.5 9.5t-18 6t-18 2 q-7 0 -14 -1.5t-13 -3.5q-7 -2 -13 -5t-11 -8q-6 -5 -10.5 -11t-6.5 -12q-3 -7 -4.5 -13.5t-1.5 -13.5v-1.5v-0.5v-1.5v-1.5v-2v-2v-8v-8t0.5 -7.5t1.5 -7.5h-14q-1 1 -1.5 3.5t-1.5 5.5q0 2 -0.5 4.5t-0.5 4.5q-1 5 -1 9.5v8.5q-1 26 7.5 46.5t26.5 33.5q18 14 37.5 21 t41.5 8v0h1v0v0h0.5h1.5q14 0 27 -3t25 -8t22.5 -13t17.5 -19q5 -8 9 -16.5t7 -17.5q2 -4 3 -8.5t2 -8.5q0 -5 0.5 -9t0.5 -9q0 -19 -4.5 -38t-13.5 -37t-20 -34.5t-23 -30.5q-13 -15 -27 -28.5l-29 -27.5l-30 -26t-31 -24l191 2q1 1 2 2.5t2 3.5q0 2 1 4l2 4q2 4 4 8.5 t4 8.5t3.5 8t2.5 8l2 4l2 4q0 2 1 4l2 4l15 2q-1 -5 -2 -9.5t-2 -9.5q-1 -4 -1.5 -8.5t-1.5 -8.5l-4 -17.5l-4 -16.5q-1 -9 -2.5 -17t-3.5 -15h-279v0zM88 305v19l66 6v322l-64 6v14q15 1 30 4l29 6t28 7l28 8v-367l70 -6v-19h-187v0z" />
<glyph unicode="&#xbe;" />
<glyph unicode="&#xbf;" horiz-adv-x="441" d="M143 447l97 49q14 -6 26.5 -13.5t22.5 -18.5q11 -10 17 -23t8 -27v-2.5t1 -2.5v-3v-2v-2t1 -2v-3v-2q0 -10 -2 -18.5t-7 -16.5q-4 -7 -9.5 -14l-11.5 -14q-1 -2 -2.5 -3.5l-3.5 -3.5q-1 -1 -1.5 -2t-1.5 -1q-1 -1 -1.5 -2t-1.5 -2l-5.5 -5.5l-4.5 -4.5q-1 -1 -2 -2.5 t-2 -2.5q-1 -2 -2 -3t-2 -3q-19 -23 -32.5 -44.5t-21.5 -41.5t-12 -38t-4 -33q0 -20 5.5 -36t15.5 -28q11 -12 23.5 -17.5t27.5 -5.5q5 0 9.5 0.5t9.5 1.5q5 2 10 3.5t10 4.5q3 2 6.5 4t7.5 5q4 2 7.5 5t7.5 7l16 -12l-41 -74q-10 -2 -19.5 -4.5t-20.5 -3.5q-10 -2 -20.5 -3 t-21.5 -1q-13 0 -25 2t-24 6t-22 9.5t-19 15.5q-7 8 -12 16t-8 17q-3 8 -4.5 16.5t-1.5 17.5v4.5v4.5v2t1 3v2.5v2.5q1 8 3 15t5 15q2 7 5.5 14.5t7.5 14.5q8 15 17 28.5t19 26.5q2 2 3 4t3 4q1 2 2.5 4t2.5 4q3 4 6 7.5t6 7.5q2 2 4 4.5t4 4.5l4.5 4.5t4.5 5.5l6.5 6.5 l7.5 7.5q2 2 3.5 4t3.5 4l3 3t3 4q6 6 11 13t9 14q5 8 7 15.5t2 15.5q0 3 -0.5 6.5t-1.5 7.5t-2 7.5t-3 7.5q-6 14 -15.5 23.5t-22.5 13.5q-13 5 -26.5 7.5t-27.5 2.5h-2.5h-3.5h-2.5h-3.5l-3 15v0zM295 652q0 -14 -4.5 -24.5t-12.5 -16.5q-9 -7 -18 -10t-19 -3h-1.5h-0.5v0 v0h-1v0q-10 0 -19 3t-17 10t-12 16.5t-4 22.5q0 14 4 23.5t13 16.5q8 7 17.5 10.5t19.5 3.5v0h1v0v0h0.5h1.5q9 -1 18 -4.5t17 -10.5t12.5 -16.5t4.5 -22.5v2v0z" />
<glyph unicode="&#xc0;" horiz-adv-x="719" d="M-10 0v37l80 20l254 650h49l273 -650l83 -20v-37h-280v37l100 20l-84 207h-260l-76 -207l111 -20v-37h-250v0zM225 311h220l-115 285l-105 -285v0zM432 762h-34l-160 99q-4 1 -8 4t-7 6t-5.5 6.5t-4.5 7.5l-2 4t-1 4q-1 2 -1 4.5v4.5v1.5v1.5q0 6 2 10.5t6 8.5 q5 5 10.5 7t12.5 3q5 0 11 -2t13 -5t13.5 -8t13.5 -13l141 -144v0z" />
<glyph unicode="&#xc1;" horiz-adv-x="719" d="M-10 0v37l80 20l254 650h49l273 -650l83 -20v-37h-280v37l100 20l-84 207h-260l-76 -207l111 -20v-37h-250v0zM225 311h220l-115 285l-105 -285v0zM260 762l140 146q7 6 13.5 11t13.5 8t13 5t11 2q7 0 13 -2t10 -7q5 -4 7 -10t2 -12v-2.5t-1 -2.5q0 -2 -0.5 -3t-0.5 -3 q0 -1 -0.5 -2.5t-1.5 -2.5l-1.5 -3l-1.5 -3q-2 -3 -4.5 -6t-5.5 -6t-6 -5.5t-7 -4.5l-160 -97h-33v0z" />
<glyph unicode="&#xc2;" horiz-adv-x="719" d="M-10 0v37l80 20l254 650h49l273 -650l83 -20v-37h-280v37l100 20l-84 207h-260l-76 -207l111 -20v-37h-250v0zM225 311h220l-115 285l-105 -285v0zM203 762l113 170h59l113 -170h-29l-113 101l-114 -101h-29v0z" />
<glyph unicode="&#xc3;" horiz-adv-x="719" d="M-10 0v37l80 20l254 650h49l273 -650l83 -20v-37h-280v37l100 20l-84 207h-260l-76 -207l111 -20v-37h-250v0zM225 311h220l-115 285l-105 -285v0zM486 906q-7 -29 -15 -48.5t-19 -30.5q-10 -10 -24.5 -16t-31.5 -6q-8 0 -17 1l-18 2l-19.5 4.5t-21.5 5.5q-7 2 -13 3.5 t-11 2.5t-9.5 1.5t-9.5 0.5q-8 0 -15 -2.5t-13 -7.5q-6 -4 -10.5 -12.5t-8.5 -20.5l-25 2q6 26 14.5 45.5t18.5 30.5q11 11 25 17t32 6q8 0 16 -1t17 -3q9 -1 19.5 -3.5t21.5 -5.5q6 -2 12 -3.5t12 -2.5q5 -1 10.5 -1.5t9.5 -0.5q8 0 14.5 2t12.5 6q6 5 10.5 13t8.5 20l27 2 v0z" />
<glyph unicode="&#xc4;" horiz-adv-x="719" d="M-10 0v37l80 20l254 650h49l273 -650l83 -20v-37h-280v37l100 20l-84 207h-260l-76 -207l111 -20v-37h-250v0zM225 311h220l-115 285l-105 -285v0zM211 836q0 10 4 19t11 15q8 6 16 9t17 3t18 -3t16 -9q8 -6 12 -15t4 -21v-1v0q0 -11 -3.5 -19.5t-11.5 -14.5 q-7 -6 -15.5 -9t-17.5 -3q-10 0 -18.5 2.5t-16.5 8.5q-7 6 -11 15t-4 21v2v0zM383 836q0 10 4 19t11 15q8 6 16 9t17 3v0h1v0v0h0.5h1.5q8 -1 16 -4t15 -9q8 -6 11.5 -15t3.5 -20q0 -12 -3.5 -20.5t-11.5 -14.5q-7 -6 -16 -9t-18 -3t-17 2.5t-16 8.5q-7 6 -11 14.5t-4 19.5 v0v1v0v0v0v1v0v0v2v0z" />
<glyph unicode="&#xc5;" horiz-adv-x="719" d="M-10 0v37l80 18l254 644h49l273 -644l83 -18v-37h-280v37l100 18l-84 205h-260l-76 -205l111 -18v-37h-250v0zM225 307h220l-115 281l-105 -281v0zM234 848q0 26 9 47t27 35t38 21.5t42 7.5v0h1v0v0h0.5h1.5q21 0 41 -7.5t38 -21.5t27.5 -35t9.5 -49t-9.5 -50t-27.5 -36 t-38 -21.5t-42 -7.5t-42.5 7t-38.5 21q-19 14 -28 36t-9 51v2v0zM277 848q0 -19 6 -32t17 -22t23 -13.5t25 -4.5v0h1v0v0h0.5h1.5q14 -1 27 3.5t25 13.5q11 9 17 22t6 31q-1 17 -6.5 29.5t-16.5 21.5t-23 13.5t-25 5.5h-1.5h-0.5v0v0h-1v0q-14 0 -27 -4t-24 -13 q-12 -9 -18 -22.5t-6 -30.5v2v0z" />
<glyph unicode="&#xc6;" horiz-adv-x="926" d="M371 0v37l96 18v289h-194l-185 -289l105 -18v-37h-242v37l70 18l428 638h373q0 -8 0.5 -14t1.5 -12q0 -6 1 -12l2 -12q1 -12 2.5 -24t2.5 -24q2 -12 3.5 -24t2.5 -24l-31 2q-1 4 -3 9.5t-3 11.5q-2 6 -3.5 12t-3.5 12q-4 12 -7.5 24l-7.5 25l-218 2v-254h187l20 72h27 q-1 -14 -1 -26v-24v-24v-24q-1 -13 -1 -26v-26t0.5 -25.5t1.5 -25.5l-27 2l-20 80h-187v-283h269q2 2 3.5 5l3.5 7q1 3 3 6.5t3 6.5l6 14l6 14q2 3 3 6t3 7q1 3 2.5 6.5t2.5 6.5q2 3 3 6.5t3 7.5q1 3 2.5 6.5t2.5 7.5l29 2q-1 -5 -2 -8.5t-1 -7.5q-1 -4 -2 -7.5t-2 -7.5 q-1 -7 -2.5 -14t-3.5 -14q-1 -4 -2 -7.5t-2 -6.5q-1 -4 -1.5 -7.5t-1.5 -6.5q-1 -5 -2.5 -10.5t-2.5 -10.5q-2 -6 -3 -11.5l-2 -10.5q-2 -10 -4.5 -20.5l-4.5 -19.5h-496v0zM467 391v254l-162 -254h162v0z" />
<glyph unicode="&#xc7;" horiz-adv-x="764" d="M307 -180l15 37q3 -2 6.5 -3.5t7.5 -2.5q5 -2 9.5 -4t9.5 -4t11 -4l12 -4t12 -4.5t12 -3.5q2 0 4 -0.5t5 -1.5q2 0 4 -0.5t4 -0.5h4t5 -1h4h4q8 0 14.5 1t12.5 3t11.5 6t9.5 9q1 1 1.5 2.5t1.5 2.5l1.5 3l1.5 3q0 1 0.5 3t0.5 3q1 2 1 3.5v3.5q0 4 -0.5 8.5t-2.5 9.5 q-1 4 -3.5 7.5t-5.5 6.5q-4 4 -8 6.5t-9 4.5q-5 1 -10.5 2t-10.5 1h-2.5h-3.5h-2.5t-3.5 -1h-6t-6 -1q-3 0 -6 -0.5t-6 -1.5v92h32v-55q4 1 7.5 1.5t7.5 0.5q4 1 8 1h8q11 0 21 -2t20 -6t18 -11t15 -17q3 -5 6 -9.5t4 -10.5q2 -6 3 -12t1 -12v-2v-2v-1.5v-1.5q-1 -1 -1 -1.5 v-1.5q0 -3 -0.5 -6t-1.5 -6q-1 -2 -2 -5l-2 -6l-6 -11.5t-7 -9.5q-8 -9 -17 -15t-20 -10q-10 -4 -21.5 -6t-22.5 -2h-4.5h-4.5q-3 1 -5.5 1h-4.5q-5 1 -9.5 1.5t-9.5 1.5q-10 1 -20.5 4l-21.5 6q-5 1 -10 3t-10 3q-5 2 -9.5 3.5t-9.5 3.5q-4 1 -8 2.5t-8 3.5q-4 1 -7.5 2.5 t-6.5 3.5v0zM643 14q-20 -8 -41 -12t-43 -7t-43.5 -5.5t-43.5 -3.5h-3h-3h-3.5h-3.5h-6h-6q-64 0 -123.5 13.5t-115.5 41.5q-55 29 -92 78.5t-55 120.5q-1 2 -1.5 4.5t-0.5 5.5q-1 2 -1.5 4.5t-1.5 4.5t-1.5 4.5t-0.5 5.5q-1 2 -1 4.5v4.5q-1 9 -2.5 18.5t-2.5 19.5 t-1.5 19.5t-0.5 18.5q0 56 14 106.5t42 96.5q29 46 72.5 78t102.5 51q19 5 37.5 9t37.5 7q19 2 38.5 3.5t38.5 1.5q11 0 22.5 -0.5t22.5 -1.5t22.5 -1.5t22.5 -1.5t21 -2.5t21 -3.5q10 -1 20.5 -2.5t20.5 -3.5q11 -2 21 -4t21 -3l20.5 -4l20.5 -4q1 0 2 -0.5t2 -0.5 q0 -1 1 -1h2h2h2q0 -1 1 -1h2v-22v-22v-10.5t1 -10.5q0 -6 0.5 -11.5t1.5 -10.5q0 -11 1 -22l2 -22q0 -5 0.5 -10.5t1.5 -10.5q0 -6 0.5 -11.5t1.5 -10.5h-31q-1 11 -3 22.5t-5 22.5t-9 21t-15 20q-12 14 -26.5 25.5t-31.5 19.5t-35 15t-36 11q-3 1 -5.5 1.5t-4.5 1.5 q-2 0 -4.5 0.5t-4.5 1.5q-11 2 -21.5 3.5t-20.5 2.5t-20 1.5t-20 0.5q-61 0 -109.5 -17.5t-86.5 -53.5q-37 -36 -56.5 -86.5t-19.5 -115.5v-4.5v-4.5v-5.5v-4.5v-4.5t1 -4.5q0 -3 0.5 -5.5t0.5 -4.5q6 -69 30 -127.5t66 -106.5t97.5 -72t125.5 -24h4.5h4.5h4t5 1h4h4h2t3 1 h2h2q35 4 62.5 13.5t47.5 24.5t38.5 36t34.5 48q2 2 3.5 4.5t2.5 4.5q2 2 3.5 4.5t2.5 5.5l28 -18q-5 -11 -10.5 -20l-10.5 -17l-10 -17.5l-10 -16.5l-10 -17.5l-10 -16.5q-3 -4 -5.5 -8.5t-4.5 -8.5q-2 -5 -4.5 -9t-4.5 -9v2v0z" />
<glyph unicode="&#xc8;" horiz-adv-x="590" d="M33 0v37l98 18v584l-98 17v37h453q0 -8 0.5 -14t1.5 -12q0 -6 0.5 -12t1.5 -12l2 -24l2 -24q2 -12 3.5 -24t2.5 -24l-29 2q-1 4 -3 9.5t-3 11.5q-2 6 -3.5 12t-3.5 12q-4 12 -7.5 24l-7.5 25l-220 2v-254h187l20 72h27q-1 -14 -1 -26v-24v-24v-24q-1 -13 -1 -26v-26 t0.5 -25.5t1.5 -25.5l-27 2l-20 80h-187v-283h271q7 11 13 24.5l12 26.5q5 14 10.5 28t9.5 28l31 2q-1 -5 -2 -8.5t-1 -7.5q-1 -4 -2 -7.5t-2 -7.5q-1 -7 -2.5 -14t-3.5 -14q-1 -4 -2 -7.5t-2 -6.5q-1 -4 -1.5 -7.5t-1.5 -6.5q-1 -5 -2.5 -10.5t-2.5 -10.5q-2 -6 -3 -11.5 l-2 -10.5q-2 -10 -4.5 -20.5l-4.5 -19.5h-498v0zM381 762h-33l-160 99q-4 1 -8 4t-7 6t-5.5 6t-4.5 7q-1 2 -2 4.5t-2 5.5q-1 2 -1 4.5v4.5q0 6 2 11.5t6 9.5q5 5 10.5 7t12.5 3q5 0 11 -2t13 -5t13.5 -8t13.5 -13l141 -144v0z" />
<glyph unicode="&#xc9;" horiz-adv-x="590" d="M33 0v37l98 18v584l-98 17v37h453q0 -8 0.5 -14t1.5 -12q0 -6 0.5 -12t1.5 -12l2 -24l2 -24q2 -12 3.5 -24t2.5 -24l-29 2q-1 4 -3 9.5t-3 11.5q-2 6 -3.5 12t-3.5 12q-4 12 -7.5 24l-7.5 25l-220 2v-254h187l20 72h27q-1 -14 -1 -26v-24v-24v-24q-1 -13 -1 -26v-26 t0.5 -25.5t1.5 -25.5l-27 2l-20 80h-187v-283h271q7 11 13 24.5l12 26.5q5 14 10.5 28t9.5 28l31 2q-1 -5 -2 -8.5t-1 -7.5q-1 -4 -2 -7.5t-2 -7.5q-1 -7 -2.5 -14t-3.5 -14q-1 -4 -2 -7.5t-2 -6.5q-1 -4 -1.5 -7.5t-1.5 -6.5q-1 -5 -2.5 -10.5t-2.5 -10.5q-2 -6 -3 -11.5 l-2 -10.5q-2 -10 -4.5 -20.5l-4.5 -19.5h-498v0zM209 762l141 146q7 6 13.5 11t13.5 8q6 3 12 5t11 2q7 0 13 -2t10 -7q5 -4 7 -10t2 -12v-2.5t-1 -2.5q0 -2 -0.5 -3t-0.5 -3q0 -1 -0.5 -2.5t-1.5 -2.5l-1.5 -3l-1.5 -3q-2 -3 -4.5 -6t-5.5 -6t-6 -5.5t-7 -4.5l-160 -97h-33 v0z" />
<glyph unicode="&#xca;" horiz-adv-x="590" d="M33 0v37l98 18v584l-98 17v37h453q0 -8 0.5 -14t1.5 -12q0 -6 0.5 -12t1.5 -12l2 -24l2 -24q2 -12 3.5 -24t2.5 -24l-29 2q-1 4 -3 9.5t-3 11.5q-2 6 -3.5 12t-3.5 12q-4 12 -7.5 24l-7.5 25l-220 2v-254h187l20 72h27q-1 -14 -1 -26v-24v-24v-24q-1 -13 -1 -26v-26 t0.5 -25.5t1.5 -25.5l-27 2l-20 80h-187v-283h271q7 11 13 24.5l12 26.5q5 14 10.5 28t9.5 28l31 2q-1 -5 -2 -8.5t-1 -7.5q-1 -4 -2 -7.5t-2 -7.5q-1 -7 -2.5 -14t-3.5 -14q-1 -4 -2 -7.5t-2 -6.5q-1 -4 -1.5 -7.5t-1.5 -6.5q-1 -5 -2.5 -10.5t-2.5 -10.5q-2 -6 -3 -11.5 l-2 -10.5q-2 -10 -4.5 -20.5l-4.5 -19.5h-498v0zM152 762l114 170h58l114 -170h-30l-113 101l-113 -101h-30v0z" />
<glyph unicode="&#xcb;" horiz-adv-x="590" d="M33 0v37l98 18v584l-98 17v37h453q0 -8 0.5 -14t1.5 -12q0 -6 0.5 -12t1.5 -12l2 -24l2 -24q2 -12 3.5 -24t2.5 -24l-29 2q-1 4 -3 9.5t-3 11.5q-2 6 -3.5 12t-3.5 12q-4 12 -7.5 24l-7.5 25l-220 2v-254h187l20 72h27q-1 -14 -1 -26v-24v-24v-24q-1 -13 -1 -26v-26 t0.5 -25.5t1.5 -25.5l-27 2l-20 80h-187v-283h271q7 11 13 24.5l12 26.5q5 14 10.5 28t9.5 28l31 2q-1 -5 -2 -8.5t-1 -7.5q-1 -4 -2 -7.5t-2 -7.5q-1 -7 -2.5 -14t-3.5 -14q-1 -4 -2 -7.5t-2 -6.5q-1 -4 -1.5 -7.5t-1.5 -6.5q-1 -5 -2.5 -10.5t-2.5 -10.5q-2 -6 -3 -11.5 l-2 -10.5q-2 -10 -4.5 -20.5l-4.5 -19.5h-498v0zM160 836q0 10 4 19t11 15q8 6 16 9t17 3t18 -3t16 -9q8 -6 12 -15t4 -21v-1v0q0 -11 -3.5 -19.5t-11.5 -14.5q-7 -6 -15.5 -9t-17.5 -3q-10 0 -18.5 2.5t-16.5 8.5q-7 6 -11 15t-4 21v2v0zM332 836q0 10 4 19t11 15q8 6 16 9 t17 3t18 -3t16 -9q8 -6 12 -15t4 -21q0 -11 -3.5 -19.5t-11.5 -14.5q-7 -6 -15 -9.5t-16 -3.5h-1.5h-0.5v0v0h-1v0q-10 0 -18 2.5t-16 8.5q-7 6 -11 14.5t-4 19.5v0v1v0v0v0v1v0v0v2v0z" />
<glyph unicode="&#xcc;" horiz-adv-x="355" d="M225 55l95 -18v-37h-285v37l98 18v584l-98 17v37h285v-37l-95 -17v-584v0zM266 762h-34l-160 99q-4 1 -8 4t-7 6t-5.5 6.5t-4.5 7.5l-2 4t-1 4q-1 2 -1 4.5v4.5v1.5v1.5q0 6 2 10.5t6 8.5q5 5 10.5 7t12.5 3q5 0 11 -2t13 -5t13.5 -8t13.5 -13l141 -144v0z" />
<glyph unicode="&#xcd;" horiz-adv-x="355" d="M225 55l95 -18v-37h-285v37l98 18v584l-98 17v37h285v-37l-95 -17v-584v0zM94 762l140 146q7 6 13.5 11t13.5 8t13 5t11 2q7 0 13 -2t10 -7q5 -4 7 -10t2 -12v-2.5t-1 -2.5q0 -2 -0.5 -3t-0.5 -3q0 -1 -0.5 -2.5t-1.5 -2.5l-1.5 -3l-1.5 -3q-2 -3 -4.5 -6t-5.5 -6 t-6 -5.5t-7 -4.5l-160 -97h-33v0z" />
<glyph unicode="&#xce;" horiz-adv-x="355" d="M225 55l95 -18v-37h-285v37l98 18v584l-98 17v37h285v-37l-95 -17v-584v0zM37 762l113 170h59l113 -170h-29l-113 101l-114 -101h-29v0z" />
<glyph unicode="&#xcf;" horiz-adv-x="355" d="M225 55l95 -18v-37h-285v37l98 18v584l-98 17v37h285v-37l-95 -17v-584v0zM45 836q0 10 4 19t11 15q8 6 16 9t17 3t18 -3t16 -9q8 -6 12 -15t4 -21v-1v0q0 -11 -3.5 -19.5t-11.5 -14.5q-7 -6 -15.5 -9t-17.5 -3q-10 0 -18.5 2.5t-16.5 8.5q-7 6 -11 15t-4 21v2v0z M217 836q0 10 4 19t11 15q8 6 16 9t17 3v0h1v0v0h0.5h1.5q8 -1 16 -4t15 -9q8 -6 11.5 -15t3.5 -20q0 -12 -3.5 -20.5t-11.5 -14.5q-7 -6 -16 -9t-18 -3t-17 2.5t-16 8.5q-7 6 -11 14.5t-4 19.5v0v1v0v0v0v1v0v0v2v0z" />
<glyph unicode="&#xd0;" horiz-adv-x="844" d="M43 0v37l96 18v293h-129v41h129v250l-96 17v37h350q11 -2 21.5 -2h20.5h10.5h10.5q5 -1 10.5 -1h11.5l22 -2l23 -2l22 -4l22 -4q22 -4 43 -12.5t40 -19.5q39 -22 67 -52.5t45 -69.5t26 -80t9 -83v-2v-2v-1.5v-0.5q-1 -46 -10.5 -88.5t-29.5 -82.5q-19 -40 -48.5 -72 t-67.5 -57q-27 -17 -55 -28.5t-58 -16.5q-30 -6 -60.5 -8t-61.5 -2h-363v0zM232 59q13 -4 26.5 -7t26.5 -5q14 -2 27.5 -3.5t27.5 -3.5q6 -1 13 -1.5t14 -0.5h13.5h13.5q45 0 86.5 9t80.5 27t67.5 52.5t47.5 84.5q5 13 8.5 27t5.5 29t3.5 30t2.5 31v4.5v5.5v4.5v5.5 q-1 27 -6.5 53.5t-13.5 51.5q-8 26 -19.5 49t-25.5 43q-22 29 -50 49.5t-61 31.5q-34 11 -68.5 18t-70.5 8h-5.5h-4.5h-5.5h-4.5l-129 2v-265h231v-41h-231v-289v0z" />
<glyph unicode="&#xd1;" horiz-adv-x="844" d="M23 0v37l102 20v582l-102 17v37h186l484 -558v504l-95 17v37h248v-37l-100 -17v-645h-43l-525 604v-541l97 -20v-37h-252v0zM582 906q-7 -29 -15 -48.5t-19 -30.5q-10 -10 -24.5 -16t-31.5 -6q-8 0 -17 1l-18 2l-19.5 4.5t-21.5 5.5q-7 2 -13 3.5t-11 2.5t-9.5 1.5 t-9.5 0.5q-8 0 -15 -2.5t-13 -7.5q-6 -4 -10.5 -12.5t-8.5 -20.5l-25 2q6 26 14.5 45.5t18.5 30.5q11 11 25 17t32 6q8 0 16 -1t17 -3q9 -1 19.5 -3.5t21.5 -5.5q6 -2 12 -3.5t12 -2.5q5 -1 10.5 -1.5t9.5 -0.5q8 0 14.5 2t12.5 6q6 5 10.5 13t8.5 20l27 2v0z" />
<glyph unicode="&#xd2;" />
<glyph unicode="&#xd3;" horiz-adv-x="818" d="M408 707q2 -2 3.5 -2h2.5h3.5h3.5q82 0 146 -24t110 -74q46 -49 69.5 -114.5t24.5 -146.5v-2.5v-3.5v-2v-1v-2v-2q0 -83 -24.5 -147t-74.5 -109t-116 -67.5t-148 -23.5t-148 22.5t-114 72.5q-48 50 -72.5 116t-26.5 149v0.5v1.5v0.5v1.5v0.5v1.5v0.5v1.5q-1 83 24 147.5 t74 110.5q50 46 115.5 69t147.5 24v2v0zM318 45q12 -7 25 -11t26 -7q14 -3 27.5 -4t26.5 -1h4.5h4.5h4.5t4.5 1q7 0 13.5 0.5t13.5 1.5q7 2 13.5 3.5t12.5 2.5q32 10 58.5 27t47.5 41t35.5 52.5t22.5 59.5q3 11 5.5 23t3.5 25q2 13 2.5 26.5t0.5 26.5v8v8q-1 4 -1 8v8 q-1 8 -1.5 16t-1.5 16q-6 44 -19.5 86.5t-36.5 82.5q-22 40 -54.5 67t-73.5 42l-6 2t-5 2q-3 0 -5.5 1t-5.5 2t-6 1.5t-5 1.5q-3 0 -5.5 0.5t-5.5 1.5q-6 1 -11.5 1.5t-10.5 1.5h-6t-5 1h-5.5h-5.5q-40 0 -76 -12.5t-68 -36.5t-54 -57.5t-34 -75.5q-4 -13 -6.5 -26t-4.5 -27 l-2 -28.5t-1 -29.5v-16t1 -16q0 -8 1 -16l2 -16q5 -43 17.5 -83.5t33.5 -78.5q20 -38 49 -65t66 -43v2v0zM322 762l141 146q7 6 13.5 11t13.5 8q6 3 12 5t11 2q7 0 13 -2t10 -7q5 -4 7 -10t2 -12v-2.5t-1 -2.5q0 -2 -0.5 -3t-0.5 -3q0 -1 -0.5 -2.5t-1.5 -2.5q0 -2 -0.5 -3 l-1.5 -3q-2 -3 -4.5 -6t-5.5 -6t-6 -5.5t-7 -4.5l-161 -97h-33v0z" />
<glyph unicode="&#xd4;" horiz-adv-x="818" d="M408 707q2 -2 3.5 -2h2.5h3.5h3.5q82 0 146 -24t110 -74q46 -49 69.5 -114.5t24.5 -146.5v-2.5v-3.5v-2v-1v-2v-2q0 -83 -24.5 -147t-74.5 -109t-116 -67.5t-148 -23.5t-148 22.5t-114 72.5q-48 50 -72.5 116t-26.5 149v0.5v1.5v0.5v1.5v0.5v1.5v0.5v1.5q-1 83 24 147.5 t74 110.5q50 46 115.5 69t147.5 24v2v0zM318 45q12 -7 25 -11t26 -7q14 -3 27.5 -4t26.5 -1h4.5h4.5h4.5t4.5 1q7 0 13.5 0.5t13.5 1.5q7 2 13.5 3.5t12.5 2.5q32 10 58.5 27t47.5 41t35.5 52.5t22.5 59.5q3 11 5.5 23t3.5 25q2 13 2.5 26.5t0.5 26.5v8v8q-1 4 -1 8v8 q-1 8 -1.5 16t-1.5 16q-6 44 -19.5 86.5t-36.5 82.5q-22 40 -54.5 67t-73.5 42l-6 2t-5 2q-3 0 -5.5 1t-5.5 2t-6 1.5t-5 1.5q-3 0 -5.5 0.5t-5.5 1.5q-6 1 -11.5 1.5t-10.5 1.5h-6t-5 1h-5.5h-5.5q-40 0 -76 -12.5t-68 -36.5t-54 -57.5t-34 -75.5q-4 -13 -6.5 -26t-4.5 -27 l-2 -28.5t-1 -29.5v-16t1 -16q0 -8 1 -16l2 -16q5 -43 17.5 -83.5t33.5 -78.5q20 -38 49 -65t66 -43v2v0zM266 762l113 170h59l113 -170h-30l-113 101l-113 -101h-29v0z" />
<glyph unicode="&#xd5;" horiz-adv-x="818" d="M408 707q2 -2 3.5 -2h2.5h3.5h3.5q82 0 146 -24t110 -74q46 -49 69.5 -114.5t24.5 -146.5v-2.5v-3.5v-2v-1v-2v-2q0 -83 -24.5 -147t-74.5 -109t-116 -67.5t-148 -23.5t-148 22.5t-114 72.5q-48 50 -72.5 116t-26.5 149v0.5v1.5v0.5v1.5v0.5v1.5v0.5v1.5q-1 83 24 147.5 t74 110.5q50 46 115.5 69t147.5 24v2v0zM318 45q12 -7 25 -11t26 -7q14 -3 27.5 -4t26.5 -1h4.5h4.5h4.5t4.5 1q7 0 13.5 0.5t13.5 1.5q7 2 13.5 3.5t12.5 2.5q32 10 58.5 27t47.5 41t35.5 52.5t22.5 59.5q3 11 5.5 23t3.5 25q2 13 2.5 26.5t0.5 26.5v8v8q-1 4 -1 8v8 q-1 8 -1.5 16t-1.5 16q-6 44 -19.5 86.5t-36.5 82.5q-22 40 -54.5 67t-73.5 42l-6 2t-5 2q-3 0 -5.5 1t-5.5 2t-6 1.5t-5 1.5q-3 0 -5.5 0.5t-5.5 1.5q-6 1 -11.5 1.5t-10.5 1.5h-6t-5 1h-5.5h-5.5q-40 0 -76 -12.5t-68 -36.5t-54 -57.5t-34 -75.5q-4 -13 -6.5 -26t-4.5 -27 l-2 -28.5t-1 -29.5v-16t1 -16q0 -8 1 -16l2 -16q5 -43 17.5 -83.5t33.5 -78.5q20 -38 49 -65t66 -43v2v0zM549 906q-7 -29 -15 -48.5t-19 -30.5q-10 -10 -24.5 -16t-31.5 -6q-8 0 -17 1l-18 2l-19.5 4.5t-21.5 5.5q-7 2 -13 3.5t-11 2.5t-9.5 1.5t-9.5 0.5q-8 0 -15 -2.5 t-13 -7.5q-6 -4 -10.5 -12.5t-8.5 -20.5l-25 2q6 26 14.5 45.5t18.5 30.5q11 11 25 17t32 6q8 0 16 -1t17 -3q9 -1 19.5 -3.5t21.5 -5.5q6 -2 12 -3.5t12 -2.5q5 -1 10.5 -1.5t9.5 -0.5q8 0 14.5 2t12.5 6q5 5 9.5 13t8.5 20l28 2v0z" />
<glyph unicode="&#xd6;" horiz-adv-x="818" d="M408 707q2 -2 3.5 -2h2.5h3.5h3.5q82 0 146 -24t110 -74q46 -49 69.5 -114.5t24.5 -146.5v-2.5v-3.5v-2v-1v-2v-2q0 -83 -24.5 -147t-74.5 -109t-116 -67.5t-148 -23.5t-148 22.5t-114 72.5q-48 50 -72.5 116t-26.5 149v0.5v1.5v0.5v1.5v0.5v1.5v0.5v1.5q-1 83 24 147.5 t74 110.5q50 46 115.5 69t147.5 24v2v0zM318 45q12 -7 25 -11t26 -7q14 -3 27.5 -4t26.5 -1h4.5h4.5h4.5t4.5 1q7 0 13.5 0.5t13.5 1.5q7 2 13.5 3.5t12.5 2.5q32 10 58.5 27t47.5 41t35.5 52.5t22.5 59.5q3 11 5.5 23t3.5 25q2 13 2.5 26.5t0.5 26.5v8v8q-1 4 -1 8v8 q-1 8 -1.5 16t-1.5 16q-6 44 -19.5 86.5t-36.5 82.5q-22 40 -54.5 67t-73.5 42l-6 2t-5 2q-3 0 -5.5 1t-5.5 2t-6 1.5t-5 1.5q-3 0 -5.5 0.5t-5.5 1.5q-6 1 -11.5 1.5t-10.5 1.5h-6t-5 1h-5.5h-5.5q-40 0 -76 -12.5t-68 -36.5t-54 -57.5t-34 -75.5q-4 -13 -6.5 -26t-4.5 -27 l-2 -28.5t-1 -29.5v-16t1 -16q0 -8 1 -16l2 -16q5 -43 17.5 -83.5t33.5 -78.5q20 -38 49 -65t66 -43v2v0zM273 836q0 10 4 19t11 15q8 6 16 9t17 3t18 -3t16 -9q8 -6 12 -15t4 -21v-1v0q0 -11 -3.5 -19.5t-11.5 -14.5q-7 -6 -15.5 -9t-17.5 -3q-10 0 -18.5 2.5t-16.5 8.5 q-7 6 -11 15t-4 21v2v0zM445 836q0 10 4 19t11 15q8 6 16 9t17 3t18 -3t16 -9q8 -6 12 -15t4 -21q0 -11 -3.5 -19.5t-11.5 -14.5q-7 -6 -15 -9.5t-16 -3.5h-1.5h-0.5v0v0h-1v0q-10 0 -18 2.5t-16 8.5q-7 6 -11 14.5t-4 19.5v0v1v0v0v0v1v0v0v2v0z" />
<glyph unicode="&#xd7;" />
<glyph unicode="&#xd8;" horiz-adv-x="818" d="M55 -35l-28 27q11 8 20.5 17l19.5 19l20 20l20 20l6 6l6 6l6.5 6.5l7.5 7.5q-15 18 -27 38t-23 41q-10 21 -17 43t-11 46l-2 15.5l-2 14.5l-2 15.5t-1 14.5q-1 3 -1 7v8v7.5v7.5q0 41 7 80t22 77q14 38 38 69.5t58 56.5q23 17 49 29.5t54 21.5q29 8 57.5 13t58.5 6h2.5 t2.5 1h3.5h2.5h6h6h7.5h7.5h8h8q3 -1 7 -1.5t8 -0.5h4h4q1 -1 3 -1h4q26 -3 50 -9.5t47 -15.5q23 -10 44.5 -22.5t41.5 -28.5l12.5 12l13.5 13q7 6 13.5 12.5l13.5 13.5l12.5 12.5l13.5 13.5l13.5 14l13.5 14l29 -27l-27.5 -27.5l-26.5 -27.5l-26 -26l-25 -26 q20 -25 35 -52.5t26 -59.5q11 -31 17.5 -63t8.5 -65v-5.5v-4.5v-5.5v-4.5q0 -40 -7.5 -78.5t-22.5 -76.5q-15 -37 -39 -68t-56 -56q-22 -18 -47.5 -31t-52.5 -21q-27 -7 -54.5 -12t-55.5 -7h-8.5h-9.5h-4t-4 -1h-4h-4h-8h-8q-4 1 -8 1h-8q-7 0 -14.5 0.5t-15.5 1.5 q-27 3 -51.5 8.5t-47.5 15.5t-45 23t-42 29l-13.5 -13.5l-12.5 -12.5l-13 -13.5l-12 -12.5q-7 -7 -13.5 -12.5t-12.5 -11.5q-3 -3 -6.5 -6t-6.5 -7q-4 -3 -7 -6l-6 -6v0zM219 129q11 -16 23.5 -29.5t26.5 -25.5t29.5 -21t33.5 -16q11 -4 21.5 -6.5t21.5 -4.5l22.5 -2 t22.5 -1q8 0 16.5 0.5t17.5 1.5q8 1 16.5 2.5t16.5 3.5q17 4 32 10t30 14q32 19 55.5 46t37.5 62t21 72.5t7 76.5q0 29 -3.5 58.5t-10.5 57.5q-7 29 -16 54t-21 47l-400 -400v0zM199 162l399 404q-11 13 -23 25.5t-25 24.5q-13 11 -28 20t-32 16q-11 5 -22.5 8.5t-23.5 5.5 t-24 3.5t-24 1.5h-5.5h-4.5h-2h-2q-1 -1 -2 -1h-2q-14 -1 -28 -3.5t-28 -6.5q-13 -4 -26 -9.5t-25 -13.5q-34 -19 -57.5 -46t-37.5 -62q-14 -34 -21 -70.5t-7 -74.5v-2.5v-3.5v-2v-1v-2v-2q1 -28 4.5 -56.5t10.5 -55.5t16 -51.5t20 -47.5v2v0z" />
<glyph unicode="&#xd9;" horiz-adv-x="830" d="M25 656v37h284v-37l-94 -17q-1 -9 -1.5 -17.5t-0.5 -16.5q-1 -8 -1.5 -16.5t-1.5 -16.5l-2 -35l-2 -37l-2 -37.5t-1 -37.5q-1 -7 -1 -14v-13v-13.5v-12.5q0 -26 1 -51.5l2 -49.5q2 -24 5.5 -45.5t8.5 -41.5q8 -36 27 -64t49 -48q29 -19 62 -29t69 -10h1.5h1.5h1.5h1.5 q37 0 70 10t61 31q29 20 46 49.5t24 67.5q3 19 5 40t3 43q2 23 2.5 46t1.5 47v14v14v7.5v7.5q-1 3 -1 6.5v7.5q0 10 -0.5 19.5t-0.5 19.5q-1 9 -1.5 18.5t-0.5 19.5q-1 20 -1.5 38.5t-1.5 36.5q0 4 -0.5 8t-0.5 8q-1 3 -1 7v8v7.5v7.5q-1 4 -1 7.5v7.5l-100 19v37h272v-37 l-90 -17v-33v-31v-15t1 -15v-15.5v-15.5v-7.5v-7.5v-4t1 -4v-3.5v-3.5v-38.5v-39.5v-38v-38q0 -23 -1.5 -45.5t-3.5 -45.5q-2 -22 -7.5 -44.5t-13.5 -44.5q-13 -42 -38 -72t-60 -48q-35 -19 -72.5 -28.5t-76.5 -12.5h-4t-3 -1h-4h-4h-7.5h-7.5h-2h-2h-2h-2h-6h-5q-3 1 -6 1 h-6h-6h-6q-3 1 -5.5 1h-5.5q-34 4 -65.5 12t-61.5 23t-52.5 38t-36.5 54q-12 25 -19 50.5t-9 50.5q-3 26 -4.5 52t-2.5 52v20v20q0 9 0.5 19t0.5 20q0 20 0.5 39.5t1.5 39.5v3.5t1 3.5v4v4v8v8q0 15 0.5 30.5t1.5 31.5q0 16 0.5 32t1.5 32l-94 19v0zM510 762h-33l-161 99 q-4 1 -8 4t-7 6t-5.5 6.5t-4.5 7.5l-2 4t-1 4q-1 2 -1 4.5v4.5v1.5v1.5q0 6 2 10.5t6 8.5q5 5 10.5 7t12.5 3q5 0 11 -2t13 -5t13.5 -8t13.5 -13l141 -144v0z" />
<glyph unicode="&#xda;" horiz-adv-x="830" d="M25 656v37h284v-37l-94 -17q-1 -9 -1.5 -17.5t-0.5 -16.5q-1 -8 -1.5 -16.5t-1.5 -16.5l-2 -35l-2 -37l-2 -37.5t-1 -37.5q-1 -7 -1 -14v-13v-13.5v-12.5q0 -26 1 -51.5l2 -49.5q2 -24 5.5 -45.5t8.5 -41.5q8 -36 27 -64t49 -48q29 -19 62 -29t69 -10h1.5h1.5h1.5h1.5 q37 0 70 10t61 31q29 20 46 49.5t24 67.5q3 19 5 40t3 43q2 23 2.5 46t1.5 47v14v14v7.5v7.5q-1 3 -1 6.5v7.5q0 10 -0.5 19.5t-0.5 19.5q-1 9 -1.5 18.5t-0.5 19.5q-1 20 -1.5 38.5t-1.5 36.5q0 4 -0.5 8t-0.5 8q-1 3 -1 7v8v7.5v7.5q-1 4 -1 7.5v7.5l-100 19v37h272v-37 l-90 -17v-33v-31v-15t1 -15v-15.5v-15.5v-7.5v-7.5v-4t1 -4v-3.5v-3.5v-38.5v-39.5v-38v-38q0 -23 -1.5 -45.5t-3.5 -45.5q-2 -22 -7.5 -44.5t-13.5 -44.5q-13 -42 -38 -72t-60 -48q-35 -19 -72.5 -28.5t-76.5 -12.5h-4t-3 -1h-4h-4h-7.5h-7.5h-2h-2h-2h-2h-6h-5q-3 1 -6 1 h-6h-6h-6q-3 1 -5.5 1h-5.5q-34 4 -65.5 12t-61.5 23t-52.5 38t-36.5 54q-12 25 -19 50.5t-9 50.5q-3 26 -4.5 52t-2.5 52v20v20q0 9 0.5 19t0.5 20q0 20 0.5 39.5t1.5 39.5v3.5t1 3.5v4v4v8v8q0 15 0.5 30.5t1.5 31.5q0 16 0.5 32t1.5 32l-94 19v0zM338 762l141 146 q7 6 13.5 11t13.5 8q6 3 12 5t11 2q7 0 13 -2t10 -7q5 -4 7 -10t2 -12v-2.5t-1 -2.5q0 -2 -0.5 -3t-0.5 -3q0 -1 -0.5 -2.5t-1.5 -2.5l-1.5 -3l-1.5 -3q-2 -3 -4.5 -6t-5.5 -6t-6 -5.5t-7 -4.5l-160 -97h-33v0z" />
<glyph unicode="&#xdb;" horiz-adv-x="830" d="M25 656v37h284v-37l-94 -17q-1 -9 -1.5 -17.5t-0.5 -16.5q-1 -8 -1.5 -16.5t-1.5 -16.5l-2 -35l-2 -37l-2 -37.5t-1 -37.5q-1 -7 -1 -14v-13v-13.5v-12.5q0 -26 1 -51.5l2 -49.5q2 -24 5.5 -45.5t8.5 -41.5q8 -36 27 -64t49 -48q29 -19 62 -29t69 -10h1.5h1.5h1.5h1.5 q37 0 70 10t61 31q29 20 46 49.5t24 67.5q3 19 5 40t3 43q2 23 2.5 46t1.5 47v14v14v7.5v7.5q-1 3 -1 6.5v7.5q0 10 -0.5 19.5t-0.5 19.5q-1 9 -1.5 18.5t-0.5 19.5q-1 20 -1.5 38.5t-1.5 36.5q0 4 -0.5 8t-0.5 8q-1 3 -1 7v8v7.5v7.5q-1 4 -1 7.5v7.5l-100 19v37h272v-37 l-90 -17v-33v-31v-15t1 -15v-15.5v-15.5v-7.5v-7.5v-4t1 -4v-3.5v-3.5v-38.5v-39.5v-38v-38q0 -23 -1.5 -45.5t-3.5 -45.5q-2 -22 -7.5 -44.5t-13.5 -44.5q-13 -42 -38 -72t-60 -48q-35 -19 -72.5 -28.5t-76.5 -12.5h-4t-3 -1h-4h-4h-7.5h-7.5h-2h-2h-2h-2h-6h-5q-3 1 -6 1 h-6h-6h-6q-3 1 -5.5 1h-5.5q-34 4 -65.5 12t-61.5 23t-52.5 38t-36.5 54q-12 25 -19 50.5t-9 50.5q-3 26 -4.5 52t-2.5 52v20v20q0 9 0.5 19t0.5 20q0 20 0.5 39.5t1.5 39.5v3.5t1 3.5v4v4v8v8q0 15 0.5 30.5t1.5 31.5q0 16 0.5 32t1.5 32l-94 19v0zM281 762l114 170h58 l113 -170h-29l-113 101l-113 -101h-30v0z" />
<glyph unicode="&#xdc;" horiz-adv-x="830" d="M25 656v37h284v-37l-94 -17q-1 -9 -1.5 -17.5t-0.5 -16.5q-1 -8 -1.5 -16.5t-1.5 -16.5l-2 -35l-2 -37l-2 -37.5t-1 -37.5q-1 -7 -1 -14v-13v-13.5v-12.5q0 -26 1 -51.5l2 -49.5q2 -24 5.5 -45.5t8.5 -41.5q8 -36 27 -64t49 -48q29 -19 62 -29t69 -10h1.5h1.5h1.5h1.5 q37 0 70 10t61 31q29 20 46 49.5t24 67.5q3 19 5 40t3 43q2 23 2.5 46t1.5 47v14v14v7.5v7.5q-1 3 -1 6.5v7.5q0 10 -0.5 19.5t-0.5 19.5q-1 9 -1.5 18.5t-0.5 19.5q-1 20 -1.5 38.5t-1.5 36.5q0 4 -0.5 8t-0.5 8q-1 3 -1 7v8v7.5v7.5q-1 4 -1 7.5v7.5l-100 19v37h272v-37 l-90 -17v-33v-31v-15t1 -15v-15.5v-15.5v-7.5v-7.5v-4t1 -4v-3.5v-3.5v-38.5v-39.5v-38v-38q0 -23 -1.5 -45.5t-3.5 -45.5q-2 -22 -7.5 -44.5t-13.5 -44.5q-13 -42 -38 -72t-60 -48q-35 -19 -72.5 -28.5t-76.5 -12.5h-4t-3 -1h-4h-4h-7.5h-7.5h-2h-2h-2h-2h-6h-5q-3 1 -6 1 h-6h-6h-6q-3 1 -5.5 1h-5.5q-34 4 -65.5 12t-61.5 23t-52.5 38t-36.5 54q-12 25 -19 50.5t-9 50.5q-3 26 -4.5 52t-2.5 52v20v20q0 9 0.5 19t0.5 20q0 20 0.5 39.5t1.5 39.5v3.5t1 3.5v4v4v8v8q0 15 0.5 30.5t1.5 31.5q0 16 0.5 32t1.5 32l-94 19v0zM289 836q0 10 4 19 t11 15q8 6 16 9t17 3t18 -3t16 -9q8 -6 12 -15t4 -21v-1v0q0 -11 -3.5 -19.5t-11.5 -14.5q-7 -6 -15.5 -9t-17.5 -3q-10 0 -18.5 2.5t-16.5 8.5q-7 6 -11 15t-4 21v2v0zM461 836q0 10 4 19t11 15q8 6 16 9t17 3t18 -3t16 -9q8 -6 12 -15t4 -21q0 -11 -3.5 -19.5t-11.5 -14.5 q-7 -6 -15 -9.5t-16 -3.5h-1.5h-0.5v0v0h-1v0q-10 0 -18 2.5t-16 8.5q-7 6 -11 14.5t-4 19.5v0v1v0v0v0v1v0v0v2v0z" />
<glyph unicode="&#xdd;" />
<glyph unicode="&#xde;" horiz-adv-x="590" d="M131 639l-98 17v37h285v-37l-95 -17v-57h105l48 -4t47 -6t43.5 -15t39.5 -28q12 -12 21.5 -26.5t16.5 -31.5q6 -16 9.5 -33.5t4.5 -35.5v-2v-2v-2v-2q0 -15 -2 -29.5t-5 -28.5q-4 -14 -9 -27t-13 -24q-17 -29 -39.5 -49.5t-49.5 -32.5t-56 -18t-59 -6h-16t-16 1 q-4 0 -8 0.5t-7 1.5q-4 0 -8 0.5t-8 1.5l-4 37q7 -4 13.5 -5.5t13.5 -2.5t13.5 -1h13.5q31 0 56.5 9.5t46.5 28.5q20 19 30.5 46.5t11.5 64.5v3.5v2.5v3.5v3.5v4v4v2v3q-1 1 -1 2v2q-1 21 -7 42t-17 40q-10 20 -26 34.5t-37 23.5q-10 4 -19.5 7t-20.5 4q-5 1 -10.5 1.5 t-10.5 0.5q-6 1 -11.5 1h-10.5h-2.5h-2.5h-3h-3h-5.5h-4.5q-6 -1 -11.5 -1h-10.5h-5.5h-4.5q-3 -1 -5.5 -1h-4.5v-488l105 -18v-37h-295v37l98 18v584v0z" />
<glyph unicode="&#xdf;" horiz-adv-x="596" d="M25 0v33l80 14v373h-56v33h56v2.5v3.5v4.5v4.5v6.5t1 7.5v6.5v7.5v14.5t1 14.5q2 27 6 53.5t11 51.5q7 26 21 49t35 42q14 13 30 22.5t35 16.5t38.5 10.5t39.5 3.5t39.5 -4t38.5 -12q18 -7 33.5 -19.5t28.5 -29.5q5 -9 9.5 -18t7.5 -18q3 -10 4.5 -19.5t1.5 -19.5v-2v-2 q-1 -2 -1 -3v-2v-4v-4q-1 -7 -2.5 -13.5t-3.5 -12.5q-2 -7 -4.5 -13t-5.5 -12q-4 -7 -9.5 -14l-10.5 -13l-11.5 -13.5l-10.5 -12.5h-0.5h-0.5l-1 -1v0v-0.5v-0.5h-1v0q-3 -3 -5.5 -6t-4.5 -6l-2.5 -2.5l-2.5 -2.5l-3 -3t-2 -3q-7 -7 -12 -13.5t-9 -14.5q-2 -4 -3.5 -7.5 t-2.5 -6.5q-1 -4 -1.5 -7.5t-0.5 -7.5v-4.5t1 -4.5q0 -3 0.5 -5.5t1.5 -4.5t2 -4.5t2 -4.5q2 -3 3.5 -5.5t3.5 -4.5q6 -9 13.5 -16.5l14.5 -14.5l16 -14t17 -13l4 -4l4 -4l2 -2t3 -1l2 -2l2 -2q13 -10 25 -21.5l24 -23.5q12 -13 22 -28.5t19 -33.5l6 -16t4 -16q2 -7 3 -15.5 t1 -16.5q0 -18 -3.5 -35t-11.5 -34q-7 -16 -17.5 -30.5t-24.5 -26.5q-11 -10 -23 -16.5t-26 -10.5l-14 -4t-13 -3q-7 -1 -14 -1.5t-14 -0.5q-22 0 -41.5 6t-37.5 16q-18 11 -29.5 29t-16.5 42l22 14q5 -19 13.5 -33t21.5 -24t26.5 -15.5t27.5 -7.5h2h2h2h2q10 0 19.5 2 t18.5 6q9 5 16.5 11.5t14.5 15.5q5 7 9 14.5t6 14.5q2 8 3.5 15.5t1.5 15.5v2v2q-1 1 -1 2v2v4v4q-1 7 -2.5 13.5t-4.5 13.5q-2 6 -5 12.5l-6 13.5q-7 13 -14.5 24t-16.5 21l-12.5 12l-14.5 13l-16.5 14l-16.5 14l-25.5 21.5t-23.5 22.5q-11 11 -18 23t-9 24q-1 2 -1.5 4.5 t-0.5 3.5v4v4q0 12 3.5 23t10.5 21l15.5 20.5t16.5 18.5l4 4t4 5l4 4l4 4l4 4t3 5l4 4t3 4q9 11 16.5 23t13.5 25q6 14 10.5 27.5t6.5 27.5v3t1 3v2.5v2.5v3.5t1 2.5v3.5v2.5q0 5 -0.5 9.5t-0.5 9.5q-1 4 -2 9t-3 9q-3 9 -7 17.5t-9 16.5q-8 11 -18.5 19.5t-22.5 14.5 q-13 5 -25.5 8t-25.5 3q-9 0 -17.5 -1.5t-16.5 -3.5q-9 -2 -16.5 -5.5t-15.5 -8.5q-16 -11 -27.5 -25.5t-17.5 -32.5t-9.5 -36t-5.5 -37q0 -4 -0.5 -8t-0.5 -7v-8v-8v-14.5v-14.5v-1.5v-0.5v0v0v-1v0v-482l73 -14v-33h-237v0z" />
<glyph unicode="&#xe0;" horiz-adv-x="492" d="M314 -12v73q-4 -5 -8.5 -8t-9.5 -6q-2 -1 -4.5 -3t-4.5 -3q-2 -2 -4.5 -3.5t-4.5 -3.5q-13 -9 -25.5 -16.5l-26.5 -15.5q-13 -6 -27.5 -9.5t-28.5 -4.5h-1.5h-1.5h-1.5h-1.5q-23 0 -43.5 5.5t-37.5 15.5q-18 11 -27 28.5t-11 42.5v2v2v1.5v1.5q-1 31 12 53.5t38 36.5 q26 14 53.5 25.5t58.5 21.5q2 1 4 1.5t4 1.5q2 0 4 0.5t4 1.5l24 8l24 8l22.5 9.5t20.5 9.5v6.5v7.5v4t1 4v4.5v4.5v8.5v8.5v4.5t1 5.5v4.5v4.5q0 11 -0.5 22t-2.5 21q-1 11 -4 19t-8 15t-11.5 12t-14.5 9q-7 3 -15.5 5t-16.5 2h-2.5h-3.5q-1 -1 -2.5 -1h-3.5q-3 -1 -6 -1.5 t-6 -1.5q-16 -7 -27.5 -16.5t-17.5 -22.5t-8.5 -26.5t-2.5 -28.5v-4.5v-5.5v-5.5t1 -4.5h-2h-1q-1 -1 -2 -1h-2h-2h-1q-1 -1 -2 -1h-2h-0.5h-0.5q-1 -1 -1.5 -1h-0.5h-2h-1q-4 -1 -8 -1.5t-8 -0.5q-4 -1 -7.5 -1.5t-7.5 -1.5q-7 -1 -14.5 -3l-14.5 -4q-1 3 -1 6.5v7.5v6.5 v7.5v12.5t1 13.5q0 6 1.5 12.5t2.5 13.5q1 1 2 1.5t2 1.5q1 0 2 0.5t2 1.5q2 2 4 3.5t4 2.5q3 2 6.5 4t7.5 4l6.5 4.5l7.5 5.5q15 11 30 20.5t31 18.5t32.5 17t34.5 14q2 0 3.5 0.5t2.5 1.5h2t2 1h2h2h2t2 1h1h2h2h2h1h2h7.5t6.5 -1t6.5 -1.5t7.5 -1.5q24 -7 40 -19.5 t23 -31.5q8 -19 12 -38.5t5 -40.5v-5.5v-4.5v-4v-4v-268l86 -9v-26q-7 -3 -14 -5l-14 -4q-7 -1 -14 -2.5t-14 -3.5q-14 -4 -28 -7.5t-28 -6.5q-14 -2 -28 -6l-28 -8v0zM314 92v144q-7 -5 -16 -8.5l-20 -7.5q-10 -4 -20.5 -7.5t-21.5 -8.5q-19 -7 -36 -16t-32 -20 q-16 -10 -25 -22.5t-12 -26.5q-1 -1 -1 -2.5v-3.5v-2.5v-2.5q0 -12 3.5 -22.5t10.5 -19.5q8 -10 17.5 -15.5t22.5 -7.5q2 -1 4.5 -1.5t4.5 -0.5h4.5h4.5q14 0 27 3t26 10q13 6 25 13.5l24 15.5q1 1 2.5 1.5t2.5 1.5q1 0 1.5 0.5l1.5 1.5l0.5 0.5l1.5 1.5v2v0zM332 543h-33 l-160 100q-4 1 -7.5 3t-6.5 5t-5 6l-4 6q-1 2 -2 3t-2 3q0 1 -1 2.5t-1 2.5q0 2 -0.5 3t-0.5 3v2.5v2.5q0 6 2 11t6 9q5 5 10.5 7t12.5 3q5 0 11 -2t13 -5q6 -3 13 -8t14 -13l141 -144v0z" />
<glyph unicode="&#xe1;" horiz-adv-x="492" d="M314 -12v73q-4 -5 -8.5 -8t-9.5 -6q-2 -1 -4.5 -3t-4.5 -3q-2 -2 -4.5 -3.5t-4.5 -3.5q-13 -9 -25.5 -16.5l-26.5 -15.5q-13 -6 -27.5 -9.5t-28.5 -4.5h-1.5h-1.5h-1.5h-1.5q-23 0 -43.5 5.5t-37.5 15.5q-18 11 -27 28.5t-11 42.5v2v2v1.5v1.5q-1 31 12 53.5t38 36.5 q26 14 53.5 25.5t58.5 21.5q2 1 4 1.5t4 1.5q2 0 4 0.5t4 1.5l24 8l24 8l22.5 9.5t20.5 9.5v6.5v7.5v4t1 4v4.5v4.5v8.5v8.5v4.5t1 5.5v4.5v4.5q0 11 -0.5 22t-2.5 21q-1 11 -4 19t-8 15t-11.5 12t-14.5 9q-7 3 -15.5 5t-16.5 2h-2.5h-3.5q-1 -1 -2.5 -1h-3.5q-3 -1 -6 -1.5 t-6 -1.5q-16 -7 -27.5 -16.5t-17.5 -22.5t-8.5 -26.5t-2.5 -28.5v-4.5v-5.5v-5.5t1 -4.5h-2h-1q-1 -1 -2 -1h-2h-2h-1q-1 -1 -2 -1h-2h-0.5h-0.5q-1 -1 -1.5 -1h-0.5h-2h-1q-4 -1 -8 -1.5t-8 -0.5q-4 -1 -7.5 -1.5t-7.5 -1.5q-7 -1 -14.5 -3l-14.5 -4q-1 3 -1 6.5v7.5v6.5 v7.5v12.5t1 13.5q0 6 1.5 12.5t2.5 13.5q1 1 2 1.5t2 1.5q1 0 2 0.5t2 1.5q2 2 4 3.5t4 2.5q3 2 6.5 4t7.5 4l6.5 4.5l7.5 5.5q15 11 30 20.5t31 18.5t32.5 17t34.5 14q2 0 3.5 0.5t2.5 1.5h2t2 1h2h2h2t2 1h1h2h2h2h1h2h7.5t6.5 -1t6.5 -1.5t7.5 -1.5q24 -7 40 -19.5 t23 -31.5q8 -19 12 -38.5t5 -40.5v-5.5v-4.5v-4v-4v-268l86 -9v-26q-7 -3 -14 -5l-14 -4q-7 -1 -14 -2.5t-14 -3.5q-14 -4 -28 -7.5t-28 -6.5q-14 -2 -28 -6l-28 -8v0zM314 92v144q-7 -5 -16 -8.5l-20 -7.5q-10 -4 -20.5 -7.5t-21.5 -8.5q-19 -7 -36 -16t-32 -20 q-16 -10 -25 -22.5t-12 -26.5q-1 -1 -1 -2.5v-3.5v-2.5v-2.5q0 -12 3.5 -22.5t10.5 -19.5q8 -10 17.5 -15.5t22.5 -7.5q2 -1 4.5 -1.5t4.5 -0.5h4.5h4.5q14 0 27 3t26 10q13 6 25 13.5l24 15.5q1 1 2.5 1.5t2.5 1.5q1 0 1.5 0.5l1.5 1.5l0.5 0.5l1.5 1.5v2v0zM160 543 l141 146q7 6 13.5 11t13.5 8q6 3 12 5t12 2q7 0 12.5 -2t9.5 -7q5 -4 7 -9.5t2 -11.5v-2.5t-1 -2.5q0 -2 -0.5 -3t-0.5 -3q0 -1 -0.5 -2.5t-1.5 -2.5q0 -2 -0.5 -3l-1.5 -3q-2 -3 -4.5 -6t-5.5 -6t-6 -5.5t-7 -4.5l-161 -98h-33v0z" />
<glyph unicode="&#xe2;" horiz-adv-x="492" d="M314 -12v73q-4 -5 -8.5 -8t-9.5 -6q-2 -1 -4.5 -3t-4.5 -3q-2 -2 -4.5 -3.5t-4.5 -3.5q-13 -9 -25.5 -16.5l-26.5 -15.5q-13 -6 -27.5 -9.5t-28.5 -4.5h-1.5h-1.5h-1.5h-1.5q-23 0 -43.5 5.5t-37.5 15.5q-18 11 -27 28.5t-11 42.5v2v2v1.5v1.5q-1 31 12 53.5t38 36.5 q26 14 53.5 25.5t58.5 21.5q2 1 4 1.5t4 1.5q2 0 4 0.5t4 1.5l24 8l24 8l22.5 9.5t20.5 9.5v6.5v7.5v4t1 4v4.5v4.5v8.5v8.5v4.5t1 5.5v4.5v4.5q0 11 -0.5 22t-2.5 21q-1 11 -4 19t-8 15t-11.5 12t-14.5 9q-7 3 -15.5 5t-16.5 2h-2.5h-3.5q-1 -1 -2.5 -1h-3.5q-3 -1 -6 -1.5 t-6 -1.5q-16 -7 -27.5 -16.5t-17.5 -22.5t-8.5 -26.5t-2.5 -28.5v-4.5v-5.5v-5.5t1 -4.5h-2h-1q-1 -1 -2 -1h-2h-2h-1q-1 -1 -2 -1h-2h-0.5h-0.5q-1 -1 -1.5 -1h-0.5h-2h-1q-4 -1 -8 -1.5t-8 -0.5q-4 -1 -7.5 -1.5t-7.5 -1.5q-7 -1 -14.5 -3l-14.5 -4q-1 3 -1 6.5v7.5v6.5 v7.5v12.5t1 13.5q0 6 1.5 12.5t2.5 13.5q1 1 2 1.5t2 1.5q1 0 2 0.5t2 1.5q2 2 4 3.5t4 2.5q3 2 6.5 4t7.5 4l6.5 4.5l7.5 5.5q15 11 30 20.5t31 18.5t32.5 17t34.5 14q2 0 3.5 0.5t2.5 1.5h2t2 1h2h2h2t2 1h1h2h2h2h1h2h7.5t6.5 -1t6.5 -1.5t7.5 -1.5q24 -7 40 -19.5 t23 -31.5q8 -19 12 -38.5t5 -40.5v-5.5v-4.5v-4v-4v-268l86 -9v-26q-7 -3 -14 -5l-14 -4q-7 -1 -14 -2.5t-14 -3.5q-14 -4 -28 -7.5t-28 -6.5q-14 -2 -28 -6l-28 -8v0zM314 92v144q-7 -5 -16 -8.5l-20 -7.5q-10 -4 -20.5 -7.5t-21.5 -8.5q-19 -7 -36 -16t-32 -20 q-16 -10 -25 -22.5t-12 -26.5q-1 -1 -1 -2.5v-3.5v-2.5v-2.5q0 -12 3.5 -22.5t10.5 -19.5q8 -10 17.5 -15.5t22.5 -7.5q2 -1 4.5 -1.5t4.5 -0.5h4.5h4.5q14 0 27 3t26 10q13 6 25 13.5l24 15.5q1 1 2.5 1.5t2.5 1.5q1 0 1.5 0.5l1.5 1.5l0.5 0.5l1.5 1.5v2v0zM104 543 l113 170h58l114 -170h-30l-113 102l-113 -102h-29v0z" />
<glyph unicode="&#xe3;" horiz-adv-x="492" d="M314 -12v73q-4 -5 -8.5 -8t-9.5 -6q-2 -1 -4.5 -3t-4.5 -3q-2 -2 -4.5 -3.5t-4.5 -3.5q-13 -9 -25.5 -16.5l-26.5 -15.5q-13 -6 -27.5 -9.5t-28.5 -4.5h-1.5h-1.5h-1.5h-1.5q-23 0 -43.5 5.5t-37.5 15.5q-18 11 -27 28.5t-11 42.5v2v2v1.5v1.5q-1 31 12 53.5t38 36.5 q26 14 53.5 25.5t58.5 21.5q2 1 4 1.5t4 1.5q2 0 4 0.5t4 1.5l24 8l24 8l22.5 9.5t20.5 9.5v6.5v7.5v4t1 4v4.5v4.5v8.5v8.5v4.5t1 5.5v4.5v4.5q0 11 -0.5 22t-2.5 21q-1 11 -4 19t-8 15t-11.5 12t-14.5 9q-7 3 -15.5 5t-16.5 2h-2.5h-3.5q-1 -1 -2.5 -1h-3.5q-3 -1 -6 -1.5 t-6 -1.5q-16 -7 -27.5 -16.5t-17.5 -22.5t-8.5 -26.5t-2.5 -28.5v-4.5v-5.5v-5.5t1 -4.5h-2h-1q-1 -1 -2 -1h-2h-2h-1q-1 -1 -2 -1h-2h-0.5h-0.5q-1 -1 -1.5 -1h-0.5h-2h-1q-4 -1 -8 -1.5t-8 -0.5q-4 -1 -7.5 -1.5t-7.5 -1.5q-7 -1 -14.5 -3l-14.5 -4q-1 3 -1 6.5v7.5v6.5 v7.5v12.5t1 13.5q0 6 1.5 12.5t2.5 13.5q1 1 2 1.5t2 1.5q1 0 2 0.5t2 1.5q2 2 4 3.5t4 2.5q3 2 6.5 4t7.5 4l6.5 4.5l7.5 5.5q15 11 30 20.5t31 18.5t32.5 17t34.5 14q2 0 3.5 0.5t2.5 1.5h2t2 1h2h2h2t2 1h1h2h2h2h1h2h7.5t6.5 -1t6.5 -1.5t7.5 -1.5q24 -7 40 -19.5 t23 -31.5q8 -19 12 -38.5t5 -40.5v-5.5v-4.5v-4v-4v-268l86 -9v-26q-7 -3 -14 -5l-14 -4q-7 -1 -14 -2.5t-14 -3.5q-14 -4 -28 -7.5t-28 -6.5q-14 -2 -28 -6l-28 -8v0zM314 92v144q-7 -5 -16 -8.5l-20 -7.5q-10 -4 -20.5 -7.5t-21.5 -8.5q-19 -7 -36 -16t-32 -20 q-16 -10 -25 -22.5t-12 -26.5q-1 -1 -1 -2.5v-3.5v-2.5v-2.5q0 -12 3.5 -22.5t10.5 -19.5q8 -10 17.5 -15.5t22.5 -7.5q2 -1 4.5 -1.5t4.5 -0.5h4.5h4.5q14 0 27 3t26 10q13 6 25 13.5l24 15.5q1 1 2.5 1.5t2.5 1.5q1 0 1.5 0.5l1.5 1.5l0.5 0.5l1.5 1.5v2v0zM387 688 q-7 -29 -15 -48.5t-19 -30.5q-10 -11 -24.5 -16.5t-31.5 -5.5q-8 0 -17 1l-18 2l-19.5 4.5t-21.5 5.5q-3 1 -6 1.5t-6 1.5q-3 0 -5.5 0.5t-5.5 1.5q-5 1 -9.5 1.5t-9.5 0.5q-9 0 -16 -2t-13 -7q-6 -4 -10.5 -13t-8.5 -21l-26 2q6 26 15 45.5t19 30.5q11 11 25 17t32 6 q8 0 16 -1t17 -3q9 -1 19.5 -3.5t21.5 -5.5q6 -1 11.5 -2.5t10.5 -2.5t10.5 -2t10.5 -1q8 0 14.5 2.5t12.5 6.5q6 5 10.5 13t8.5 20l28 2v0z" />
<glyph unicode="&#xe4;" horiz-adv-x="492" d="M314 -12v73q-4 -5 -8.5 -8t-9.5 -6q-2 -1 -4.5 -3t-4.5 -3q-2 -2 -4.5 -3.5t-4.5 -3.5q-13 -9 -25.5 -16.5l-26.5 -15.5q-13 -6 -27.5 -9.5t-28.5 -4.5h-1.5h-1.5h-1.5h-1.5q-23 0 -43.5 5.5t-37.5 15.5q-18 11 -27 28.5t-11 42.5v2v2v1.5v1.5q-1 31 12 53.5t38 36.5 q26 14 53.5 25.5t58.5 21.5q2 1 4 1.5t4 1.5q2 0 4 0.5t4 1.5l24 8l24 8l22.5 9.5t20.5 9.5v6.5v7.5v4t1 4v4.5v4.5v8.5v8.5v4.5t1 5.5v4.5v4.5q0 11 -0.5 22t-2.5 21q-1 11 -4 19t-8 15t-11.5 12t-14.5 9q-7 3 -15.5 5t-16.5 2h-2.5h-3.5q-1 -1 -2.5 -1h-3.5q-3 -1 -6 -1.5 t-6 -1.5q-16 -7 -27.5 -16.5t-17.5 -22.5t-8.5 -26.5t-2.5 -28.5v-4.5v-5.5v-5.5t1 -4.5h-2h-1q-1 -1 -2 -1h-2h-2h-1q-1 -1 -2 -1h-2h-0.5h-0.5q-1 -1 -1.5 -1h-0.5h-2h-1q-4 -1 -8 -1.5t-8 -0.5q-4 -1 -7.5 -1.5t-7.5 -1.5q-7 -1 -14.5 -3l-14.5 -4q-1 3 -1 6.5v7.5v6.5 v7.5v12.5t1 13.5q0 6 1.5 12.5t2.5 13.5q1 1 2 1.5t2 1.5q1 0 2 0.5t2 1.5q2 2 4 3.5t4 2.5q3 2 6.5 4t7.5 4l6.5 4.5l7.5 5.5q15 11 30 20.5t31 18.5t32.5 17t34.5 14q2 0 3.5 0.5t2.5 1.5h2t2 1h2h2h2t2 1h1h2h2h2h1h2h7.5t6.5 -1t6.5 -1.5t7.5 -1.5q24 -7 40 -19.5 t23 -31.5q8 -19 12 -38.5t5 -40.5v-5.5v-4.5v-4v-4v-268l86 -9v-26q-7 -3 -14 -5l-14 -4q-7 -1 -14 -2.5t-14 -3.5q-14 -4 -28 -7.5t-28 -6.5q-14 -2 -28 -6l-28 -8v0zM314 92v144q-7 -5 -16 -8.5l-20 -7.5q-10 -4 -20.5 -7.5t-21.5 -8.5q-19 -7 -36 -16t-32 -20 q-16 -10 -25 -22.5t-12 -26.5q-1 -1 -1 -2.5v-3.5v-2.5v-2.5q0 -12 3.5 -22.5t10.5 -19.5q8 -10 17.5 -15.5t22.5 -7.5q2 -1 4.5 -1.5t4.5 -0.5h4.5h4.5q14 0 27 3t26 10q13 6 25 13.5l24 15.5q1 1 2.5 1.5t2.5 1.5q1 0 1.5 0.5l1.5 1.5l0.5 0.5l1.5 1.5v2v0zM111 617 q0 10 4 19t11 15q8 6 16 9t17 4q9 0 18 -3t16 -9q8 -6 12 -15.5t4 -21.5v-1v0q0 -11 -3.5 -19.5t-11.5 -14.5q-7 -6 -15.5 -8.5t-17.5 -2.5q-10 -1 -18.5 2t-16.5 9q-7 6 -11 14.5t-4 20.5v2v0zM283 617q0 10 4 19t11 15q8 6 16 9t17 4q9 0 18 -3t16 -9q8 -6 12 -15.5 t4 -21.5q0 -11 -3.5 -19.5t-11.5 -14.5q-7 -6 -15 -9t-16 -3h-1.5h-0.5v0v0h-1v0q-10 -1 -18 1.5t-16 8.5q-7 6 -11 14.5t-4 19.5v0v1v0v0v0v1v0v0v2v0z" />
<glyph unicode="&#xe5;" horiz-adv-x="492" d="M314 -12v73q-4 -5 -8.5 -8t-9.5 -6q-2 -1 -4.5 -3t-4.5 -3q-2 -2 -4.5 -3.5t-4.5 -3.5q-13 -9 -25.5 -16.5l-26.5 -15.5q-13 -6 -27.5 -9.5t-28.5 -4.5h-1.5h-1.5h-1.5h-1.5q-23 0 -43.5 5.5t-37.5 15.5q-18 11 -27 28.5t-11 42.5v2v2v1.5v1.5q-1 31 12 53.5t38 36.5 q26 14 53.5 25.5t58.5 21.5q2 1 4 1.5t4 1.5q2 0 4 0.5t4 1.5l24 8l24 8l22.5 9.5t20.5 9.5v6.5v7.5v4t1 4v4.5v4.5v8.5v8.5v4.5t1 5.5v4.5v4.5q0 11 -0.5 22t-2.5 21q-1 11 -4 19t-8 15t-11.5 12t-14.5 9q-7 3 -15.5 5t-16.5 2h-2.5h-3.5q-1 -1 -2.5 -1h-3.5q-3 -1 -6 -1.5 t-6 -1.5q-16 -7 -27.5 -16.5t-17.5 -22.5t-8.5 -26.5t-2.5 -28.5v-4.5v-5.5v-5.5t1 -4.5h-2h-1q-1 -1 -2 -1h-2h-2h-1q-1 -1 -2 -1h-2h-0.5h-0.5q-1 -1 -1.5 -1h-0.5h-2h-1q-4 -1 -8 -1.5t-8 -0.5q-4 -1 -7.5 -1.5t-7.5 -1.5q-7 -1 -14.5 -3l-14.5 -4q-1 3 -1 6.5v7.5v6.5 v7.5v12.5t1 13.5q0 6 1.5 12.5t2.5 13.5q1 1 2 1.5t2 1.5q1 0 2 0.5t2 1.5q2 2 4 3.5t4 2.5q3 2 6.5 4t7.5 4l6.5 4.5l7.5 5.5q15 11 30 20.5t31 18.5t32.5 17t34.5 14q2 0 3.5 0.5t2.5 1.5h2t2 1h2h2h2t2 1h1h2h2h2h1h2h7.5t6.5 -1t6.5 -1.5t7.5 -1.5q24 -7 40 -19.5 t23 -31.5q8 -19 12 -38.5t5 -40.5v-5.5v-4.5v-4v-4v-268l86 -9v-26q-7 -3 -14 -5l-14 -4q-7 -1 -14 -2.5t-14 -3.5q-14 -4 -28 -7.5t-28 -6.5q-14 -2 -28 -6l-28 -8v0zM314 92v144q-7 -5 -16 -8.5l-20 -7.5q-10 -4 -20.5 -7.5t-21.5 -8.5q-19 -7 -36 -16t-32 -20 q-16 -10 -25 -22.5t-12 -26.5q-1 -1 -1 -2.5v-3.5v-2.5v-2.5q0 -12 3.5 -22.5t10.5 -19.5q8 -10 17.5 -15.5t22.5 -7.5q2 -1 4.5 -1.5t4.5 -0.5h4.5h4.5q14 0 27 3t26 10q13 6 25 13.5l24 15.5q1 1 2.5 1.5t2.5 1.5q1 0 1.5 0.5l1.5 1.5l0.5 0.5l1.5 1.5v2v0zM133 639 q0 28 9 49t27 35t38 21.5t42 7.5t42 -7t39 -21q18 -15 27.5 -36.5t9.5 -50.5t-9 -51t-27 -36q-18 -15 -38 -22t-42 -7q-22 -1 -42.5 6t-38.5 22q-19 15 -28 37t-9 51v2v0zM178 639q0 -20 5.5 -33.5t16.5 -22.5t23.5 -13.5t25.5 -4.5v0h1v0v0h0.5h1.5q13 0 25 5t23 14 t16.5 22t5.5 31q0 17 -5.5 30.5t-16.5 22.5t-23 13.5t-26 4.5h-1.5h-0.5v0v0h-1v0q-13 0 -25 -4.5t-23 -13.5t-16.5 -22.5t-5.5 -30.5v2v0z" />
<glyph unicode="&#xe6;" horiz-adv-x="748" d="M381 432q14 11 29 21t32 17t35 11t36 5h2t2 1h2.5h2.5h4.5h4.5q35 0 66.5 -9.5t59.5 -28.5t42 -46t15 -62q0 -5 -0.5 -10.5t-1.5 -11.5l-2 -12t-3 -12l-316 2v-3v-2v-1.5v-0.5v-2v-1v-1.5v-1.5v-8.5v-9.5v-4.5t1 -4.5v-4.5v-4.5q2 -31 10 -60.5t21 -56.5 q14 -27 37.5 -45.5t57.5 -28.5q7 -2 13.5 -3.5t12.5 -2.5t12.5 -1.5t13.5 -0.5q23 0 44.5 6t40.5 18t36 28t32 36l17 -18l-25.5 -33t-26.5 -31q-13 -15 -27.5 -28.5l-29.5 -26.5l-23.5 -6t-22.5 -4q-12 -2 -23 -2.5t-22 -0.5q-28 0 -54 5.5t-50 15.5q-25 11 -46.5 29 t-41.5 43q-6 -4 -12 -8.5t-14 -9.5l-14.5 -10.5t-15.5 -10.5q-2 -1 -4 -2.5t-4 -2.5q-2 -2 -4 -3t-4 -3q-4 -3 -8 -5.5t-8 -4.5q-10 -6 -19.5 -10.5t-18.5 -9.5q-9 -3 -17 -6t-16 -4q-4 -1 -7.5 -1.5t-6.5 -0.5h-3t-4 -1h-3h-4h-2.5h-2.5q-2 1 -3 1h-2h-4.5h-4.5 q-15 2 -28.5 6.5t-26.5 10.5q-13 7 -21 17.5t-13 24.5l-2 6l-2 6q-1 2 -1.5 5t-1.5 6q-1 5 -1.5 10.5t-0.5 10.5q0 22 8 40t24 31q17 14 35.5 25t40.5 18q5 2 9.5 3.5t8.5 2.5q2 1 4.5 1.5t5.5 1.5q2 1 4.5 1.5t4.5 1.5t4.5 1.5t5.5 1.5q2 1 4.5 2t5.5 2q14 4 27.5 8.5 l26.5 8.5q13 5 25.5 10.5t25.5 12.5v6.5v7.5v4t1 4v4.5v4.5v8.5v8.5v4.5t1 5.5v4.5v4.5q0 11 -0.5 22t-2.5 21q-1 11 -4 19t-8 15t-11.5 12t-14.5 9q-7 3 -15.5 5t-16.5 2h-2.5h-3.5q-1 -1 -2.5 -1h-3.5q-3 -1 -6 -1.5t-6 -1.5q-16 -7 -27.5 -16.5t-17.5 -22.5t-8.5 -26.5 t-2.5 -28.5v-4.5v-5.5v-5.5t1 -4.5h-2h-1q-1 -1 -2 -1h-2h-2h-1q-1 -1 -2 -1h-2h-0.5h-0.5q-1 -1 -1.5 -1h-0.5h-2h-1q-4 -1 -8 -1.5t-8 -0.5q-4 -1 -7.5 -1.5t-7.5 -1.5q-7 -1 -14.5 -3l-14.5 -4q-1 3 -1 6.5v7.5v6.5v7.5v12.5t1 13.5q0 6 1.5 12.5t2.5 13.5q6 5 13.5 9.5 t14.5 9.5q8 5 16 11t17 12l18 12t19 12t20 11t20 9l9 3.5l9 3.5q4 1 8.5 3t8.5 3q9 2 17.5 3.5t16.5 1.5q13 0 25 -3.5t23 -9.5t20.5 -17t17.5 -27v2v0zM338 105q-6 14 -10.5 30t-7.5 32q-3 17 -4.5 33.5t-1.5 33.5q-7 -3 -16 -6.5l-20 -7.5q-10 -4 -20.5 -7.5t-21.5 -8.5 q-19 -7 -36 -16t-32 -20q-16 -10 -25 -22.5t-12 -26.5q-1 -1 -1 -2.5v-3.5v-2.5v-2.5q0 -12 3.5 -22.5t10.5 -19.5q8 -10 17.5 -15.5t22.5 -7.5q2 -1 4 -1.5t4 -0.5h4.5h4.5h3h3h2.5h2.5h3t3 1q1 0 2.5 0.5t2.5 0.5q11 2 22.5 6.5t22.5 10.5l22 12t21 13l6.5 4.5t7.5 4.5 q2 1 3.5 2t3.5 3q1 1 3 2t3 2v2v0zM393 326h244q-1 25 -8.5 47t-20.5 41t-34.5 29.5t-50.5 11.5h-1.5h-1.5h-1.5h-1.5q-28 0 -49.5 -10t-37.5 -30t-25.5 -42.5t-11.5 -48.5v2v0z" />
<glyph unicode="&#xe7;" horiz-adv-x="453" d="M123 -180l16 37q3 -2 6.5 -3.5t7.5 -2.5q5 -2 9.5 -4t9.5 -4t11 -4l12 -4t12 -4.5t12 -3.5q2 0 4 -0.5t5 -1.5q2 0 4 -0.5t4 -0.5h4t5 -1h4h4q8 0 14.5 1t12.5 3t11.5 6t9.5 9q1 1 1.5 2.5t1.5 2.5l1.5 3l1.5 3q0 1 0.5 3t0.5 3q1 2 1 3.5v3.5q0 4 -0.5 8.5t-2.5 9.5 q-1 4 -3.5 7.5t-5.5 6.5q-4 4 -8.5 6.5t-9.5 4.5q-5 1 -10.5 2t-10.5 1h-8.5t-9.5 -1q-4 -1 -8.5 -1.5t-8.5 -1.5v92h31v-55q4 1 7.5 1.5t7.5 0.5q4 1 8 1h8q11 0 21 -2t20 -6t18 -11t15 -17q3 -5 6 -9.5t4 -10.5q2 -6 3 -12t1 -12v-2v-2v-1.5v-1.5q-1 -1 -1 -1.5v-1.5 q0 -3 -0.5 -6t-1.5 -6q-1 -2 -2 -5l-2 -6q-2 -6 -5 -11.5t-7 -9.5q-8 -9 -17 -15t-20 -10q-10 -4 -21.5 -6t-23.5 -2h-6t-5 1q-3 0 -6 0.5t-6 0.5q-6 1 -11.5 1.5t-10.5 1.5q-10 2 -19.5 4.5t-18.5 5.5q-10 3 -19 6t-17 6q-4 1 -8 2.5t-8 3.5q-4 1 -7.5 2.5t-6.5 3.5v0z M455 148q-3 -7 -6 -13t-6 -11q-1 -3 -3 -6t-3 -5q-2 -3 -3.5 -5.5t-3.5 -5.5q-1 -1 -2 -2.5t-1 -2.5q-1 -2 -2 -3t-2 -3q-1 -1 -1.5 -2.5t-1.5 -2.5l-1.5 -3l-1.5 -3l-10 -16.5l-10 -16.5l-8.5 -16.5t-9.5 -16.5q-13 -7 -27 -12t-30 -9t-31.5 -6t-32.5 -2q-19 0 -37 2t-35 7 q-18 4 -33.5 10.5t-29.5 16.5q-22 16 -39 38t-28 50t-17 57t-6 60v0.5v1.5v2v2q-1 26 3 52t11 51q8 26 19.5 47t27.5 38q12 14 28.5 25t37.5 20t42.5 14.5t43.5 7.5h2.5t2.5 1h3.5h2.5h3h3h2.5h2.5q17 0 33.5 -2.5t32.5 -7.5q16 -4 29.5 -11.5t25.5 -17.5q8 -7 13.5 -13.5 t8.5 -13.5t4.5 -14.5t1.5 -15.5v-2.5v-2.5q-1 -2 -1 -3v-3v-2.5v-3.5q-1 -1 -1 -2.5v-3.5v-1.5v-1.5q-1 -1 -1 -1.5v-1.5v-2.5v-3.5q-5 -1 -10.5 -2t-10.5 -2q-3 -1 -5.5 -1.5t-4.5 -0.5q-3 -1 -5.5 -1.5t-4.5 -1.5q-3 -1 -5.5 -1.5t-4.5 -0.5q-3 -1 -5.5 -1.5t-5.5 -1.5 t-5.5 -2t-4.5 -1q-3 -1 -5.5 -2t-4.5 -2l-4 6v1.5v2.5v2t1 2v1v2v3.5t1 3.5v3v3v3.5t1 3.5v3v4q0 9 -1.5 18t-4.5 18q-3 8 -9 15t-15 12q-1 1 -3 1.5t-3 1.5q-2 1 -3.5 1.5t-3.5 1.5q-1 1 -3 1.5t-3 1.5q-2 0 -3.5 0.5t-3.5 1.5q-4 0 -7.5 0.5t-6.5 1.5h-2.5t-3.5 1h-2.5 h-3.5q-25 0 -46.5 -10.5t-40.5 -32.5t-30 -46.5t-15 -51.5q-1 -5 -1.5 -10.5t-0.5 -10.5v-10.5v-10.5v-7.5v-6.5v-7.5t1 -6.5q2 -36 12.5 -69.5t29.5 -63.5q18 -31 48 -46.5t71 -15.5v0h1v0v0h0.5h1.5h0.5h1.5q29 0 50.5 6.5t36.5 19.5t29.5 30.5t27.5 39.5q0 1 0.5 2t1.5 2 l0.5 1t1.5 2l2 4l2 4l21 -14v0z" />
<glyph unicode="&#xe8;" horiz-adv-x="469" d="M461 119l-26 -33t-27 -31q-13 -15 -28 -28.5l-30 -26.5l-22.5 -6t-22.5 -4q-12 -2 -23.5 -2.5t-22.5 -0.5q-16 0 -32.5 1.5t-32.5 5.5t-31.5 10t-29.5 15q-28 17 -47.5 40.5t-30.5 52.5q-10 29 -15 59.5t-5 62.5v1.5v1.5v1v2v0.5v1.5v1.5v1.5q0 26 4 51t11 50 q8 24 20.5 45.5t31.5 40.5q12 12 27 21.5t32 16.5q17 6 34.5 10t35.5 5h2t2 1h2h2h4h4q35 0 67.5 -9t61.5 -28t43.5 -46.5t14.5 -62.5v-10.5t-1 -11.5q-1 -3 -1.5 -6t-0.5 -5q-1 -3 -1.5 -6t-1.5 -6l-319 2v-10.5v-9.5v-4.5v-4.5q0 -3 0.5 -5.5t0.5 -4.5q2 -33 9.5 -63.5 t20.5 -59.5t37 -48.5t59 -29.5q7 -2 13.5 -3.5t13.5 -2.5q6 -1 12.5 -1.5t13.5 -0.5q23 0 44.5 6t40.5 18t35.5 28t31.5 36l20 -18v0zM111 326h244q-1 25 -8 47t-20 41t-33.5 29.5t-49.5 11.5h-1.5h-1.5h-2h-2q-29 0 -51 -9.5t-37 -29.5q-15 -19 -24 -42.5t-14 -49.5v2v0z M336 543h-33l-160 100q-4 1 -7.5 3t-6.5 5t-5 6l-4 6q-1 2 -2 3t-2 3q0 1 -1 2.5t-1 2.5q0 2 -0.5 3t-0.5 3v2.5v2.5q0 6 2 11t6 9q5 5 10.5 7t12.5 3q5 0 11 -2t13 -5q6 -3 13 -8t14 -13l141 -144v0z" />
<glyph unicode="&#xe9;" horiz-adv-x="469" d="M461 119l-26 -33t-27 -31q-13 -15 -28 -28.5l-30 -26.5l-22.5 -6t-22.5 -4q-12 -2 -23.5 -2.5t-22.5 -0.5q-16 0 -32.5 1.5t-32.5 5.5t-31.5 10t-29.5 15q-28 17 -47.5 40.5t-30.5 52.5q-10 29 -15 59.5t-5 62.5v1.5v1.5v1v2v0.5v1.5v1.5v1.5q0 26 4 51t11 50 q8 24 20.5 45.5t31.5 40.5q12 12 27 21.5t32 16.5q17 6 34.5 10t35.5 5h2t2 1h2h2h4h4q35 0 67.5 -9t61.5 -28t43.5 -46.5t14.5 -62.5v-10.5t-1 -11.5q-1 -3 -1.5 -6t-0.5 -5q-1 -3 -1.5 -6t-1.5 -6l-319 2v-10.5v-9.5v-4.5v-4.5q0 -3 0.5 -5.5t0.5 -4.5q2 -33 9.5 -63.5 t20.5 -59.5t37 -48.5t59 -29.5q7 -2 13.5 -3.5t13.5 -2.5q6 -1 12.5 -1.5t13.5 -0.5q23 0 44.5 6t40.5 18t35.5 28t31.5 36l20 -18v0zM111 326h244q-1 25 -8 47t-20 41t-33.5 29.5t-49.5 11.5h-1.5h-1.5h-2h-2q-29 0 -51 -9.5t-37 -29.5q-15 -19 -24 -42.5t-14 -49.5v2v0z M164 543l141 146q7 6 13.5 11t13.5 8q6 3 12 5t12 2q7 0 12.5 -2t9.5 -7q5 -4 7 -9.5t2 -11.5v-2.5t-1 -2.5q0 -2 -0.5 -3t-0.5 -3q0 -1 -0.5 -2.5t-1.5 -2.5l-1.5 -3l-1.5 -3q-2 -3 -4.5 -6t-5.5 -6t-6 -5.5t-7 -4.5l-160 -98h-33v0z" />
<glyph unicode="&#xea;" horiz-adv-x="469" d="M461 119l-26 -33t-27 -31q-13 -15 -28 -28.5l-30 -26.5l-22.5 -6t-22.5 -4q-12 -2 -23.5 -2.5t-22.5 -0.5q-16 0 -32.5 1.5t-32.5 5.5t-31.5 10t-29.5 15q-28 17 -47.5 40.5t-30.5 52.5q-10 29 -15 59.5t-5 62.5v1.5v1.5v1v2v0.5v1.5v1.5v1.5q0 26 4 51t11 50 q8 24 20.5 45.5t31.5 40.5q12 12 27 21.5t32 16.5q17 6 34.5 10t35.5 5h2t2 1h2h2h4h4q35 0 67.5 -9t61.5 -28t43.5 -46.5t14.5 -62.5v-10.5t-1 -11.5q-1 -3 -1.5 -6t-0.5 -5q-1 -3 -1.5 -6t-1.5 -6l-319 2v-10.5v-9.5v-4.5v-4.5q0 -3 0.5 -5.5t0.5 -4.5q2 -33 9.5 -63.5 t20.5 -59.5t37 -48.5t59 -29.5q7 -2 13.5 -3.5t13.5 -2.5q6 -1 12.5 -1.5t13.5 -0.5q23 0 44.5 6t40.5 18t35.5 28t31.5 36l20 -18v0zM111 326h244q-1 25 -8 47t-20 41t-33.5 29.5t-49.5 11.5h-1.5h-1.5h-2h-2q-29 0 -51 -9.5t-37 -29.5q-15 -19 -24 -42.5t-14 -49.5v2v0z M107 543l114 170h58l114 -170h-30l-113 102l-113 -102h-30v0z" />
<glyph unicode="&#xeb;" horiz-adv-x="469" d="M461 119l-26 -33t-27 -31q-13 -15 -28 -28.5l-30 -26.5l-22.5 -6t-22.5 -4q-12 -2 -23.5 -2.5t-22.5 -0.5q-16 0 -32.5 1.5t-32.5 5.5t-31.5 10t-29.5 15q-28 17 -47.5 40.5t-30.5 52.5q-10 29 -15 59.5t-5 62.5v1.5v1.5v1v2v0.5v1.5v1.5v1.5q0 26 4 51t11 50 q8 24 20.5 45.5t31.5 40.5q12 12 27 21.5t32 16.5q17 6 34.5 10t35.5 5h2t2 1h2h2h4h4q35 0 67.5 -9t61.5 -28t43.5 -46.5t14.5 -62.5v-10.5t-1 -11.5q-1 -3 -1.5 -6t-0.5 -5q-1 -3 -1.5 -6t-1.5 -6l-319 2v-10.5v-9.5v-4.5v-4.5q0 -3 0.5 -5.5t0.5 -4.5q2 -33 9.5 -63.5 t20.5 -59.5t37 -48.5t59 -29.5q7 -2 13.5 -3.5t13.5 -2.5q6 -1 12.5 -1.5t13.5 -0.5q23 0 44.5 6t40.5 18t35.5 28t31.5 36l20 -18v0zM111 326h244q-1 25 -8 47t-20 41t-33.5 29.5t-49.5 11.5h-1.5h-1.5h-2h-2q-29 0 -51 -9.5t-37 -29.5q-15 -19 -24 -42.5t-14 -49.5v2v0z M115 617q0 10 4 19t11 15q8 6 16 9t17 4q9 0 18 -3t16 -9q8 -6 12 -15.5t4 -21.5v-1v0q0 -11 -3.5 -19.5t-11.5 -14.5q-7 -6 -15.5 -8.5t-17.5 -2.5q-10 -1 -18.5 2t-16.5 9q-7 6 -11 14.5t-4 20.5v2v0zM287 617q0 10 4 19t11 15q8 6 16 9t17 4q9 0 18 -3t16 -9 q8 -6 12 -15.5t4 -21.5q0 -11 -3.5 -19.5t-11.5 -14.5q-7 -6 -15 -9t-16 -3h-1.5h-0.5v0v0h-1v0q-10 -1 -18 1.5t-16 8.5q-7 6 -11 14.5t-4 19.5v0v1v0v0v0v1v0v0v2v0z" />
<glyph unicode="&#xec;" horiz-adv-x="303" d="M119 412l-78 12v27q14 1 26.5 3.5t25.5 5.5l25.5 6l25.5 6q8 2 15.5 3.5t14.5 2.5l8 2l8 2q3 1 7 2l8 2q0 -3 -0.5 -6t-0.5 -5q-1 -3 -1 -6v-6v-6v-5v-6v-6v-4v-4v-4v-4v-377l82 -12v-35h-250v35l84 12v365v0zM234 543h-33l-160 100q-4 1 -7.5 3t-6.5 5t-5 6l-4 6 q-1 2 -2 3t-2 3q0 1 -1 2.5t-1 2.5q0 2 -0.5 3t-0.5 3v2.5v2.5q0 6 2 11t6 9q5 5 10.5 7t12.5 3q5 0 11 -2t13 -5t14 -8t14 -13l140 -144v0z" />
<glyph unicode="&#xed;" horiz-adv-x="303" d="M119 412l-78 12v27q14 1 26.5 3.5t25.5 5.5l25.5 6l25.5 6q8 2 15.5 3.5t14.5 2.5l8 2l8 2q3 1 7 2l8 2q0 -3 -0.5 -6t-0.5 -5q-1 -3 -1 -6v-6v-6v-5v-6v-6v-4v-4v-4v-4v-377l82 -12v-35h-250v35l84 12v365v0zM63 543l140 146q7 6 13.5 11t13.5 8t13 5t11 2q7 0 12.5 -2 t9.5 -7q5 -4 7 -9.5t3 -11.5v-2.5t-1 -2.5q0 -2 -0.5 -3t-0.5 -3q0 -1 -0.5 -2.5t-1.5 -2.5l-1.5 -3l-1.5 -3q-2 -3 -4.5 -6t-5.5 -6t-6 -5.5t-7 -4.5l-160 -98h-33v0z" />
<glyph unicode="&#xee;" horiz-adv-x="303" d="M119 412l-78 12v27q14 1 26.5 3.5t25.5 5.5l25.5 6l25.5 6q8 2 15.5 3.5t14.5 2.5l8 2l8 2q3 1 7 2l8 2q0 -3 -0.5 -6t-0.5 -5q-1 -3 -1 -6v-6v-6v-5v-6v-6v-4v-4v-4v-4v-377l82 -12v-35h-250v35l84 12v365v0zM6 543l113 170h59l113 -170h-29l-114 102l-113 -102h-29v0z " />
<glyph unicode="&#xef;" horiz-adv-x="303" d="M119 412l-78 12v27q14 1 26.5 3.5t25.5 5.5l25.5 6l25.5 6q8 2 15.5 3.5t14.5 2.5l8 2l8 2q3 1 7 2l8 2q0 -3 -0.5 -6t-0.5 -5q-1 -3 -1 -6v-6v-6v-5v-6v-6v-4v-4v-4v-4v-377l82 -12v-35h-250v35l84 12v365v0zM14 617q0 10 4 19t11 15q8 6 16 9t17 4v0h1v0v0h0.5h1.5 q8 -1 16 -4t15 -9q8 -6 11.5 -15t3.5 -21v-1v0q0 -11 -3.5 -19.5t-11.5 -14.5q-7 -6 -15 -8.5t-17 -2.5q-10 -1 -18.5 2t-16.5 9q-7 6 -11 14.5t-4 20.5v2v0zM186 617q0 10 4 19t11 15q8 6 16 9t17 4v0h1v0v0h0.5h1.5q8 -1 16 -4t15 -9q8 -6 11.5 -15t3.5 -21t-3.5 -20.5 t-11.5 -14.5q-7 -6 -16 -8.5t-18 -2.5q-9 -1 -17 1.5t-16 8.5q-7 6 -11 14.5t-4 19.5v0v1v0v0v0v1v0v0v2v0z" />
<glyph unicode="&#xf0;" horiz-adv-x="531" d="M375 467q-1 1 -2 2.5t-2 3.5t-1.5 4.5t-1.5 5.5q-7 17 -13.5 34.5t-13.5 34.5q-4 8 -7.5 16.5l-7.5 17.5l-8 16.5t-9 16.5l-123 -62l-18 37l117 60l-4.5 6.5t-4.5 7.5q-3 3 -5.5 6.5t-4.5 7.5l-5.5 7.5t-4.5 7.5q-3 3 -5.5 6.5l-5.5 7.5l-6 8l-6 8q-1 2 -2.5 4t-3.5 5 q-1 2 -2.5 4t-3.5 4l31 31q11 -13 22.5 -24.5l22.5 -22.5l22 -24t21 -24l107 54l16 -37l-96 -49q23 -38 43.5 -79.5t39.5 -85.5q19 -45 31 -90t17 -91v-6t1 -5v-6v-6v-6t1 -6v-6v-6q0 -15 -1 -29.5t-3 -28.5t-5 -28t-7 -28q-7 -25 -19 -47t-29 -42q-17 -19 -38 -32t-46 -20 q-7 -2 -14.5 -4.5t-15.5 -3.5q-7 -2 -14.5 -2.5t-15.5 -1.5h-4t-3 -1h-4h-4h-4t-3 -1h-4h-4q-15 0 -29 1.5t-28 4.5t-27.5 6.5t-25.5 9.5q-30 14 -52 37.5t-37 54.5q-15 32 -22 65.5t-7 68.5q-1 32 5 62.5t18 59.5t30.5 52t43.5 39q15 10 31.5 17.5t33.5 11.5q17 5 34.5 7.5 t35.5 2.5q7 0 14 -0.5t14 -0.5q6 -1 13 -2l14 -2q14 -3 27.5 -7t26.5 -9v2v0zM283 18q32 1 54 13t35 36t21 49.5t11 53.5v6t1 7v6.5v6.5v6t1 7v6v6v2v2v1v2v4v4q-1 8 -1.5 15.5t-0.5 15.5q-1 8 -1.5 16t-2.5 16q-4 29 -14 56t-25 52t-39.5 37.5t-57.5 12.5h-1.5h-1.5h-1.5 h-1.5q-36 -1 -61.5 -14.5t-39.5 -39.5q-14 -25 -21.5 -53.5t-9.5 -58.5q-1 -3 -1 -5.5v-4.5v-4.5v-4.5v-8.5v-9.5q0 -4 0.5 -8.5t1.5 -9.5q0 -8 1 -16.5l2 -17.5t2.5 -17.5t3.5 -16.5q5 -28 15.5 -54.5t26.5 -50.5q15 -24 38.5 -36t54.5 -12h1.5h1.5h1.5t1.5 1h1.5h1.5h1.5 h1.5v2v0z" />
<glyph unicode="&#xf1;" horiz-adv-x="605" d="M29 0v35l86 12v361l-86 12v23q19 2 37.5 6.5t36.5 9.5q9 3 18 5.5t18 5.5q8 2 17 5l18 6q2 0 3 0.5l3 1.5q1 0 2.5 0.5t2.5 0.5l6 2l6 2v-84l127 78q2 -1 4 -1h5h4h4h4h5h4h4q42 0 72 -9.5t47 -29.5q17 -19 26 -52t9 -79v-264l88 -12v-35h-254v35l82 12v254v-1v1v0.5v1.5 q0 20 -3.5 38t-9.5 35q-7 17 -21 28t-35 16h-2t-2 1h-2h-2h-1.5t-1.5 1h-1.5h-1.5h-2t-2 1h-2h-2h-2h-1h-2h-2q-13 0 -26 -2t-25 -7q-13 -4 -25 -9.5l-24 -10.5q-1 -1 -2 -1.5l-1 -0.5h-0.5h-0.5q-1 -1 -1.5 -1h-0.5q-4 -1 -7.5 -2.5t-6.5 -3.5q-1 -1 -3 -1.5t-3 -1.5 q-2 -1 -3.5 -1.5t-3.5 -1.5v-332l84 -12v-35h-252v0zM449 688q-7 -29 -15 -48.5t-19 -30.5q-10 -11 -24 -16.5t-31 -5.5q-8 0 -17 1l-18 2q-10 2 -20.5 4.5t-21.5 5.5q-3 1 -6 1.5t-6 1.5q-3 0 -5.5 0.5t-5.5 1.5q-5 1 -9.5 1.5t-9.5 0.5q-9 0 -16 -2t-13 -7 q-6 -4 -10.5 -13t-8.5 -21l-25 2q6 26 14.5 45.5t18.5 30.5q11 11 25 17t32 6q8 0 16 -1t17 -3q9 -1 19.5 -3.5t21.5 -5.5q6 -1 12 -2.5t11 -2.5t10.5 -2t9.5 -1q8 0 15 2.5t13 6.5q6 5 10.5 13t8.5 20l27 2v0z" />
<glyph unicode="&#xf2;" horiz-adv-x="531" d="M273 -14h-1.5h-0.5h-1.5h-0.5h-1.5h-0.5h-1.5h-0.5q-57 0 -100 17t-72 51q-29 35 -43.5 80t-14.5 100q-1 53 12.5 97t41.5 78q28 35 69 54t96 23h3.5t2.5 1h3.5h2.5h6h6q51 0 91.5 -18t69.5 -55t44 -82t15 -98q-1 -52 -15 -96t-43 -79q-28 -35 -70 -53t-97 -20v0zM283 18 q32 1 54 13t35 36t21 49.5t11 53.5v6t1 7v6.5v6.5v6t1 7v6v6v2v2v1v2v4v4q-1 8 -1.5 15.5t-0.5 15.5q-1 8 -1.5 16t-2.5 16q-4 29 -14 56t-25 52t-39.5 37.5t-57.5 12.5h-1.5h-1.5h-1.5h-1.5q-36 -1 -61.5 -14.5t-39.5 -39.5q-14 -25 -21.5 -53.5t-9.5 -58.5q-1 -3 -1 -5.5 v-4.5v-4.5v-4.5v-8.5v-9.5q0 -4 0.5 -8.5t1.5 -9.5q0 -8 1 -16.5l2 -17.5t2.5 -17.5t3.5 -16.5q5 -28 15.5 -54.5t26.5 -50.5q15 -24 38.5 -36t54.5 -12h1.5h1.5h1.5t1.5 1h1.5h1.5h1.5h1.5v2v0zM352 543h-34l-160 100q-4 1 -7.5 3t-6.5 5t-5 6l-4 6q-1 2 -2 3t-2 3 q0 1 -1 2.5t-1 2.5q0 2 -0.5 3t-0.5 3v2.5v2.5q0 6 2 11t6 9q5 5 10.5 7t12.5 3q5 0 11 -2t13 -5t14 -8t14 -13l141 -144v0z" />
<glyph unicode="&#xf3;" horiz-adv-x="531" d="M273 -14h-1.5h-0.5h-1.5h-0.5h-1.5h-0.5h-1.5h-0.5q-57 0 -100 17t-72 51q-29 35 -43.5 80t-14.5 100q-1 53 12.5 97t41.5 78q28 35 69 54t96 23h3.5t2.5 1h3.5h2.5h6h6q51 0 91.5 -18t69.5 -55t44 -82t15 -98q-1 -52 -15 -96t-43 -79q-28 -35 -70 -53t-97 -20v0zM283 18 q32 1 54 13t35 36t21 49.5t11 53.5v6t1 7v6.5v6.5v6t1 7v6v6v2v2v1v2v4v4q-1 8 -1.5 15.5t-0.5 15.5q-1 8 -1.5 16t-2.5 16q-4 29 -14 56t-25 52t-39.5 37.5t-57.5 12.5h-1.5h-1.5h-1.5h-1.5q-36 -1 -61.5 -14.5t-39.5 -39.5q-14 -25 -21.5 -53.5t-9.5 -58.5q-1 -3 -1 -5.5 v-4.5v-4.5v-4.5v-8.5v-9.5q0 -4 0.5 -8.5t1.5 -9.5q0 -8 1 -16.5l2 -17.5t2.5 -17.5t3.5 -16.5q5 -28 15.5 -54.5t26.5 -50.5q15 -24 38.5 -36t54.5 -12h1.5h1.5h1.5t1.5 1h1.5h1.5h1.5h1.5v2v0zM180 543l140 146q7 6 13.5 11t13.5 8t13 5t11 2q7 0 12.5 -2t9.5 -7 q5 -4 7 -9.5t3 -11.5v-2.5t-1 -2.5q0 -2 -0.5 -3t-0.5 -3q0 -1 -0.5 -2.5t-1.5 -2.5l-1.5 -3l-1.5 -3q-2 -3 -4.5 -6t-5.5 -6t-6 -5.5t-7 -4.5l-160 -98h-33v0z" />
<glyph unicode="&#xf4;" horiz-adv-x="531" d="M273 -14h-1.5h-0.5h-1.5h-0.5h-1.5h-0.5h-1.5h-0.5q-57 0 -100 17t-72 51q-29 35 -43.5 80t-14.5 100q-1 53 12.5 97t41.5 78q28 35 69 54t96 23h3.5t2.5 1h3.5h2.5h6h6q51 0 91.5 -18t69.5 -55t44 -82t15 -98q-1 -52 -15 -96t-43 -79q-28 -35 -70 -53t-97 -20v0zM283 18 q32 1 54 13t35 36t21 49.5t11 53.5v6t1 7v6.5v6.5v6t1 7v6v6v2v2v1v2v4v4q-1 8 -1.5 15.5t-0.5 15.5q-1 8 -1.5 16t-2.5 16q-4 29 -14 56t-25 52t-39.5 37.5t-57.5 12.5h-1.5h-1.5h-1.5h-1.5q-36 -1 -61.5 -14.5t-39.5 -39.5q-14 -25 -21.5 -53.5t-9.5 -58.5q-1 -3 -1 -5.5 v-4.5v-4.5v-4.5v-8.5v-9.5q0 -4 0.5 -8.5t1.5 -9.5q0 -8 1 -16.5l2 -17.5t2.5 -17.5t3.5 -16.5q5 -28 15.5 -54.5t26.5 -50.5q15 -24 38.5 -36t54.5 -12h1.5h1.5h1.5t1.5 1h1.5h1.5h1.5h1.5v2v0zM123 543l113 170h59l113 -170h-29l-113 102l-114 -102h-29v0z" />
<glyph unicode="&#xf5;" horiz-adv-x="531" d="M273 -14h-1.5h-0.5h-1.5h-0.5h-1.5h-0.5h-1.5h-0.5q-57 0 -100 17t-72 51q-29 35 -43.5 80t-14.5 100q-1 53 12.5 97t41.5 78q28 35 69 54t96 23h3.5t2.5 1h3.5h2.5h6h6q51 0 91.5 -18t69.5 -55t44 -82t15 -98q-1 -52 -15 -96t-43 -79q-28 -35 -70 -53t-97 -20v0zM283 18 q32 1 54 13t35 36t21 49.5t11 53.5v6t1 7v6.5v6.5v6t1 7v6v6v2v2v1v2v4v4q-1 8 -1.5 15.5t-0.5 15.5q-1 8 -1.5 16t-2.5 16q-4 29 -14 56t-25 52t-39.5 37.5t-57.5 12.5h-1.5h-1.5h-1.5h-1.5q-36 -1 -61.5 -14.5t-39.5 -39.5q-14 -25 -21.5 -53.5t-9.5 -58.5q-1 -3 -1 -5.5 v-4.5v-4.5v-4.5v-8.5v-9.5q0 -4 0.5 -8.5t1.5 -9.5q0 -8 1 -16.5l2 -17.5t2.5 -17.5t3.5 -16.5q5 -28 15.5 -54.5t26.5 -50.5q15 -24 38.5 -36t54.5 -12h1.5h1.5h1.5t1.5 1h1.5h1.5h1.5h1.5v2v0zM406 688q-7 -29 -15 -48.5t-19 -30.5q-10 -11 -24 -16.5t-31 -5.5q-8 0 -17 1 l-18 2q-10 2 -20.5 4.5t-21.5 5.5q-3 1 -6 1.5t-6 1.5q-3 0 -5.5 0.5t-5.5 1.5q-5 1 -9.5 1.5t-9.5 0.5q-9 0 -16 -2t-13 -7q-6 -4 -10.5 -13t-8.5 -21l-25 2q6 26 14.5 45.5t18.5 30.5q11 11 25 17t32 6q8 0 16 -1t17 -3q9 -1 19.5 -3.5t21.5 -5.5q6 -1 12 -2.5t11 -2.5 t10.5 -2t9.5 -1q8 0 15 2.5t13 6.5q6 5 10.5 13t8.5 20l27 2v0z" />
<glyph unicode="&#xf6;" horiz-adv-x="531" d="M273 -14h-1.5h-0.5h-1.5h-0.5h-1.5h-0.5h-1.5h-0.5q-57 0 -100 17t-72 51q-29 35 -43.5 80t-14.5 100q-1 53 12.5 97t41.5 78q28 35 69 54t96 23h3.5t2.5 1h3.5h2.5h6h6q51 0 91.5 -18t69.5 -55t44 -82t15 -98q-1 -52 -15 -96t-43 -79q-28 -35 -70 -53t-97 -20v0zM283 18 q32 1 54 13t35 36t21 49.5t11 53.5v6t1 7v6.5v6.5v6t1 7v6v6v2v2v1v2v4v4q-1 8 -1.5 15.5t-0.5 15.5q-1 8 -1.5 16t-2.5 16q-4 29 -14 56t-25 52t-39.5 37.5t-57.5 12.5h-1.5h-1.5h-1.5h-1.5q-36 -1 -61.5 -14.5t-39.5 -39.5q-14 -25 -21.5 -53.5t-9.5 -58.5q-1 -3 -1 -5.5 v-4.5v-4.5v-4.5v-8.5v-9.5q0 -4 0.5 -8.5t1.5 -9.5q0 -8 1 -16.5l2 -17.5t2.5 -17.5t3.5 -16.5q5 -28 15.5 -54.5t26.5 -50.5q15 -24 38.5 -36t54.5 -12h1.5h1.5h1.5t1.5 1h1.5h1.5h1.5h1.5v2v0zM131 617q0 10 4 19t11 15q8 6 16 9t17 4q9 0 18 -3t16 -9q8 -6 12 -15.5 t4 -21.5t-3.5 -20.5t-11.5 -14.5q-7 -6 -15.5 -8.5t-17.5 -2.5q-10 -1 -18.5 2t-16.5 9q-7 6 -11 14.5t-4 20.5v2v0zM303 617q0 10 4 19t11 15q8 6 16 9t17 4v0h1v0v0h0.5h1.5q8 -1 16 -4t15 -9q8 -6 11.5 -15t3.5 -21t-3.5 -20.5t-11.5 -14.5q-7 -6 -16 -8.5t-18 -2.5 q-9 -1 -17 1.5t-16 8.5q-7 6 -11 14.5t-4 19.5v0v1v0v0v0v1v0v0v2v0z" />
<glyph unicode="&#xf7;" />
<glyph unicode="&#xf8;" horiz-adv-x="531" d="M35 -25l-21 19l68 72q-12 16 -21 36.5t-15 42.5q-6 23 -9.5 46.5t-3.5 47.5q0 28 4.5 55t14.5 53q9 26 24 48t35 39q16 14 34 24t39 17q20 7 41 10.5t43 3.5q23 0 44.5 -3.5t42.5 -11.5q21 -7 39 -19t34 -27l66 72l24 -21l-69 -73q4 -8 8 -15t8 -13q3 -7 6.5 -14t6.5 -14 q6 -14 10 -29t6 -30q1 -7 1.5 -13.5t1.5 -13.5v-6.5t1 -6.5v-7.5v-6.5v-2.5v-3.5v-2v-2q-1 -24 -4.5 -47.5t-11.5 -46.5q-7 -22 -19 -42.5t-27 -37.5q-15 -16 -33.5 -29t-39.5 -21q-22 -7 -43.5 -11.5t-44.5 -5.5h-2h-2h-2h-2q-23 0 -45.5 3.5t-44.5 10.5t-40.5 17.5 t-34.5 25.5l-67 -68v0zM154 100q8 -20 21 -35.5t29 -27.5q17 -12 34 -17.5t36 -5.5h8t8 1q3 0 7 1l8 2l8 2t8 3q3 2 7 4l8 4q21 12 35 30.5t21 42.5q8 24 11.5 49t3.5 51q0 15 -0.5 30t-2.5 30q-1 8 -2 15t-1 14l-2 13.5l-2 13.5q-1 3 -1.5 6t-0.5 6q-1 3 -1.5 6t-0.5 6 l-239 -244v0zM145 131l236 248q-6 10 -13.5 20l-15.5 20q-9 10 -19.5 17.5t-23.5 12.5l-6 2t-5 2q-3 1 -6 1.5t-6 1.5q-3 0 -6 0.5t-6 0.5q-4 1 -7 1h-6q-12 0 -23.5 -2t-22.5 -6t-21 -10t-18 -14q-15 -14 -25 -31.5t-16 -37.5t-9 -41t-3 -43q0 -19 1.5 -38.5t4.5 -38.5 t7.5 -35.5l8.5 -31.5v2v0z" />
<glyph unicode="&#xf9;" horiz-adv-x="588" d="M490 475v-407l84 -9v-26q-7 -3 -14 -5l-14 -4q-7 -1 -14 -2.5t-14 -3.5q-14 -4 -28 -7.5t-28 -7.5q-13 -3 -27.5 -7l-28.5 -8v84l-127 -78h-4.5t-4.5 -1h-4h-4h-8h-8q-42 0 -71.5 9t-46.5 28q-17 20 -25.5 53t-8.5 79v268l-88 11v34h172v-299q0 -25 3 -45.5t10 -37.5 t23.5 -27.5t41.5 -14.5h1.5h1.5q0 -1 0.5 -1h1.5h1.5h1.5h0.5h1.5h2h2h3.5h2.5q17 0 34 3.5t33 10.5l31.5 15.5t31.5 16.5v334l-82 11v34h166v0zM371 543h-33l-160 100q-4 1 -7.5 3t-6.5 5t-5 6l-4 6q-1 2 -2 3t-2 3q0 1 -1 2.5t-1 2.5q0 2 -0.5 3t-0.5 3v2.5v2.5q0 6 2 11 t6 9q5 5 10.5 7t12.5 3q5 0 11 -2t13 -5q6 -3 13 -8t14 -13l141 -144v0z" />
<glyph unicode="&#xfa;" horiz-adv-x="588" d="M490 475v-407l84 -9v-26q-7 -3 -14 -5l-14 -4q-7 -1 -14 -2.5t-14 -3.5q-14 -4 -28 -7.5t-28 -7.5q-13 -3 -27.5 -7l-28.5 -8v84l-127 -78h-4.5t-4.5 -1h-4h-4h-8h-8q-42 0 -71.5 9t-46.5 28q-17 20 -25.5 53t-8.5 79v268l-88 11v34h172v-299q0 -25 3 -45.5t10 -37.5 t23.5 -27.5t41.5 -14.5h1.5h1.5q0 -1 0.5 -1h1.5h1.5h1.5h0.5h1.5h2h2h3.5h2.5q17 0 34 3.5t33 10.5l31.5 15.5t31.5 16.5v334l-82 11v34h166v0zM199 543l141 146q7 6 13.5 11t13.5 8q6 3 12 5t12 2q7 0 12.5 -2t9.5 -7q5 -4 7 -9.5t2 -11.5v-2.5t-1 -2.5q0 -2 -0.5 -3 t-0.5 -3q0 -1 -0.5 -2.5t-1.5 -2.5q0 -2 -0.5 -3l-1.5 -3q-2 -3 -4.5 -6t-5.5 -6t-6 -5.5t-7 -4.5l-161 -98h-33v0z" />
<glyph unicode="&#xfb;" horiz-adv-x="588" d="M490 475v-407l84 -9v-26q-7 -3 -14 -5l-14 -4q-7 -1 -14 -2.5t-14 -3.5q-14 -4 -28 -7.5t-28 -7.5q-13 -3 -27.5 -7l-28.5 -8v84l-127 -78h-4.5t-4.5 -1h-4h-4h-8h-8q-42 0 -71.5 9t-46.5 28q-17 20 -25.5 53t-8.5 79v268l-88 11v34h172v-299q0 -25 3 -45.5t10 -37.5 t23.5 -27.5t41.5 -14.5h1.5h1.5q0 -1 0.5 -1h1.5h1.5h1.5h0.5h1.5h2h2h3.5h2.5q17 0 34 3.5t33 10.5l31.5 15.5t31.5 16.5v334l-82 11v34h166v0zM143 543l113 170h58l114 -170h-30l-113 102l-113 -102h-29v0z" />
<glyph unicode="&#xfc;" horiz-adv-x="588" d="M490 475v-407l84 -9v-26q-7 -3 -14 -5l-14 -4q-7 -1 -14 -2.5t-14 -3.5q-14 -4 -28 -7.5t-28 -7.5q-13 -3 -27.5 -7l-28.5 -8v84l-127 -78h-4.5t-4.5 -1h-4h-4h-8h-8q-42 0 -71.5 9t-46.5 28q-17 20 -25.5 53t-8.5 79v268l-88 11v34h172v-299q0 -25 3 -45.5t10 -37.5 t23.5 -27.5t41.5 -14.5h1.5h1.5q0 -1 0.5 -1h1.5h1.5h1.5h0.5h1.5h2h2h3.5h2.5q17 0 34 3.5t33 10.5l31.5 15.5t31.5 16.5v334l-82 11v34h166v0zM150 617q0 10 4 19t11 15q8 6 16 9t17 4q9 0 18 -3t16 -9q8 -6 12 -15.5t4 -21.5v-1v0q0 -11 -3.5 -19.5t-11.5 -14.5 q-7 -6 -15.5 -8.5t-17.5 -2.5q-10 -1 -18.5 2t-16.5 9q-7 6 -11 14.5t-4 20.5v2v0zM322 617q0 10 4 19t11 15q8 6 16 9t17 4q9 0 18 -3t16 -9q8 -6 12 -15.5t4 -21.5q0 -11 -3.5 -19.5t-11.5 -14.5q-7 -6 -15 -9t-16 -3h-1.5h-0.5v0v0h-1v0q-10 -1 -18 1.5t-16 8.5 q-7 6 -11 14.5t-4 19.5v0v1v0v0v0v1v0v0v2v0z" />
<glyph unicode="&#xfd;" />
<glyph unicode="&#xfe;" horiz-adv-x="531" d="M166 -145l100 -13v-35h-272v35l88 13v844l-78 12v27q5 0 10 0.5t11 1.5l10 2l10 2l10 2t11 3l10 2l10 2q6 2 12 3.5t12 2.5q3 1 6 1.5t7 1.5q3 1 6 1.5t6 1.5l8 2l8 2q2 0 4 0.5t5 1.5q2 0 4 0.5t4 1.5v-4v-3q-1 -2 -1 -4v-4v-7.5v-7.5v-2v-2q-1 -1 -1 -2v-2v-4v-4v-4v-4 v-4v-4v-303q3 1 6.5 4t7.5 6q2 2 4 3.5t4 3.5l3 3t4 3q11 9 23.5 18t25.5 17t26.5 12.5t26.5 5.5h2h2h2t2 1h1h2h2h2q28 0 53.5 -9t48.5 -26q23 -18 39 -39.5t26 -47.5l6 -20.5t5 -21.5q2 -10 3.5 -20.5t2.5 -21.5v-2.5t1 -3.5v-2.5v-3.5v-5.5v-4.5v-2v-2v-2v-2 q-1 -40 -11 -76.5t-30 -71.5q-19 -34 -48.5 -58t-67.5 -37q-8 -3 -15.5 -4.5t-15.5 -1.5q-7 -1 -14.5 -1.5t-15.5 -0.5q-7 0 -14 0.5t-14 1.5q-7 0 -14 1l-14 2l-14.5 4l-14.5 4t-14 4.5t-14 5.5v-166v0zM166 90q8 -9 16 -15.5t17 -12.5q8 -6 16 -10.5t16 -8.5q17 -7 32 -11 t30 -4q26 0 48 11t39 33q17 23 26 55t10 74q0 44 -9.5 81.5t-29.5 70.5q-19 33 -45 49.5t-59 16.5q-12 0 -24.5 -3t-26.5 -8q-13 -5 -27.5 -13.5t-28.5 -19.5v-285v0z" />
<glyph unicode="&#xff;" horiz-adv-x="494" d="M238 23l-181 405l-75 11v36h245v-36l-82 -11l136 -313l30 75l29 77t26 79t21 80l-73 13v36h198v-36l-69 -11q-3 -10 -6 -18l-6 -16t-5.5 -16t-4.5 -16l-45.5 -121.5t-49.5 -120.5q-25 -60 -55.5 -116.5t-65.5 -110.5q-2 -4 -5 -9l-7 -12l-8.5 -14.5t-9.5 -14.5l-6 -8 l-6 -8q-1 -2 -3 -4t-3 -4q-2 -2 -3.5 -4t-3.5 -4q-4 -5 -8 -9t-8 -7t-8 -5t-7 -3h-1.5h-0.5v0v0q-1 0 -1 -0.5v-0.5h-1.5h-0.5v0v0h-1v0h-3t-3 1q-2 0 -3.5 0.5t-3.5 0.5q-1 0 -3 0.5t-3 0.5q-2 1 -3.5 1.5t-3.5 0.5q-1 1 -2.5 1.5t-2.5 0.5l-3 1.5t-2 1.5q-3 1 -5.5 2 t-4.5 2q-1 1 -3 1.5t-3 1.5q-2 1 -3.5 1.5t-3.5 1.5q-3 1 -6 2.5l-5 2.5q32 20 59 43.5t50 50.5t44.5 56t41.5 60v2v0zM113 617q0 10 4 19t11 15q8 6 16 9t17 4q9 0 18 -3t16 -9q8 -6 12 -15.5t4 -21.5v-1v0q0 -11 -3.5 -19.5t-11.5 -14.5q-7 -6 -15.5 -8.5t-17.5 -2.5 q-10 -1 -18.5 2t-16.5 9q-7 6 -11 14.5t-4 20.5v2v0zM285 617q0 10 4 19t11 15q8 6 16 9t17 4q9 0 18 -3t16 -9q8 -6 12 -15.5t4 -21.5q0 -11 -3.5 -19.5t-11.5 -14.5q-7 -6 -15 -9t-16 -3h-1.5h-0.5v0v0h-1v0q-10 -1 -18 1.5t-16 8.5q-7 6 -11 14.5t-4 19.5v0v1v0v0v0v1v0 v0v2v0z" />
<glyph unicode="&#x102;" />
<glyph unicode="&#x103;" />
<glyph unicode="&#x104;" />
<glyph unicode="&#x105;" />
<glyph unicode="&#x106;" />
<glyph unicode="&#x107;" />
<glyph unicode="&#x10c;" />
<glyph unicode="&#x10d;" />
<glyph unicode="&#x10e;" />
<glyph unicode="&#x10f;" />
<glyph unicode="&#x110;" />
<glyph unicode="&#x111;" />
<glyph unicode="&#x118;" />
<glyph unicode="&#x119;" />
<glyph unicode="&#x11a;" />
<glyph unicode="&#x11b;" />
<glyph unicode="&#x11e;" />
<glyph unicode="&#x11f;" />
<glyph unicode="&#x130;" />
<glyph unicode="&#x131;" horiz-adv-x="303" d="M119 412l-78 12v27q14 1 26.5 3.5t25.5 5.5l25.5 6l25.5 6q8 2 15.5 3.5t14.5 2.5l8 2l8 2q3 1 7 2l8 2q0 -3 -0.5 -6t-0.5 -5q-1 -3 -1 -6v-6v-6v-5v-6v-6v-4v-4v-4v-4v-377l82 -12v-35h-250v35l84 12v365v0z" />
<glyph unicode="&#x139;" />
<glyph unicode="&#x13a;" />
<glyph unicode="&#x13d;" />
<glyph unicode="&#x13e;" />
<glyph unicode="&#x13f;" />
<glyph unicode="&#x140;" />
<glyph unicode="&#x141;" horiz-adv-x="500" />
<glyph unicode="&#x142;" horiz-adv-x="500" />
<glyph unicode="&#x143;" />
<glyph unicode="&#x144;" />
<glyph unicode="&#x147;" />
<glyph unicode="&#x148;" />
<glyph unicode="&#x150;" />
<glyph unicode="&#x151;" />
<glyph unicode="&#x152;" horiz-adv-x="1117" d="M670 90q-24 -29 -53 -49t-63 -31q-34 -10 -68.5 -16.5t-69.5 -7.5h-2.5h-2.5h-2h-2h-8h-8q-4 1 -8 1h-8t-8 0.5t-7 0.5q-4 1 -8 1.5t-8 0.5q-70 8 -125 37.5t-93 80.5q-39 51 -58.5 111t-20.5 127q-1 70 19.5 130t60.5 109q41 50 96.5 78.5t126.5 37.5q8 1 16.5 1.5 t17.5 1.5t17.5 1.5t16.5 0.5q35 0 69 -6.5t66 -18.5q32 -13 61 -32.5t56 -46.5v22.5v22.5t-0.5 22t-1.5 22l350 2v-7.5t1 -6.5v-6v-6q0 -6 0.5 -12t1.5 -12l2 -24l2 -24q2 -12 3.5 -24t2.5 -24l-29 2q-1 4 -3 9.5t-3 11.5q-2 6 -3.5 12t-3.5 12q-3 12 -6.5 24l-7.5 25 l-221 2v-254h187l20 72h27q-1 -14 -1 -26v-24v-24v-24q-1 -13 -1 -26v-26t0.5 -25.5t1.5 -25.5l-27 2l-20 80h-187v-283h271q8 11 14 24.5l12 26.5l10 28t9 28l32 2q-1 -7 -2.5 -12.5t-2.5 -10.5q-2 -6 -3 -11.5t-3 -10.5q-3 -10 -5.5 -20.5t-4.5 -21.5q-1 -5 -2.5 -10.5 t-2.5 -10.5q-2 -6 -3 -11.5l-2 -10.5l-4 -20.5t-4 -19.5h-395v3.5t1 5.5v5v6v6t1 6v5v6v10.5v11.5v6v6v5v6v2v0zM320 45q11 -7 23.5 -11t25.5 -7q14 -3 27.5 -4t26.5 -1q9 0 18 0.5t18 1.5q5 1 9 1.5t9 1.5q4 1 8.5 2t8.5 2q32 10 58.5 27t46.5 41t34.5 52.5t22.5 59.5 l6 26.5t4 26.5q2 14 3 28t1 28v5.5v5.5q-1 2 -1 5v6v6v6q-1 2 -1 5v6q-4 46 -17.5 89.5t-36.5 84.5q-22 41 -55 70t-77 45l-6 2t-5 2q-3 0 -5.5 1t-5.5 2q-6 2 -11.5 3.5t-10.5 2.5q-6 1 -11.5 1.5t-10.5 1.5h-6t-5 1h-5.5h-5.5q-39 0 -74.5 -12.5t-67.5 -36.5t-54 -56.5 t-34 -73.5q-4 -13 -7 -26.5t-5 -27.5q-2 -15 -3 -30t-1 -30v-16t1 -16q0 -8 1 -16l2 -16q5 -43 18.5 -84t34.5 -79t49.5 -65t65.5 -43v2v0z" />
<glyph unicode="&#x153;" horiz-adv-x="840" d="M449 72q-16 -24 -37 -40.5t-47 -26.5q-25 -9 -51.5 -14t-53.5 -5h-6.5h-6.5q-4 1 -7.5 1h-6.5q-7 1 -13.5 1.5t-12.5 1.5q-46 9 -79 30.5t-53 57.5t-30.5 75t-10.5 82v4v5v4v4q0 5 0.5 9.5t1.5 8.5v4t1 5q0 2 0.5 4t0.5 4q1 5 1.5 9.5t1.5 8.5q8 46 29 80.5t54 56.5 q33 23 71.5 34t83.5 10q26 0 50 -5.5t46 -16.5q21 -10 39.5 -26t34.5 -36q16 21 35.5 37t42.5 27t47 17t49 6q11 0 22.5 -1.5t23.5 -3.5t23.5 -6t22.5 -9q23 -10 39.5 -24t28.5 -31q11 -16 17 -35.5t6 -40.5v-10.5t-1 -10.5q-1 -6 -1.5 -11.5t-2.5 -10.5l-319 2v-10.5v-9.5 v-4.5v-4.5q0 -3 0.5 -5.5t0.5 -4.5q2 -33 9.5 -63.5t20.5 -59.5t37 -48.5t59 -29.5q7 -2 13.5 -3.5t13.5 -2.5q3 -1 6 -1.5t7 -0.5h6h6q23 0 44.5 6t40.5 18q20 12 36.5 28t31.5 36l20 -18l-13.5 -17l-12.5 -16l-13.5 -15.5l-13.5 -15.5q-13 -15 -28 -28.5l-30 -26.5 q-11 -3 -22.5 -5.5t-22.5 -3.5q-11 -2 -22 -3t-22 -1q-26 0 -51 5t-49 14q-24 10 -45 26t-40 38v2v0zM283 18q32 1 54 13t35 36t21 49.5t11 53.5v6t1 7v6.5v6.5v6t1 7v6v6v2v2v1v2v4v4q-1 8 -1.5 15.5t-0.5 15.5q-1 8 -1.5 16t-2.5 16q-4 29 -14 56t-25 52t-39.5 37.5 t-57.5 12.5h-1.5h-1.5h-1.5h-1.5q-36 -1 -61.5 -14.5t-39.5 -39.5q-14 -25 -21.5 -53.5t-9.5 -58.5q-1 -3 -1 -5.5v-4.5v-4.5v-4.5v-8.5v-9.5q0 -4 0.5 -8.5t1.5 -9.5q0 -8 1 -16.5l2 -17.5t2.5 -17.5t3.5 -16.5q5 -28 15.5 -54.5t26.5 -50.5q15 -24 38.5 -36t54.5 -12h1.5 h1.5h1.5t1.5 1h1.5h1.5h1.5h1.5v2v0zM484 326h245q-1 25 -8.5 47t-20.5 41t-34.5 29.5t-50.5 11.5h-1.5h-1.5h-1.5h-1.5q-28 0 -50 -9.5t-37 -29.5q-15 -19 -24 -42.5t-14 -49.5v2v0z" />
<glyph unicode="&#x154;" />
<glyph unicode="&#x155;" />
<glyph unicode="&#x158;" />
<glyph unicode="&#x159;" />
<glyph unicode="&#x15a;" />
<glyph unicode="&#x15b;" />
<glyph unicode="&#x15e;" />
<glyph unicode="&#x15f;" />
<glyph unicode="&#x160;" horiz-adv-x="500" />
<glyph unicode="&#x161;" horiz-adv-x="500" />
<glyph unicode="&#x162;" />
<glyph unicode="&#x163;" />
<glyph unicode="&#x164;" />
<glyph unicode="&#x165;" />
<glyph unicode="&#x16e;" />
<glyph unicode="&#x16f;" />
<glyph unicode="&#x170;" />
<glyph unicode="&#x171;" />
<glyph unicode="&#x178;" horiz-adv-x="500" />
<glyph unicode="&#x179;" />
<glyph unicode="&#x17a;" />
<glyph unicode="&#x17b;" />
<glyph unicode="&#x17c;" />
<glyph unicode="&#x17d;" />
<glyph unicode="&#x17e;" />
<glyph unicode="&#x192;" horiz-adv-x="568" d="M258 420q-2 -1 -4 -1h-4h-5h-4h-4h-4h-5h-4h-8.5h-9.5h-8.5h-9.5q-4 -1 -8.5 -1h-9.5h-8.5h-9.5l8 35q6 -2 12 -3t13 -1h12.5h13.5h12.5h13.5h6h7h6h6l4 18l4 18l4 18t5 19q6 24 15 48t20 46q11 23 26.5 41t36.5 32q7 5 15 9.5t18 8.5t20.5 6.5t20.5 3.5h2t2 1h1h2h2h2h1 h2q12 0 23 -2.5t21 -7.5t17 -14t11 -22q1 -4 1.5 -7t1.5 -6v-2.5t1 -3.5v-2.5v-2.5q0 -10 -3 -18.5t-9 -13.5t-12 -8t-12 -3h-1.5h-0.5v0v0h-1v0q-7 0 -13 2.5t-11 6.5q-5 5 -7.5 11.5t-2.5 15.5q0 4 0.5 8.5t1.5 8.5q2 5 4 9.5t5 10.5l-7.5 5.5t-7.5 3.5q-4 2 -8 3t-8 1h-2 h-2q-2 -1 -3 -1h-2q-2 -1 -4.5 -1.5t-4.5 -1.5q-11 -4 -20 -11t-15 -18q-7 -10 -12 -21.5t-8 -23.5q-2 -7 -3.5 -13.5t-3.5 -12.5q-1 -7 -2.5 -12.5t-2.5 -10.5l-23 -113q4 -1 7.5 -1.5t7.5 -0.5h6.5h7.5h14.5h14.5h14h14t14.5 0.5t14.5 1.5l-8 -31q-4 -2 -8.5 -2h-9.5h-8.5 t-9.5 1h-9.5h-9.5h-8.5h-9.5h-10h-10h-4.5h-4.5q-2 -1 -4.5 -1h-4.5q-6 -25 -12.5 -56l-14.5 -68q-7 -37 -16 -75.5l-18 -77.5q-11 -46 -23 -89.5t-25 -83.5q-13 -42 -27.5 -74.5t-29.5 -55.5q-1 -2 -2.5 -4t-3.5 -4q-1 -2 -2.5 -4t-3.5 -4q-8 -9 -18 -18t-21 -16 q-6 -4 -12 -7t-11 -5q-6 -2 -12 -3t-12 -1h-2h-2q-2 1 -3 1h-2q-3 1 -5 1.5t-4 0.5q-1 1 -2.5 1.5t-2.5 0.5l-3 1.5t-2 1.5t-2 1.5t-2 0.5l-3 1.5t-2 1.5q-5 4 -9 8t-6 9q-3 5 -4.5 10t-2.5 10v2v2v1.5v1.5q0 9 2.5 17t7.5 15t11.5 11t13.5 4h4.5t4.5 -1q2 0 4.5 -1.5 t4.5 -2.5q5 -2 8 -5t4 -7q2 -4 3 -7.5t1 -7.5t-1 -8t-3 -8q-1 -4 -3.5 -7.5l-4.5 -6.5q2 -2 4.5 -4t5.5 -3q2 0 3 -0.5t3 -0.5q1 -1 2.5 -1h2.5q11 0 21 9.5t19 27.5q8 18 15 38t13 42q5 21 9 40.5t7 36.5q3 16 4.5 25.5t2.5 12.5l76 383v0z" />
<glyph unicode="&#x2ba;" horiz-adv-x="500" />
<glyph unicode="&#x2c6;" horiz-adv-x="500" d="M391 688q-7 -29 -15 -48.5t-19 -30.5q-10 -11 -24.5 -16.5t-31.5 -5.5q-8 0 -17 1l-18 2l-19.5 4.5t-21.5 5.5q-3 1 -6 1.5t-6 1.5q-3 0 -5.5 0.5t-5.5 1.5q-5 1 -9.5 1.5t-9.5 0.5q-9 0 -16 -2t-13 -7q-6 -4 -10.5 -13t-8.5 -21l-26 2q6 26 15 45.5t19 30.5 q11 11 24.5 17t31.5 6q8 0 16.5 -1t17.5 -3q9 -1 19 -3.5l21 -5.5q6 -1 12 -2.5t11 -2.5t10.5 -2t10.5 -1q8 0 14.5 2.5t12.5 6.5q6 5 10.5 13t8.5 20l28 2v0z" />
<glyph unicode="&#x2c7;" horiz-adv-x="500" />
<glyph unicode="&#x2c9;" horiz-adv-x="500" />
<glyph unicode="&#x2d8;" horiz-adv-x="500" d="M107 693h26q6 -23 17 -37t26 -20q15 -7 33.5 -10t40.5 -3q21 0 39.5 3t33.5 10q15 6 26 20t18 35l26 2q-6 -30 -17 -54t-26 -42q-16 -18 -39.5 -27t-55.5 -9h-1.5h-0.5h-1.5h-0.5v0v0h-1v0v0v0h-1v0v0v0h-1v0h-1.5h-0.5q-33 0 -57 9t-39 27q-16 18 -26.5 41.5t-16.5 52.5 v2v0z" />
<glyph unicode="&#x2d9;" horiz-adv-x="500" />
<glyph unicode="&#x2da;" horiz-adv-x="328" d="M164 711q29 -2 53 -12.5t45 -31.5q20 -21 30.5 -45t10.5 -52t-10.5 -53t-31.5 -45t-45 -30t-52 -10t-52 10t-44 30q-21 20 -31 45t-10 53t10 52t31 45q20 21 44 31.5t52 10.5v2v0zM164 670q-24 -2 -42 -10t-30 -23t-18.5 -32t-6.5 -35v-1.5v-0.5v0v0v-1v0 q0 -18 6.5 -34.5t18.5 -31.5t30 -22.5t42 -7.5t42.5 7.5t30.5 22.5t18 32t7 36q0 19 -6 36t-18 32t-30.5 23t-43.5 8v2v0z" />
<glyph unicode="&#x2db;" horiz-adv-x="500" />
<glyph unicode="&#x2dc;" horiz-adv-x="500" d="M107 543l114 170h58l114 -170h-30l-113 102l-113 -102h-30v0z" />
<glyph unicode="&#x393;" />
<glyph unicode="&#x398;" />
<glyph unicode="&#x3a3;" />
<glyph unicode="&#x3a6;" />
<glyph unicode="&#x3a9;" />
<glyph unicode="&#x3b1;" />
<glyph unicode="&#x3b4;" />
<glyph unicode="&#x3b5;" />
<glyph unicode="&#x3c0;" />
<glyph unicode="&#x3c3;" />
<glyph unicode="&#x3c4;" />
<glyph unicode="&#x3c6;" />
<glyph unicode="&#x2013;" horiz-adv-x="500" d="M0 219v54h500v-54h-500v0z" />
<glyph unicode="&#x2014;" horiz-adv-x="1000" d="M0 219v54h998h2v-54h-998h-2v0z" />
<glyph unicode="&#x2017;" />
<glyph unicode="&#x2018;" />
<glyph unicode="&#x2019;" horiz-adv-x="256" d="M49 395l6 10.5l6 11.5q2 5 5 11l6 12t5.5 12t5.5 12l4.5 11t5.5 12q8 20 14.5 41t11.5 42t8 43.5t3 46.5v3.5v2.5v3.5v2.5q-1 2 -1 3.5v2.5v3.5v2.5q9 1 17.5 2.5t16.5 2.5q8 2 16 4.5t16 5.5q2 1 3.5 1.5t2.5 1.5q2 1 3.5 1.5t2.5 1.5v-5.5v-4.5v-2t1 -2v-3v-2v-2.5 t1 -2.5v-3v-2v-4.5v-4.5v-4v-4q-1 -3 -1 -5v-4v-4v-4q-1 -2 -1 -4v-4q-1 -4 -1.5 -8.5t-1.5 -9.5q-1 -2 -1.5 -4t-0.5 -4q-1 -2 -1.5 -4t-1.5 -4q-1 -5 -3 -10l-4 -10q-2 -6 -4 -11l-4 -10q-4 -10 -9.5 -20.5l-11.5 -21.5q-4 -7 -7.5 -14t-7.5 -13l-8 -13.5t-7 -13.5 l-12 -18t-11 -18q-6 -9 -10.5 -17.5t-9.5 -16.5l-41 2v0z" />
<glyph unicode="&#x201a;" />
<glyph unicode="&#x201c;" horiz-adv-x="451" d="M211 707q-7 -16 -14.5 -30l-14.5 -28q-7 -13 -12.5 -26t-10.5 -26q-7 -19 -13 -37.5t-10 -37.5t-6 -39t-2 -42v-2.5v-3.5v-2.5t1 -3.5v-2v-1v-2v-2v-2.5v-3.5q-9 -1 -17.5 -3l-16.5 -4q-4 -1 -8 -2.5t-8 -2.5q-4 -2 -8 -3t-8 -3q-1 -1 -2.5 -1.5t-3.5 -1.5 q-1 -1 -2.5 -1.5t-3.5 -0.5q0 2 -0.5 4t-0.5 5q-1 2 -1 4v4v4v5v4v4v9.5v9.5q0 4 0.5 9t1.5 9q2 9 3.5 18t4.5 18q2 9 5.5 18t7.5 18q2 5 4 9.5t4 9.5l4.5 9l4.5 9q2 5 4.5 9t4.5 9q2 4 4.5 8.5t5.5 8.5l10.5 16.5t10.5 17.5l10 16.5t10 15.5q2 4 4.5 8t5.5 8l4.5 7t4.5 8 l43 2v0zM406 707q-7 -17 -14.5 -32l-14.5 -29t-13 -27.5t-11 -27.5q-7 -18 -12.5 -36t-9.5 -36t-6 -37.5t-2 -40.5v-2.5v-3.5v-2.5t1 -3.5v-3.5v-3.5v-2.5v-3.5q-10 -1 -20 -3.5t-20 -5.5t-19.5 -6.5t-18.5 -7.5v2v2q-1 1 -1 2v2v4v4v3.5v3.5v4v4q0 10 0.5 19.5t1.5 18.5 t3 18.5t6 19.5q3 11 7 22.5t10 23.5q5 12 11.5 24l13.5 24q2 5 5 10.5l6 10.5q2 3 3.5 5.5t3.5 5.5q1 2 3 5t3 6l5.5 9l5.5 9q2 4 4.5 8.5t5.5 8.5l10.5 16.5t9.5 16.5l43 2v0z" />
<glyph unicode="&#x201d;" horiz-adv-x="451" d="M49 395l6 10.5l6 11.5q2 5 5 11l6 12t5.5 12t5.5 12l4.5 11t5.5 12q8 20 14.5 41t11.5 42t8 43.5t3 46.5v3.5v2.5v3.5v2.5q-1 2 -1 3.5v2.5v3.5v2.5q9 1 17.5 2.5t16.5 2.5q8 2 16 4.5t16 5.5q2 1 3.5 1.5t2.5 1.5q2 1 3.5 1.5t2.5 1.5v-5.5v-4.5v-2t1 -2v-3v-2v-2.5 t1 -2.5v-3v-2v-4.5v-4.5v-4v-4q-1 -3 -1 -5v-4v-4v-4q-1 -2 -1 -4v-4q-1 -4 -1.5 -8.5t-1.5 -9.5q-1 -2 -1.5 -4t-0.5 -4q-1 -2 -1.5 -4t-1.5 -4q-1 -5 -3 -10l-4 -10q-2 -6 -4 -11l-4 -10q-4 -10 -9.5 -20.5l-11.5 -21.5q-4 -7 -7.5 -14t-7.5 -13l-8 -13.5t-7 -13.5 l-12 -18t-11 -18q-6 -9 -10.5 -17.5t-9.5 -16.5l-41 2v0zM244 395l13.5 25.5t12.5 25.5l12 25.5t11 25.5q8 20 14 40t10 40q5 20 7 42.5t2 46.5v4.5v4.5v4.5v4.5q9 1 17.5 2.5t16.5 2.5q8 2 16 4.5t16 5.5q2 1 3.5 1.5t2.5 1.5q2 1 3.5 1.5t2.5 1.5v-4v-4v-2t1 -2v-2v-2v-4 v-4v-4v-4v-4.5v-4.5q-1 -2 -1 -4.5v-4.5v-4.5v-4.5q-1 -2 -1 -4.5v-4.5q-1 -5 -1.5 -9.5t-1.5 -9.5q-1 -4 -1.5 -8.5t-2.5 -9.5q-1 -4 -3 -8.5t-3 -8.5l-3.5 -9l-3.5 -9q-2 -4 -4 -8.5t-4 -9.5q-3 -4 -5 -8.5t-4 -9.5l-8.5 -16.5t-9.5 -16.5q-2 -4 -4.5 -8t-4.5 -8 q-3 -4 -5.5 -8t-4.5 -8l-11.5 -18t-10.5 -18q-6 -9 -10.5 -18t-9.5 -17l-43 2v0z" />
<glyph unicode="&#x201e;" horiz-adv-x="480" d="M27 -195q8 15 14.5 28.5l13.5 27.5q7 13 13 26.5t11 26.5l6 18l6 18l5.5 19t4.5 18q5 17 7 37.5t2 42.5v3.5v2.5v4v4q-1 2 -1 3.5v2.5v2v2v1v2q8 0 15 1.5t14 2.5q7 2 13.5 3.5t13.5 4.5q2 0 3 0.5l3 1.5q1 0 2.5 0.5t2.5 1.5q3 1 6 2.5t6 2.5v-4t1 -3v-4v-4v-7.5v-7.5 v-6.5v-6.5q-1 -4 -1 -7v-6q-1 -6 -1.5 -12t-1.5 -12q0 -1 -0.5 -3t-0.5 -3q-1 -2 -1 -3.5v-3.5q-1 -3 -1.5 -6t-1.5 -6l-6 -16t-7 -17q-2 -5 -4 -9.5t-4 -8.5q-3 -5 -5 -9.5t-4 -8.5q-4 -9 -9.5 -18t-10.5 -18t-10.5 -18t-10.5 -18l-10 -16.5l-10 -16.5q-3 -4 -5.5 -8 t-4.5 -8l-4.5 -7t-4.5 -8h-43v0zM225 -195q8 15 14.5 29.5t13.5 28.5l12 26.5l12 27.5l6 18l6 18l5.5 19t4.5 18q5 16 7 36.5t2 42.5v3.5v2.5v3.5v3.5q-1 2 -1 3.5v2.5v3.5v2.5q8 0 14.5 1l12.5 2q6 2 12.5 3.5t13.5 4.5l6 2l6 2q2 1 3.5 1.5t3.5 1.5q1 1 3 1.5t3 1.5v-4.5 t1 -4.5v-4.5v-4.5v-4t1 -4v-4v-4v-4.5v-4.5q-1 -2 -1 -4.5v-4.5v-4.5v-4.5q-1 -2 -1 -4v-4q-1 -4 -2 -8.5t-2 -9.5q-1 -4 -1.5 -8.5t-2.5 -9.5l-2 -6t-2 -4l-2 -6l-2 -6q-6 -15 -13.5 -30l-15.5 -30l-17.5 -30l-16.5 -30l-10 -16l-10 -16q-2 -4 -4.5 -8t-4.5 -8l-4.5 -7 t-4.5 -8h-43v0z" />
<glyph unicode="&#x2020;" horiz-adv-x="500" d="M268 375v-21v-19v-9v-9v-9.5v-9.5q1 -47 3 -94t6 -94q4 -46 8.5 -91.5t9.5 -90.5q0 -3 0.5 -6t1.5 -7q0 -3 0.5 -7t1.5 -8q0 -5 0.5 -11t1.5 -12t1.5 -12t0.5 -12v-1.5v-1.5v-2v-2q0 -14 -3 -27t-8 -25q-5 -11 -15.5 -17t-26.5 -7q-16 1 -26.5 7t-15.5 17q-6 11 -8.5 24 t-2.5 27v2.5v3.5v2.5v3.5q0 6 0.5 11.5t1.5 10.5q0 6 0.5 11t1.5 10q0 4 0.5 8t1.5 7q0 4 0.5 7t1.5 6q5 45 9 90.5l8 91.5q4 47 6.5 94t3.5 94v9.5v9.5v9v9v18.5v19.5q-5 -1 -11.5 -2.5l-14.5 -3.5t-17 -4l-18 -4q-2 -1 -4 -1.5t-4 -0.5q-3 -1 -5 -1.5t-4 -0.5 q-4 -1 -8.5 -2t-8.5 -2q-7 -1 -14.5 -2.5t-14.5 -2.5t-14 -1.5t-13 -0.5q-12 0 -22 2.5t-18 6.5q-8 5 -12 13t-4 21q0 12 4 21t11 13q8 5 17.5 7t21.5 3q6 0 13 -0.5t14 -1.5q3 -1 6.5 -1.5t7.5 -0.5q3 -1 6.5 -1.5t7.5 -1.5l8 -2l8 -2l8 -2l8 -2q10 -3 19 -5l18 -4l16 -3.5 t13 -1.5q0 17 -0.5 32t-2.5 28q-1 13 -3 25l-4 24q-1 4 -1.5 7.5t-0.5 7.5q-1 3 -1.5 6.5t-1.5 7.5q-1 8 -2.5 15.5t-3.5 16.5q-1 5 -1.5 9.5t-1.5 8.5q-1 5 -1.5 10t-1.5 11q-1 3 -1.5 6t-0.5 6v6.5v7.5v2v2v3.5v2.5q1 11 4 21.5t7 20.5q5 10 14 15t22 5q12 0 21 -5t13 -14 q5 -9 8 -19t4 -21v-1.5t1 -1.5v-1.5v-1.5v-2.5v-3.5v-4v-3q-1 -2 -1 -3.5v-3.5v-3.5v-3.5q-1 -1 -1 -2.5v-3.5q-1 -6 -1.5 -11t-1.5 -10q-1 -4 -2 -8.5t-1 -9.5q-1 -9 -2.5 -16.5t-3.5 -15.5q-1 -4 -1.5 -7.5t-1.5 -6.5q-1 -4 -1.5 -7.5t-0.5 -7.5q-3 -12 -4.5 -24t-3.5 -25 q-1 -13 -1.5 -28t-0.5 -32q5 0 12 1.5l16 3.5l18.5 4t19.5 5q3 1 6.5 2t7.5 2t7.5 2t7.5 2t7.5 1.5t7.5 1.5q3 0 6.5 0.5t7.5 1.5q8 1 14.5 1.5t13.5 0.5q12 0 22 -2.5t17 -7.5q8 -4 12 -13t4 -21t-4 -20.5t-12 -13.5q-7 -4 -17 -6.5t-22 -2.5q-7 0 -13.5 0.5t-14.5 1.5 q-4 0 -7.5 0.5t-6.5 1.5q-4 1 -7.5 1.5t-7.5 1.5q-2 0 -4 0.5t-4 1.5q-3 0 -5 0.5t-4 1.5l-8 2l-8 2q-10 2 -18.5 4l-16.5 4t-15 3.5l-12 2.5v2v0z" />
<glyph unicode="&#x2021;" horiz-adv-x="500" d="M268 117q8 -1 16 0.5t16 3.5l16 4t16 5q9 2 18.5 4.5t19.5 5.5q9 2 18.5 3.5t19.5 2.5h1.5h1.5h2h2h0.5h1.5h1.5h1.5q11 -1 20 -3.5t18 -7.5q8 -5 12.5 -13.5t4.5 -19.5q0 -12 -4.5 -20.5t-12.5 -13.5q-9 -5 -18 -8t-20 -3h-1.5h-1.5h-1.5h-0.5h-1.5h-0.5h-1v0h-1.5h-0.5 h-1.5h-0.5q-10 1 -19.5 2.5t-18.5 3.5q-4 1 -9 2t-9 3q-5 1 -9.5 2.5t-9.5 2.5q-8 2 -16.5 4.5t-16.5 4.5t-16 3.5t-16 2.5v-4v-4v-4v-4q0 -17 0.5 -31.5t1.5 -25.5q1 -6 1.5 -11t1.5 -10t1.5 -10.5t1.5 -11.5l4 -18.5l4 -19.5l4 -23t4 -26v-2t1 -3v-2v-2q0 -2 0.5 -4 t1.5 -5v-3.5t1 -2.5v-3.5v-2.5v-3.5t1 -3.5v-3v-4v-3.5v-2.5v-3.5v-2.5q-1 -11 -4 -21t-8 -19t-14 -14t-21 -5q-13 1 -22 6t-14 15q-4 10 -7 20.5t-4 21.5v2v2v1.5v0.5v7.5v7.5t0.5 7t1.5 6v2.5t1 2.5v2v2q0 2 0.5 4t1.5 4q2 14 4 26l4 23l4 20l4 20q1 3 1 6.5t1 7.5v3t1 4 q0 5 0.5 9.5t1.5 10.5q2 11 2.5 24.5t0.5 29.5v1.5v1.5v0.5v1.5v1.5v1.5v0.5v1.5v2v2v3.5v2.5q-8 -1 -16.5 -2.5t-16.5 -3.5t-16 -4.5t-16 -4.5q-10 -3 -19.5 -5.5t-18.5 -4.5q-4 -1 -9 -2t-9 -2q-5 0 -9.5 -1t-9.5 -1h-1.5h-1.5h-2h-2h-1.5h-1.5h-1.5h-0.5q-10 0 -20 3 t-18 8q-9 5 -13 13.5t-4 20.5q0 11 4 19.5t13 13.5q8 5 18 7.5t20 3.5h0.5h1.5h1.5h1.5h0.5h1.5h0.5h1.5v0h1h0.5h1.5q9 -1 18.5 -2.5t19.5 -3.5q9 -3 18.5 -5.5t19.5 -4.5q8 -3 16 -5l16 -4t16 -3.5t16 -2.5l-2 34.5l-2 35.5t-1 35.5v34.5v18v19q0 9 0.5 18t0.5 18 q0 18 1.5 36t2.5 36q-6 -1 -13 -2t-15 -3q-9 -2 -18 -4.5t-19 -4.5q-4 -1 -7.5 -2t-7.5 -2t-8 -1.5t-7 -1.5q-7 -1 -14.5 -2.5t-14.5 -2.5t-14 -1.5t-13 -0.5q-12 0 -22 2.5t-18 6.5q-8 5 -12 13.5t-4 21.5q0 12 4 21t11 13q8 5 18 7.5t22 2.5q6 0 13 -0.5t14 -1.5 q4 -1 7.5 -1.5t7.5 -0.5q4 -1 7.5 -1.5t7.5 -1.5l8 -2l8 -2q2 -1 4 -1.5t5 -0.5q2 -1 4 -1.5t4 -0.5q9 -3 18 -5.5t17 -4.5l14.5 -3.5t12.5 -1.5q-1 17 -2.5 33.5t-4.5 32.5q-1 8 -2.5 16t-2.5 17q-2 8 -3 16t-3 16v0v1q-1 0 -1 0.5v0.5v1.5v1.5l-2 10.5l-2 11.5 q-1 3 -1.5 6t-0.5 6q-1 2 -1.5 5t-0.5 6q-1 3 -1.5 6t-0.5 6v6.5v7.5v2v2v3.5v2.5q1 11 4 21.5t7 20.5q5 10 14 15t22 5q12 0 21 -5t13 -14q5 -9 8 -19t4 -21v-1.5t1 -1.5v-1.5v-1.5v-2.5v-3.5v-4v-3q-1 -2 -1 -3.5v-3.5v-3.5v-3.5q-1 -1 -1 -2.5v-3.5q-1 -3 -1.5 -6 t-0.5 -5q-1 -3 -1.5 -6t-0.5 -6l-2 -11.5l-2 -10.5v-0.5v-0.5q-1 -1 -1 -1.5v-0.5v-1.5v-0.5q-1 -8 -2.5 -16t-3.5 -16q-1 -9 -2.5 -17t-3.5 -16q-3 -16 -4.5 -32.5t-1.5 -33.5q5 0 11.5 1.5l14.5 3.5t16.5 4.5l18.5 5.5q4 1 8.5 2t8.5 2q2 0 4 0.5t5 1.5q2 0 4 0.5t4 1.5 q4 1 7.5 1.5t7.5 1.5q3 0 6.5 0.5t7.5 1.5q7 1 13.5 1.5t13.5 0.5q12 0 22 -2t18 -7q8 -4 12 -13t4 -22t-4 -21.5t-12 -13.5q-7 -4 -17 -6.5t-22 -2.5q-7 0 -13.5 0.5t-14.5 1.5q-4 0 -7.5 0.5t-6.5 1.5q-4 1 -7.5 1.5t-7.5 1.5t-7.5 1.5t-7.5 1.5t-7.5 2t-6.5 2 q-10 2 -19.5 4.5t-18.5 4.5t-16 3t-12 2q1 -11 1.5 -22.5t1.5 -23.5v-12t1 -11v-11.5v-11.5v-6t1 -5v-6v-6v-6v-5v-6v-6v-18.5v-18.5q-1 -10 -1 -19v-18t-0.5 -18t-1.5 -18q0 -10 -0.5 -19t-1.5 -18v2v0z" />
<glyph unicode="&#x2022;" horiz-adv-x="590" d="M160 426q8 19 22 35t33 28t39 18t42 6q7 0 13.5 -0.5t12.5 -1.5t12.5 -3l13.5 -4q21 -8 37.5 -21.5t28.5 -32.5t18 -39t6 -42q0 -7 -0.5 -14t-2.5 -14q-1 -7 -3 -13.5l-4 -13.5q-9 -20 -22.5 -36.5t-31.5 -28.5t-38 -18t-41 -6h-7.5h-6.5q-4 0 -7 1l-6 2q-4 0 -7.5 1 t-6.5 2q-4 1 -7.5 2.5t-6.5 2.5q-21 8 -37 22t-28 33t-18 39t-6 42v6v6t0.5 6.5t1.5 7.5v3.5t1 3.5q0 1 0.5 3t1.5 3q0 2 0.5 3.5t1.5 3.5q0 1 0.5 3t1.5 3v2v0z" />
<glyph unicode="&#x2026;" horiz-adv-x="1000" d="M111 41q0 11 4 20.5t13 16.5q8 6 17.5 9.5t19.5 3.5q11 0 20 -3t18 -10t13.5 -16.5t4.5 -22.5t-4.5 -23t-12.5 -16q-9 -4 -18 -7.5t-19 -3.5t-20 3t-19 8q-9 6 -13 16t-4 23v2v0zM443 41q0 11 4 20.5t13 16.5q8 6 17.5 9.5t19.5 3.5q11 0 20 -3t18 -10t13.5 -16.5 t4.5 -22.5t-4.5 -23t-12.5 -16q-9 -4 -18 -7.5t-19 -3.5t-20 3t-19 8q-9 6 -13 16t-4 23v2v0zM777 41q0 11 4 20.5t13 16.5q8 6 17.5 9.5t19.5 3.5q11 0 20 -3t18 -10t13.5 -16.5t4.5 -22.5t-4.5 -23t-12.5 -16q-9 -4 -18 -7.5t-19 -3.5t-20 3t-19 8q-9 6 -13 16t-4 23v2v0z " />
<glyph unicode="&#x2030;" horiz-adv-x="1182" d="M223 -12h-51l396 717h49l-394 -717v0zM738 63q-11 -20 -26 -34.5t-34 -23.5q-19 -7 -38.5 -11.5t-39.5 -4.5q-7 0 -13.5 0.5t-13.5 1.5l-13.5 2t-12.5 3q-28 5 -49.5 20t-36.5 37q-15 23 -22 47.5t-7 51.5q0 11 1 22.5t4 23.5q3 11 7.5 22.5t10.5 21.5q11 20 26 34t34 23 q20 9 40 13.5t42 4.5h6t7 -1q3 0 6 -0.5t6 -0.5q6 -1 12.5 -1.5t13.5 -2.5q27 -8 48 -23.5t36 -38.5q14 -22 21.5 -47t7.5 -51q0 -12 -1.5 -23.5t-4.5 -22.5q-3 -12 -7 -22.5t-10 -21.5v2v0zM514 213q-1 -8 -2.5 -15.5t-2.5 -15.5t-1 -16.5v-16.5v-3v-3v-3.5v-3.5v-3.5 t1 -3.5v-2.5v-3.5q2 -16 5 -31t8 -29t14 -24.5t21 -17.5q5 -3 10.5 -5t9.5 -4l10 -2t10 -1q15 0 28.5 6t24.5 19q11 12 18.5 27t11.5 31q2 9 3.5 17.5t2.5 16.5t1.5 16.5t0.5 15.5q0 33 -7.5 58.5t-21.5 42.5t-30 25.5t-33 8.5q-13 0 -25.5 -5t-23.5 -16q-12 -10 -20 -25.5 t-13 -35.5v2v0zM1127 63q-10 -20 -25 -34.5t-34 -23.5q-19 -7 -39 -11.5t-41 -4.5q-7 0 -13.5 0.5t-13.5 1.5l-13.5 2t-13.5 3q-28 5 -49 20t-35 38q-15 23 -22 47.5t-7 51.5v3v3v2.5v2.5v3.5t1 2.5v3.5v2.5q2 8 3.5 16.5t4.5 16.5t6.5 16.5t7.5 16.5q11 19 25.5 33t33.5 23 q18 9 37.5 13.5t40.5 5.5h1h2h1.5h1.5h6t7 -1q3 0 6 -0.5t6 -0.5t6 -0.5t7 -1.5q3 0 6 -0.5t6 -1.5q27 -8 48 -23.5t36 -38.5q15 -22 22.5 -47t7.5 -51q0 -12 -1.5 -23.5t-4.5 -22.5q-3 -12 -7.5 -22.5t-10.5 -21.5v2v0zM902 213q-1 -8 -2 -15t-2 -15q-1 -7 -1.5 -15.5 t-0.5 -16.5v-6v-6v-6t1 -6q2 -16 5 -31.5t9 -30.5q5 -15 13.5 -25.5t20.5 -18.5q5 -3 10.5 -5t10.5 -4q2 -1 4.5 -1.5t5.5 -0.5q2 -1 4.5 -1h4.5q16 0 29.5 6t24.5 19q11 12 18.5 27t10.5 31q2 9 3 17.5l2 16.5q0 4 0.5 8t0.5 8q1 3 1 7v8q0 32 -6 57t-20 42 q-13 17 -28 26.5t-32 10.5h-1.5h-1.5h-1.5h-0.5q-13 0 -25.5 -5t-23.5 -16q-12 -10 -20 -25.5t-13 -35.5v2v0zM336 449q-11 -20 -26 -34t-34 -23t-38.5 -13.5t-40.5 -4.5h-13.5t-13.5 1t-13.5 2.5t-13.5 3.5q-28 7 -49 22t-35 37q-15 23 -22 47t-7 51v4.5v4.5v4.5t1 5.5 q1 9 2.5 18t4.5 18q2 9 6 18t9 18q10 17 23.5 30.5t31.5 22.5t36.5 15t37.5 7h1.5h1.5h0.5h1.5h3.5h2.5q7 0 13.5 -0.5t12.5 -1.5q3 0 6 -0.5t7 -1.5q3 -1 6 -1.5t6 -1.5q28 -7 49 -22.5t36 -38.5t22.5 -48t8.5 -52v-2.5v-3.5q-1 -1 -1 -2.5v-3.5v-2.5v-2.5v-3v-3 q-1 -9 -3.5 -17.5t-5.5 -16.5l-6 -16t-8 -16v2v0zM111 600q-1 -8 -2.5 -16t-2.5 -16t-1 -16.5v-16.5v-2.5v-2.5v-3v-3v-5.5t1 -4.5q1 -16 4 -31.5t9 -30.5q5 -15 14 -25.5t21 -18.5q5 -3 10.5 -5t9.5 -4l10 -2t10 -1q16 0 29.5 6t24.5 19t18 27t11 30q2 9 3 17.5l2 16.5 q0 4 0.5 8t0.5 8q1 3 1 7v8q0 32 -6 57t-20 42q-13 17 -28 27t-32 12h-1.5h-1.5h-1.5h-0.5q-13 0 -25.5 -5t-23.5 -16q-12 -10 -20 -25.5t-13 -36.5v2v0z" />
<glyph unicode="&#x2039;" horiz-adv-x="271" d="M223 121q-5 -1 -10 -0.5t-10 1.5l-10 2l-10 2q-23 5 -44 13.5t-40 20.5t-28.5 31.5t-9.5 46.5q0 26 9.5 45.5t28.5 32.5t40 22t44 14l10 2l10 2t10 1.5t10 1.5v-17q-17 -9 -32 -19t-27 -21q-13 -12 -19 -28t-6 -36q0 -19 6 -35t19 -28q12 -12 27 -21t32 -15v-18v0z" />
<glyph unicode="&#x203a;" horiz-adv-x="271" d="M53 361q5 -2 10 -3l10 -2t10.5 -2l11.5 -2q23 -6 43 -15t39 -22t28.5 -32t9.5 -45t-9.5 -45.5t-28.5 -31.5t-39 -20.5t-43 -13.5q-6 -1 -11.5 -2.5t-10.5 -2.5l-10 -2t-10 -1v22q17 5 32 13.5t28 20.5t19.5 28t6.5 35q0 20 -6.5 36t-19.5 28q-13 11 -28 21t-32 17v21v0z " />
<glyph unicode="&#x203c;" />
<glyph unicode="&#x207f;" />
<glyph unicode="&#x20a3;" />
<glyph unicode="&#x20a7;" />
<glyph unicode="&#x2122;" horiz-adv-x="822" d="M385 701h90l68 -193l72 193h84v-12q-7 -2 -13.5 -3t-12.5 -3q-6 -1 -8.5 -7t-2.5 -16v-180q0 -9 2.5 -14.5t6.5 -7.5q5 -3 10 -4.5t11 -1.5h0.5h1.5q0 -1 0.5 -1h0.5h2h2v-10h-113v12q7 -1 13 0.5t11 3.5t8 7t3 14v196l-86 -235h-8l-84 235v-194q0 -9 2.5 -14.5t6.5 -7.5 q5 -3 10 -4.5t11 -1.5h0.5h1.5q0 -1 0.5 -1h0.5h2h2v-10h-95v12v-1.5t1 -0.5v0v0h0.5h1.5q6 1 12 2.5t12 3.5t9 7.5t3 13.5v184q0 7 -3 12t-9 7t-12 3.5t-12 2.5h-1.5h-0.5v0v0h-1v0v14v0zM125 701h215l6 -86h-14q-2 19 -7 32.5t-13 22.5q-8 8 -22 12.5t-34 4.5v-207 q0 -10 2.5 -15.5t8.5 -7.5q5 -2 12 -3.5t14 -2.5v-10h-121v12q7 -1 13 0.5t12 3.5t9 7t3 14v211q-20 -2 -34.5 -6.5t-22.5 -12.5q-8 -9 -12.5 -23t-6.5 -34l-14 2l6 86v0z" />
<glyph unicode="&#x2190;" />
<glyph unicode="&#x2191;" />
<glyph unicode="&#x2192;" horiz-adv-x="500" />
<glyph unicode="&#x2193;" />
<glyph unicode="&#x2194;" />
<glyph unicode="&#x2195;" />
<glyph unicode="&#x21a8;" />
<glyph unicode="&#x2202;" />
<glyph unicode="&#x2206;" />
<glyph unicode="&#x220f;" />
<glyph unicode="&#x2212;" />
<glyph unicode="&#x2215;" />
<glyph unicode="&#x2219;" horiz-adv-x="285" d="M88 348q0 11 4 20.5t13 16.5q8 6 17.5 9.5t19.5 3.5v0h1v0v0h0.5h1.5q9 0 18 -3.5t17 -10.5t12.5 -16.5t4.5 -21.5q0 -13 -4.5 -23t-12.5 -17q-9 -7 -18 -10t-19 -3h-1.5h-0.5v0v0h-1v0q-10 0 -19 3t-17 10t-12 17t-4 23v2v0z" />
<glyph unicode="&#x221a;" />
<glyph unicode="&#x221e;" />
<glyph unicode="&#x221f;" />
<glyph unicode="&#x2229;" />
<glyph unicode="&#x222b;" />
<glyph unicode="&#x2248;" />
<glyph unicode="&#x2260;" />
<glyph unicode="&#x2261;" />
<glyph unicode="&#x2264;" />
<glyph unicode="&#x2265;" />
<glyph unicode="&#x2302;" />
<glyph unicode="&#x2310;" />
<glyph unicode="&#x2320;" />
<glyph unicode="&#x2321;" />
<glyph unicode="&#x2500;" />
<glyph unicode="&#x2502;" />
<glyph unicode="&#x250c;" />
<glyph unicode="&#x2510;" />
<glyph unicode="&#x2514;" />
<glyph unicode="&#x2518;" />
<glyph unicode="&#x251c;" />
<glyph unicode="&#x2524;" />
<glyph unicode="&#x252c;" />
<glyph unicode="&#x2534;" />
<glyph unicode="&#x253c;" />
<glyph unicode="&#x2550;" />
<glyph unicode="&#x2551;" />
<glyph unicode="&#x2552;" />
<glyph unicode="&#x2553;" />
<glyph unicode="&#x2554;" />
<glyph unicode="&#x2555;" />
<glyph unicode="&#x2556;" />
<glyph unicode="&#x2557;" />
<glyph unicode="&#x2558;" />
<glyph unicode="&#x2559;" />
<glyph unicode="&#x255a;" />
<glyph unicode="&#x255b;" />
<glyph unicode="&#x255c;" />
<glyph unicode="&#x255d;" />
<glyph unicode="&#x255e;" />
<glyph unicode="&#x255f;" />
<glyph unicode="&#x2560;" />
<glyph unicode="&#x2561;" />
<glyph unicode="&#x2562;" />
<glyph unicode="&#x2563;" />
<glyph unicode="&#x2564;" />
<glyph unicode="&#x2565;" />
<glyph unicode="&#x2566;" />
<glyph unicode="&#x2567;" />
<glyph unicode="&#x2568;" />
<glyph unicode="&#x2569;" />
<glyph unicode="&#x256a;" />
<glyph unicode="&#x256b;" />
<glyph unicode="&#x256c;" />
<glyph unicode="&#x2580;" />
<glyph unicode="&#x2584;" />
<glyph unicode="&#x2588;" />
<glyph unicode="&#x258c;" />
<glyph unicode="&#x2590;" />
<glyph unicode="&#x2591;" />
<glyph unicode="&#x2592;" />
<glyph unicode="&#x2593;" />
<glyph unicode="&#x25a0;" horiz-adv-x="500" />
<glyph unicode="&#x25ac;" />
<glyph unicode="&#x25b2;" />
<glyph unicode="&#x25ba;" />
<glyph unicode="&#x25bc;" />
<glyph unicode="&#x25c4;" />
<glyph unicode="&#x25ca;" />
<glyph unicode="&#x25cb;" />
<glyph unicode="&#x25d8;" />
<glyph unicode="&#x25d9;" />
<glyph unicode="&#x263a;" />
<glyph unicode="&#x263b;" />
<glyph unicode="&#x263c;" />
<glyph unicode="&#x2640;" />
<glyph unicode="&#x2642;" />
<glyph unicode="&#x2660;" />
<glyph unicode="&#x2663;" />
<glyph unicode="&#x2665;" />
<glyph unicode="&#x2666;" />
<glyph unicode="&#x266a;" />
<glyph unicode="&#x266b;" />
<glyph unicode="&#xe000;" horiz-adv-x="475" d="M0 475h475v-475h-475v475z" />
<glyph unicode="&#xf000;" />
<glyph unicode="&#xf001;" horiz-adv-x="600" d="M20 0v35l84 12v361q-7 -2 -14.5 -2h-15.5q-7 0 -14.5 -0.5t-14.5 -1.5v47q7 -2 14.5 -3t14.5 -1h15.5h14.5v16.5t1 17.5v9t1 9q0 4 0.5 8.5t0.5 8.5q2 39 10.5 76t22.5 71q14 35 42.5 59.5t71.5 39.5q8 3 16.5 5t17.5 3q9 2 18 2.5t18 0.5h2h2h2h2q27 -1 52.5 -8 t49.5 -21t39.5 -35t22.5 -49q1 -4 1.5 -7.5t1.5 -6.5v-4t1 -3v-3.5v-3.5q0 -14 -3.5 -26t-11.5 -21q-7 -10 -16 -14.5t-20 -4.5h-4h-4t-3.5 1t-3.5 2q-2 0 -4 1l-4 2q-2 2 -4 3.5t-4 2.5q-4 3 -7.5 6t-5.5 7t-3.5 8t-1.5 8q-1 1 -1 2v2v2v2v1.5v1.5q0 8 3 14.5t8 12.5 q6 6 14.5 10t18.5 5q-4 20 -14.5 36t-27.5 27q-16 11 -35 16.5t-39 6.5h-2h-2h-2h-2q-25 -1 -47.5 -12.5t-42.5 -31.5q-21 -20 -31 -51.5t-10 -74.5v-127h138q20 -2 40 0t39 6t38 9.5t38 12.5q2 1 4.5 2t5.5 2l3 1.5l3 1.5q1 0 2.5 0.5t2.5 1.5v-4v-3q-1 -2 -1 -4v-4v-7.5 v-7.5v-2v-2q-1 -1 -1 -2v-2v-4v-4v-4v-4v-4v-4v-377l82 -12v-35h-252v35l86 12v361h-228v-361l82 -12v-35h-250v0z" />
<glyph unicode="&#xf002;" horiz-adv-x="600" d="M20 0v35l84 12v361q-7 -2 -14.5 -2h-15.5q-7 0 -14.5 -0.5t-14.5 -1.5v47q7 -2 14.5 -3t14.5 -1h15.5h14.5v16t1 16q0 8 0.5 16.5t1.5 17.5q2 39 10.5 76t22.5 72t42.5 60.5t71.5 40.5q6 2 12 3.5t13 2.5q7 2 14 2.5t14 1.5h2t2 1h2.5h2.5h4.5h4.5q16 0 31.5 -2t30.5 -7 q15 -4 28.5 -10.5t25.5 -15.5l61 41v-5v-4q-1 -2 -1 -4v-4v-7.5v-7.5v-4v-4q-1 -2 -1 -4v-4v-7.5v-6.5v-670l82 -12v-35h-252v35l86 12v576q0 25 -5 46t-16 38q-10 17 -27 26t-41 9h-4h-4q-2 -1 -4 -1h-4q-4 -1 -8.5 -1.5t-9.5 -1.5q-28 -5 -48 -18.5t-31 -34.5 q-10 -22 -16.5 -45t-8.5 -48v-4.5v-4.5q-1 -2 -1 -4v-4v-8v-8v-110q8 -2 15.5 -2h14.5h8h8h7h8h15.5h14.5q8 0 15.5 0.5t14.5 1.5v-43q-7 -1 -14.5 -1h-15.5h-7.5t-7.5 1h-7.5h-7.5h-8h-7h-8h-8h-14.5h-15.5v-359l82 -12v-35h-250v0z" />
<glyph />
<glyph horiz-adv-x="590" d="M160 426q8 19 22 35t33 28t39 18t42 6q7 0 13.5 -0.5t12.5 -1.5t12.5 -3l13.5 -4q21 -8 37.5 -21.5t28.5 -32.5t18 -39t6 -42q0 -7 -0.5 -14t-2.5 -14q-1 -7 -3 -13.5l-4 -13.5q-9 -20 -22.5 -36.5t-31.5 -28.5t-38 -18t-41 -6h-7.5h-6.5q-4 0 -7 1l-6 2q-4 0 -7.5 1 t-6.5 2q-4 1 -7.5 2.5t-6.5 2.5q-21 8 -37 22t-28 33t-18 39t-6 42v6v6t0.5 6.5t1.5 7.5v3.5t1 3.5q0 1 0.5 3t1.5 3q0 2 0.5 3.5t1.5 3.5q0 1 0.5 3t1.5 3v2v0z" />
<glyph horiz-adv-x="500" d="M0 219v54h500v-54h-500v0z" />
</font>
</defs>
</svg>
